M48
; DRILL file {KiCad 9.0.1} date 2025-09-09T14:55:51-0600
; FORMAT={-:-/ absolute / metric / decimal}
; #@! TF.CreationDate,2025-09-09T14:55:51-06:00
; #@! TF.GenerationSoftware,Kicad,Pcbnew,9.0.1
; #@! TF.FileFunction,MixedPlating,1,4
FMAT,2
METRIC
; #@! TA.AperFunction,Plated,PTH,ViaDrill
T1C0.300
; #@! TA.AperFunction,Plated,PTH,ComponentDrill
T2C0.600
; #@! TA.AperFunction,Plated,PTH,ComponentDrill
T3C1.016
; #@! TA.AperFunction,Plated,PTH,ComponentDrill
T4C3.100
; #@! TA.AperFunction,NonPlated,NPTH,ComponentDrill
T5C0.650
; #@! TA.AperFunction,NonPlated,NPTH,ComponentDrill
T6C2.300
%
G90
G05
T1
X0.952Y135.794
X0.952Y106.846
X0.952Y77.898
X0.952Y48.95
X0.952Y20.002
X3.492Y133.255
X3.492Y127.222
X3.492Y104.306
X3.492Y98.274
X3.492Y75.358
X3.492Y69.326
X3.492Y46.41
X3.492Y40.378
X3.492Y17.462
X3.492Y11.43
X3.81Y135.159
X3.81Y122.778
X3.81Y106.212
X3.81Y93.83
X3.81Y77.263
X3.81Y64.882
X3.81Y48.316
X3.81Y35.934
X3.81Y19.367
X3.81Y6.986
X4.001Y130.981
X4.001Y102.033
X4.001Y73.085
X4.001Y44.137
X4.001Y15.189
X4.13Y132.936
X4.13Y103.988
X4.13Y75.04
X4.13Y46.092
X4.13Y17.144
X4.496Y125.686
X4.496Y96.738
X4.496Y67.79
X4.496Y38.842
X4.496Y9.894
X4.763Y131.032
X4.763Y122.142
X4.763Y102.084
X4.763Y93.194
X4.763Y73.136
X4.763Y64.246
X4.763Y44.188
X4.763Y35.298
X4.763Y15.24
X4.763Y6.35
X5.397Y131.667
X5.397Y102.719
X5.397Y73.771
X5.397Y44.823
X5.397Y15.875
X6.032Y130.714
X6.032Y101.766
X6.032Y72.819
X6.032Y43.87
X6.032Y14.922
X6.794Y133.255
X6.794Y104.306
X6.794Y75.358
X6.794Y46.41
X6.794Y17.462
X6.985Y136.112
X6.985Y107.164
X6.985Y78.216
X6.985Y49.268
X6.985Y20.32
X8.255Y132.302
X8.255Y103.354
X8.255Y74.406
X8.255Y45.458
X8.255Y16.51
X8.468Y130.397
X8.468Y101.449
X8.468Y72.501
X8.468Y43.553
X8.468Y14.605
X8.572Y128.492
X8.572Y99.544
X8.572Y70.596
X8.572Y41.648
X8.572Y12.7
X8.792Y127.04
X8.792Y98.092
X8.792Y69.144
X8.792Y40.196
X8.792Y11.248
X8.89Y134.048
X8.89Y105.1
X8.89Y76.152
X8.89Y47.204
X8.89Y18.256
X9.207Y132.746
X9.207Y124.047
X9.207Y103.798
X9.207Y95.099
X9.207Y74.85
X9.207Y66.151
X9.207Y45.902
X9.207Y37.203
X9.207Y16.954
X9.207Y8.255
X10.16Y132.746
X10.16Y121.825
X10.16Y103.798
X10.16Y92.876
X10.16Y74.85
X10.16Y63.928
X10.16Y45.902
X10.16Y34.98
X10.16Y16.954
X10.16Y6.032
X10.477Y123.174
X10.477Y94.226
X10.477Y65.278
X10.477Y36.33
X10.477Y7.382
X10.594Y132.101
X10.594Y103.153
X10.594Y74.205
X10.594Y45.257
X10.594Y16.309
X11.866Y125.108
X11.866Y96.16
X11.866Y67.212
X11.866Y38.264
X11.866Y9.316
X12.065Y136.429
X12.065Y107.481
X12.065Y78.533
X12.065Y49.585
X12.065Y20.637
X12.691Y125.079
X12.691Y96.131
X12.691Y67.183
X12.691Y38.235
X12.691Y9.287
X12.7Y121.825
X12.7Y92.876
X12.7Y63.928
X12.7Y34.98
X12.7Y6.032
X13.335Y136.429
X13.335Y107.481
X13.335Y78.533
X13.335Y49.585
X13.335Y20.637
X14.605Y132.619
X14.605Y103.671
X14.605Y74.724
X14.605Y45.776
X14.605Y16.828
X15.24Y121.507
X15.24Y92.559
X15.24Y63.611
X15.24Y34.663
X15.24Y5.715
X15.399Y123.888
X15.399Y94.94
X15.399Y65.992
X15.399Y37.044
X15.399Y8.096
X16.193Y132.937
X16.193Y103.989
X16.193Y75.041
X16.193Y46.093
X16.193Y17.145
X16.51Y126.854
X16.51Y97.906
X16.51Y68.958
X16.51Y40.01
X16.51Y11.062
X16.636Y128.809
X16.636Y99.861
X16.636Y70.913
X16.636Y41.965
X16.636Y13.018
X17.143Y130.398
X17.143Y101.45
X17.143Y72.502
X17.143Y43.554
X17.143Y14.606
X17.145Y125.634
X17.145Y124.922
X17.145Y96.686
X17.145Y95.974
X17.145Y67.739
X17.145Y67.026
X17.145Y38.791
X17.145Y38.078
X17.145Y9.842
X17.145Y9.13
X17.259Y132.619
X17.259Y103.671
X17.259Y74.724
X17.259Y45.776
X17.259Y16.828
X17.78Y130.079
X17.78Y121.507
X17.78Y101.131
X17.78Y92.559
X17.78Y72.183
X17.78Y63.611
X17.78Y43.235
X17.78Y34.663
X17.78Y14.287
X17.78Y5.715
X18.098Y134.842
X18.098Y105.894
X18.098Y76.946
X18.098Y47.998
X18.098Y19.05
X18.415Y136.112
X18.415Y125.317
X18.415Y107.164
X18.415Y96.369
X18.415Y78.216
X18.415Y67.421
X18.415Y49.268
X18.415Y38.473
X18.415Y20.32
X18.415Y9.525
X18.541Y130.714
X18.541Y101.766
X18.541Y72.819
X18.541Y43.87
X18.541Y14.922
X19.05Y131.667
X19.05Y102.719
X19.05Y73.771
X19.05Y44.823
X19.05Y15.875
X19.367Y126.904
X19.367Y97.956
X19.367Y69.008
X19.367Y40.06
X19.367Y11.112
X19.685Y132.937
X19.685Y103.989
X19.685Y75.041
X19.685Y46.093
X19.685Y17.145
X20.161Y121.825
X20.161Y92.876
X20.161Y63.928
X20.161Y34.98
X20.161Y6.032
X20.32Y135.794
X20.32Y106.846
X20.32Y77.898
X20.32Y48.95
X20.32Y20.002
X20.637Y120.554
X20.637Y116.427
X20.637Y91.606
X20.637Y87.479
X20.637Y62.658
X20.637Y58.531
X20.637Y33.71
X20.637Y29.583
X20.637Y4.763
X20.637Y0.635
X21.907Y126.269
X21.907Y97.322
X21.907Y68.373
X21.907Y39.425
X21.907Y10.477
X23.495Y135.477
X23.495Y106.529
X23.495Y77.581
X23.495Y48.633
X23.495Y19.685
X24.447Y135.794
X24.447Y106.846
X24.447Y77.898
X24.447Y48.95
X24.447Y20.002
X24.765Y121.825
X24.765Y92.876
X24.765Y63.928
X24.765Y34.98
X24.765Y6.032
X26.852Y135.794
X26.852Y106.846
X26.852Y77.898
X26.852Y48.95
X26.852Y20.002
X29.392Y133.255
X29.392Y127.222
X29.392Y104.306
X29.392Y98.274
X29.392Y75.358
X29.392Y69.326
X29.392Y46.41
X29.392Y40.378
X29.392Y17.462
X29.392Y11.43
X29.71Y135.159
X29.71Y122.778
X29.71Y106.212
X29.71Y93.83
X29.71Y77.263
X29.71Y64.882
X29.71Y48.316
X29.71Y35.934
X29.71Y19.367
X29.71Y6.986
X29.901Y130.981
X29.901Y102.033
X29.901Y73.085
X29.901Y44.137
X29.901Y15.189
X30.03Y132.936
X30.03Y103.988
X30.03Y75.04
X30.03Y46.092
X30.03Y17.144
X30.396Y125.686
X30.396Y96.738
X30.396Y67.79
X30.396Y38.842
X30.396Y9.894
X30.662Y131.032
X30.662Y122.142
X30.662Y102.084
X30.662Y93.194
X30.662Y73.136
X30.662Y64.246
X30.662Y44.188
X30.662Y35.298
X30.662Y15.24
X30.662Y6.35
X31.297Y131.667
X31.297Y102.719
X31.297Y73.771
X31.297Y44.823
X31.297Y15.875
X31.932Y130.714
X31.932Y101.766
X31.932Y72.819
X31.932Y43.87
X31.932Y14.922
X32.694Y133.255
X32.694Y104.306
X32.694Y75.358
X32.694Y46.41
X32.694Y17.462
X32.885Y136.112
X32.885Y107.164
X32.885Y78.216
X32.885Y49.268
X32.885Y20.32
X34.155Y132.302
X34.155Y103.354
X34.155Y74.406
X34.155Y45.458
X34.155Y16.51
X34.368Y130.397
X34.368Y101.449
X34.368Y72.501
X34.368Y43.553
X34.368Y14.605
X34.472Y128.492
X34.472Y99.544
X34.472Y70.596
X34.472Y41.648
X34.472Y12.7
X34.692Y127.04
X34.692Y98.092
X34.692Y69.144
X34.692Y40.196
X34.692Y11.248
X34.79Y134.048
X34.79Y105.1
X34.79Y76.152
X34.79Y47.204
X34.79Y18.256
X35.108Y132.746
X35.108Y124.047
X35.108Y103.798
X35.108Y95.099
X35.108Y74.85
X35.108Y66.151
X35.108Y45.902
X35.108Y37.203
X35.108Y16.954
X35.108Y8.255
X36.06Y132.746
X36.06Y121.825
X36.06Y103.798
X36.06Y92.876
X36.06Y74.85
X36.06Y63.928
X36.06Y45.902
X36.06Y34.98
X36.06Y16.954
X36.06Y6.032
X36.377Y123.174
X36.377Y94.226
X36.377Y65.278
X36.377Y36.33
X36.377Y7.382
X36.494Y132.101
X36.494Y103.153
X36.494Y74.205
X36.494Y45.257
X36.494Y16.309
X37.766Y125.108
X37.766Y96.16
X37.766Y67.212
X37.766Y38.264
X37.766Y9.316
X37.965Y136.429
X37.965Y107.481
X37.965Y78.533
X37.965Y49.585
X37.965Y20.637
X38.591Y125.079
X38.591Y96.131
X38.591Y67.183
X38.591Y38.235
X38.591Y9.287
X38.6Y121.825
X38.6Y92.876
X38.6Y63.928
X38.6Y34.98
X38.6Y6.032
X39.235Y136.429
X39.235Y107.481
X39.235Y78.533
X39.235Y49.585
X39.235Y20.637
X40.505Y132.619
X40.505Y103.671
X40.505Y74.724
X40.505Y45.776
X40.505Y16.828
X41.14Y121.507
X41.14Y92.559
X41.14Y63.611
X41.14Y34.663
X41.14Y5.715
X41.299Y123.888
X41.299Y94.94
X41.299Y65.992
X41.299Y37.044
X41.299Y8.096
X42.093Y132.937
X42.093Y103.989
X42.093Y75.041
X42.093Y46.093
X42.093Y17.145
X42.41Y126.854
X42.41Y97.906
X42.41Y68.958
X42.41Y40.01
X42.41Y11.062
X42.536Y128.809
X42.536Y99.861
X42.536Y70.913
X42.536Y41.965
X42.536Y13.018
X43.043Y130.398
X43.043Y101.45
X43.043Y72.502
X43.043Y43.554
X43.043Y14.606
X43.045Y125.634
X43.045Y124.922
X43.045Y96.686
X43.045Y95.974
X43.045Y67.739
X43.045Y67.026
X43.045Y38.791
X43.045Y38.078
X43.045Y9.842
X43.045Y9.13
X43.159Y132.619
X43.159Y103.671
X43.159Y74.724
X43.159Y45.776
X43.159Y16.828
X43.68Y130.079
X43.68Y121.507
X43.68Y101.131
X43.68Y92.559
X43.68Y72.183
X43.68Y63.611
X43.68Y43.235
X43.68Y34.663
X43.68Y14.287
X43.68Y5.715
X43.997Y134.842
X43.997Y105.894
X43.997Y76.946
X43.997Y47.998
X43.997Y19.05
X44.315Y136.112
X44.315Y125.317
X44.315Y107.164
X44.315Y96.369
X44.315Y78.216
X44.315Y67.421
X44.315Y49.268
X44.315Y38.473
X44.315Y20.32
X44.315Y9.525
X44.441Y130.714
X44.441Y101.766
X44.441Y72.819
X44.441Y43.87
X44.441Y14.922
X44.95Y131.667
X44.95Y102.719
X44.95Y73.771
X44.95Y44.823
X44.95Y15.875
X45.267Y126.904
X45.267Y97.956
X45.267Y69.008
X45.267Y40.06
X45.267Y11.112
X45.585Y132.937
X45.585Y103.989
X45.585Y75.041
X45.585Y46.093
X45.585Y17.145
X46.061Y121.825
X46.061Y92.876
X46.061Y63.928
X46.061Y34.98
X46.061Y6.032
X46.22Y135.794
X46.22Y106.846
X46.22Y77.898
X46.22Y48.95
X46.22Y20.002
X46.538Y120.554
X46.538Y116.427
X46.538Y91.606
X46.538Y87.479
X46.538Y62.658
X46.538Y58.531
X46.538Y33.71
X46.538Y29.583
X46.538Y4.763
X46.538Y0.635
X47.807Y126.269
X47.807Y97.322
X47.807Y68.373
X47.807Y39.425
X47.807Y10.477
X49.395Y135.477
X49.395Y106.529
X49.395Y77.581
X49.395Y48.633
X49.395Y19.685
X50.347Y135.794
X50.347Y106.846
X50.347Y77.898
X50.347Y48.95
X50.347Y20.002
X50.665Y121.825
X50.665Y92.876
X50.665Y63.928
X50.665Y34.98
X50.665Y6.032
X52.752Y135.794
X52.752Y106.846
X52.752Y77.898
X52.752Y48.95
X52.752Y20.002
X55.292Y133.255
X55.292Y127.222
X55.292Y104.306
X55.292Y98.274
X55.292Y75.358
X55.292Y69.326
X55.292Y46.41
X55.292Y40.378
X55.292Y17.462
X55.292Y11.43
X55.61Y135.159
X55.61Y122.778
X55.61Y106.212
X55.61Y93.83
X55.61Y77.263
X55.61Y64.882
X55.61Y48.316
X55.61Y35.934
X55.61Y19.367
X55.61Y6.986
X55.801Y130.981
X55.801Y102.033
X55.801Y73.085
X55.801Y44.137
X55.801Y15.189
X55.93Y132.936
X55.93Y103.988
X55.93Y75.04
X55.93Y46.092
X55.93Y17.144
X56.296Y125.686
X56.296Y96.738
X56.296Y67.79
X56.296Y38.842
X56.296Y9.894
X56.562Y131.032
X56.562Y122.142
X56.562Y102.084
X56.562Y93.194
X56.562Y73.136
X56.562Y64.246
X56.562Y44.188
X56.562Y35.298
X56.562Y15.24
X56.562Y6.35
X57.197Y131.667
X57.197Y102.719
X57.197Y73.771
X57.197Y44.823
X57.197Y15.875
X57.832Y130.714
X57.832Y101.766
X57.832Y72.819
X57.832Y43.87
X57.832Y14.922
X58.594Y133.255
X58.594Y104.306
X58.594Y75.358
X58.594Y46.41
X58.594Y17.462
X58.785Y136.112
X58.785Y107.164
X58.785Y78.216
X58.785Y49.268
X58.785Y20.32
X60.055Y132.302
X60.055Y103.354
X60.055Y74.406
X60.055Y45.458
X60.055Y16.51
X60.268Y130.397
X60.268Y101.449
X60.268Y72.501
X60.268Y43.553
X60.268Y14.605
X60.372Y128.492
X60.372Y99.544
X60.372Y70.596
X60.372Y41.648
X60.372Y12.7
X60.592Y127.04
X60.592Y98.092
X60.592Y69.144
X60.592Y40.196
X60.592Y11.248
X60.69Y134.048
X60.69Y105.1
X60.69Y76.152
X60.69Y47.204
X60.69Y18.256
X61.008Y132.746
X61.008Y124.047
X61.008Y103.798
X61.008Y95.099
X61.008Y74.85
X61.008Y66.151
X61.008Y45.902
X61.008Y37.203
X61.008Y16.954
X61.008Y8.255
X61.96Y132.746
X61.96Y121.825
X61.96Y103.798
X61.96Y92.876
X61.96Y74.85
X61.96Y63.928
X61.96Y45.902
X61.96Y34.98
X61.96Y16.954
X61.96Y6.032
X62.277Y123.174
X62.277Y94.226
X62.277Y65.278
X62.277Y36.33
X62.277Y7.382
X62.394Y132.101
X62.394Y103.153
X62.394Y74.205
X62.394Y45.257
X62.394Y16.309
X63.666Y125.108
X63.666Y96.16
X63.666Y67.212
X63.666Y38.264
X63.666Y9.316
X63.865Y136.429
X63.865Y107.481
X63.865Y78.533
X63.865Y49.585
X63.865Y20.637
X64.491Y125.079
X64.491Y96.131
X64.491Y67.183
X64.491Y38.235
X64.491Y9.287
X64.5Y121.825
X64.5Y92.876
X64.5Y63.928
X64.5Y34.98
X64.5Y6.032
X65.135Y136.429
X65.135Y107.481
X65.135Y78.533
X65.135Y49.585
X65.135Y20.637
X66.405Y132.619
X66.405Y103.671
X66.405Y74.724
X66.405Y45.776
X66.405Y16.828
X67.04Y121.507
X67.04Y92.559
X67.04Y63.611
X67.04Y34.663
X67.04Y5.715
X67.199Y123.888
X67.199Y94.94
X67.199Y65.992
X67.199Y37.044
X67.199Y8.096
X67.993Y132.937
X67.993Y103.989
X67.993Y75.041
X67.993Y46.093
X67.993Y17.145
X68.31Y126.854
X68.31Y97.906
X68.31Y68.958
X68.31Y40.01
X68.31Y11.062
X68.436Y128.809
X68.436Y99.861
X68.436Y70.913
X68.436Y41.965
X68.436Y13.018
X68.943Y130.398
X68.943Y101.45
X68.943Y72.502
X68.943Y43.554
X68.943Y14.606
X68.945Y125.634
X68.945Y124.922
X68.945Y96.686
X68.945Y95.974
X68.945Y67.739
X68.945Y67.026
X68.945Y38.791
X68.945Y38.078
X68.945Y9.842
X68.945Y9.13
X69.059Y132.619
X69.059Y103.671
X69.059Y74.724
X69.059Y45.776
X69.059Y16.828
X69.58Y130.079
X69.58Y121.507
X69.58Y101.131
X69.58Y92.559
X69.58Y72.183
X69.58Y63.611
X69.58Y43.235
X69.58Y34.663
X69.58Y14.287
X69.58Y5.715
X69.897Y134.842
X69.897Y105.894
X69.897Y76.946
X69.897Y47.998
X69.897Y19.05
X70.215Y136.112
X70.215Y125.317
X70.215Y107.164
X70.215Y96.369
X70.215Y78.216
X70.215Y67.421
X70.215Y49.268
X70.215Y38.473
X70.215Y20.32
X70.215Y9.525
X70.341Y130.714
X70.341Y101.766
X70.341Y72.819
X70.341Y43.87
X70.341Y14.922
X70.85Y131.667
X70.85Y102.719
X70.85Y73.771
X70.85Y44.823
X70.85Y15.875
X71.167Y126.904
X71.167Y97.956
X71.167Y69.008
X71.167Y40.06
X71.167Y11.112
X71.485Y132.937
X71.485Y103.989
X71.485Y75.041
X71.485Y46.093
X71.485Y17.145
X71.961Y121.825
X71.961Y92.876
X71.961Y63.928
X71.961Y34.98
X71.961Y6.032
X72.12Y135.794
X72.12Y106.846
X72.12Y77.898
X72.12Y48.95
X72.12Y20.002
X72.438Y120.554
X72.438Y116.427
X72.438Y91.606
X72.438Y87.479
X72.438Y62.658
X72.438Y58.531
X72.438Y33.71
X72.438Y29.583
X72.438Y4.763
X72.438Y0.635
X73.707Y126.269
X73.707Y97.322
X73.707Y68.373
X73.707Y39.425
X73.707Y10.477
X75.295Y135.477
X75.295Y106.529
X75.295Y77.581
X75.295Y48.633
X75.295Y19.685
X76.248Y135.794
X76.248Y106.846
X76.248Y77.898
X76.248Y48.95
X76.248Y20.002
X76.565Y121.825
X76.565Y92.876
X76.565Y63.928
X76.565Y34.98
X76.565Y6.032
X78.653Y135.794
X78.653Y106.846
X78.653Y77.898
X78.653Y48.95
X78.653Y20.002
X81.192Y133.255
X81.192Y127.222
X81.192Y104.306
X81.192Y98.274
X81.192Y75.358
X81.192Y69.326
X81.192Y46.41
X81.192Y40.378
X81.192Y17.462
X81.192Y11.43
X81.51Y135.159
X81.51Y122.778
X81.51Y106.212
X81.51Y93.83
X81.51Y77.263
X81.51Y64.882
X81.51Y48.316
X81.51Y35.934
X81.51Y19.367
X81.51Y6.986
X81.701Y130.981
X81.701Y102.033
X81.701Y73.085
X81.701Y44.137
X81.701Y15.189
X81.83Y132.936
X81.83Y103.988
X81.83Y75.04
X81.83Y46.092
X81.83Y17.144
X82.196Y125.686
X82.196Y96.738
X82.196Y67.79
X82.196Y38.842
X82.196Y9.894
X82.462Y131.032
X82.462Y122.142
X82.462Y102.084
X82.462Y93.194
X82.462Y73.136
X82.462Y64.246
X82.462Y44.188
X82.462Y35.298
X82.462Y15.24
X82.462Y6.35
X83.097Y131.667
X83.097Y102.719
X83.097Y73.771
X83.097Y44.823
X83.097Y15.875
X83.733Y130.714
X83.733Y101.766
X83.733Y72.819
X83.733Y43.87
X83.733Y14.922
X84.494Y133.255
X84.494Y104.306
X84.494Y75.358
X84.494Y46.41
X84.494Y17.462
X84.685Y136.112
X84.685Y107.164
X84.685Y78.216
X84.685Y49.268
X84.685Y20.32
X85.955Y132.302
X85.955Y103.354
X85.955Y74.406
X85.955Y45.458
X85.955Y16.51
X86.168Y130.397
X86.168Y101.449
X86.168Y72.501
X86.168Y43.553
X86.168Y14.605
X86.272Y128.492
X86.272Y99.544
X86.272Y70.596
X86.272Y41.648
X86.272Y12.7
X86.492Y127.04
X86.492Y98.092
X86.492Y69.144
X86.492Y40.196
X86.492Y11.248
X86.59Y134.048
X86.59Y105.1
X86.59Y76.152
X86.59Y47.204
X86.59Y18.256
X86.907Y132.746
X86.907Y124.047
X86.907Y103.798
X86.907Y95.099
X86.907Y74.85
X86.907Y66.151
X86.907Y45.902
X86.907Y37.203
X86.907Y16.954
X86.907Y8.255
X87.86Y132.746
X87.86Y121.825
X87.86Y103.798
X87.86Y92.876
X87.86Y74.85
X87.86Y63.928
X87.86Y45.902
X87.86Y34.98
X87.86Y16.954
X87.86Y6.032
X88.177Y123.174
X88.177Y94.226
X88.177Y65.278
X88.177Y36.33
X88.177Y7.382
X88.294Y132.101
X88.294Y103.153
X88.294Y74.205
X88.294Y45.257
X88.294Y16.309
X89.566Y125.108
X89.566Y96.16
X89.566Y67.212
X89.566Y38.264
X89.566Y9.316
X89.765Y136.429
X89.765Y107.481
X89.765Y78.533
X89.765Y49.585
X89.765Y20.637
X90.391Y125.079
X90.391Y96.131
X90.391Y67.183
X90.391Y38.235
X90.391Y9.287
X90.4Y121.825
X90.4Y92.876
X90.4Y63.928
X90.4Y34.98
X90.4Y6.032
X91.035Y136.429
X91.035Y107.481
X91.035Y78.533
X91.035Y49.585
X91.035Y20.637
X92.305Y132.619
X92.305Y103.671
X92.305Y74.724
X92.305Y45.776
X92.305Y16.828
X92.94Y121.507
X92.94Y92.559
X92.94Y63.611
X92.94Y34.663
X92.94Y5.715
X93.099Y123.888
X93.099Y94.94
X93.099Y65.992
X93.099Y37.044
X93.099Y8.096
X93.893Y132.937
X93.893Y103.989
X93.893Y75.041
X93.893Y46.093
X93.893Y17.145
X94.21Y126.854
X94.21Y97.906
X94.21Y68.958
X94.21Y40.01
X94.21Y11.062
X94.336Y128.809
X94.336Y99.861
X94.336Y70.913
X94.336Y41.965
X94.336Y13.018
X94.843Y130.398
X94.843Y101.45
X94.843Y72.502
X94.843Y43.554
X94.843Y14.606
X94.845Y125.634
X94.845Y124.922
X94.845Y96.686
X94.845Y95.974
X94.845Y67.739
X94.845Y67.026
X94.845Y38.791
X94.845Y38.078
X94.845Y9.842
X94.845Y9.13
X94.959Y132.619
X94.959Y103.671
X94.959Y74.724
X94.959Y45.776
X94.959Y16.828
X95.48Y130.079
X95.48Y121.507
X95.48Y101.131
X95.48Y92.559
X95.48Y72.183
X95.48Y63.611
X95.48Y43.235
X95.48Y34.663
X95.48Y14.287
X95.48Y5.715
X95.797Y134.842
X95.797Y105.894
X95.797Y76.946
X95.797Y47.998
X95.797Y19.05
X96.115Y136.112
X96.115Y125.317
X96.115Y107.164
X96.115Y96.369
X96.115Y78.216
X96.115Y67.421
X96.115Y49.268
X96.115Y38.473
X96.115Y20.32
X96.115Y9.525
X96.241Y130.714
X96.241Y101.766
X96.241Y72.819
X96.241Y43.87
X96.241Y14.922
X96.75Y131.667
X96.75Y102.719
X96.75Y73.771
X96.75Y44.823
X96.75Y15.875
X97.067Y126.904
X97.067Y97.956
X97.067Y69.008
X97.067Y40.06
X97.067Y11.112
X97.385Y132.937
X97.385Y103.989
X97.385Y75.041
X97.385Y46.093
X97.385Y17.145
X97.861Y121.825
X97.861Y92.876
X97.861Y63.928
X97.861Y34.98
X97.861Y6.032
X98.02Y135.794
X98.02Y106.846
X98.02Y77.898
X98.02Y48.95
X98.02Y20.002
X98.337Y120.554
X98.337Y116.427
X98.337Y91.606
X98.337Y87.479
X98.337Y62.658
X98.337Y58.531
X98.337Y33.71
X98.337Y29.583
X98.337Y4.763
X98.337Y0.635
X99.608Y126.269
X99.608Y97.322
X99.608Y68.373
X99.608Y39.425
X99.608Y10.477
X101.195Y135.477
X101.195Y106.529
X101.195Y77.581
X101.195Y48.633
X101.195Y19.685
X102.147Y135.794
X102.147Y106.846
X102.147Y77.898
X102.147Y48.95
X102.147Y20.002
X102.465Y121.825
X102.465Y92.876
X102.465Y63.928
X102.465Y34.98
X102.465Y6.032
X104.552Y135.794
X104.552Y106.846
X104.552Y77.898
X104.552Y48.95
X104.552Y20.002
X107.093Y133.255
X107.093Y127.222
X107.093Y104.306
X107.093Y98.274
X107.093Y75.358
X107.093Y69.326
X107.093Y46.41
X107.093Y40.378
X107.093Y17.462
X107.093Y11.43
X107.41Y135.159
X107.41Y122.778
X107.41Y106.212
X107.41Y93.83
X107.41Y77.263
X107.41Y64.882
X107.41Y48.316
X107.41Y35.934
X107.41Y19.367
X107.41Y6.986
X107.601Y130.981
X107.601Y102.033
X107.601Y73.085
X107.601Y44.137
X107.601Y15.189
X107.73Y132.936
X107.73Y103.988
X107.73Y75.04
X107.73Y46.092
X107.73Y17.144
X108.096Y125.686
X108.096Y96.738
X108.096Y67.79
X108.096Y38.842
X108.096Y9.894
X108.362Y131.032
X108.362Y122.142
X108.362Y102.084
X108.362Y93.194
X108.362Y73.136
X108.362Y64.246
X108.362Y44.188
X108.362Y35.298
X108.362Y15.24
X108.362Y6.35
X108.997Y131.667
X108.997Y102.719
X108.997Y73.771
X108.997Y44.823
X108.997Y15.875
X109.632Y130.714
X109.632Y101.766
X109.632Y72.819
X109.632Y43.87
X109.632Y14.922
X110.394Y133.255
X110.394Y104.306
X110.394Y75.358
X110.394Y46.41
X110.394Y17.462
X110.585Y136.112
X110.585Y107.164
X110.585Y78.216
X110.585Y49.268
X110.585Y20.32
X111.855Y132.302
X111.855Y103.354
X111.855Y74.406
X111.855Y45.458
X111.855Y16.51
X112.068Y130.397
X112.068Y101.449
X112.068Y72.501
X112.068Y43.553
X112.068Y14.605
X112.172Y128.492
X112.172Y99.544
X112.172Y70.596
X112.172Y41.648
X112.172Y12.7
X112.392Y127.04
X112.392Y98.092
X112.392Y69.144
X112.392Y40.196
X112.392Y11.248
X112.49Y134.048
X112.49Y105.1
X112.49Y76.152
X112.49Y47.204
X112.49Y18.256
X112.807Y132.746
X112.807Y124.047
X112.807Y103.798
X112.807Y95.099
X112.807Y74.85
X112.807Y66.151
X112.807Y45.902
X112.807Y37.203
X112.807Y16.954
X112.807Y8.255
X113.76Y132.746
X113.76Y121.825
X113.76Y103.798
X113.76Y92.876
X113.76Y74.85
X113.76Y63.928
X113.76Y45.902
X113.76Y34.98
X113.76Y16.954
X113.76Y6.032
X114.078Y123.174
X114.078Y94.226
X114.078Y65.278
X114.078Y36.33
X114.078Y7.382
X114.194Y132.101
X114.194Y103.153
X114.194Y74.205
X114.194Y45.257
X114.194Y16.309
X115.466Y125.108
X115.466Y96.16
X115.466Y67.212
X115.466Y38.264
X115.466Y9.316
X115.665Y136.429
X115.665Y107.481
X115.665Y78.533
X115.665Y49.585
X115.665Y20.637
X116.291Y125.079
X116.291Y96.131
X116.291Y67.183
X116.291Y38.235
X116.291Y9.287
X116.3Y121.825
X116.3Y92.876
X116.3Y63.928
X116.3Y34.98
X116.3Y6.032
X116.935Y136.429
X116.935Y107.481
X116.935Y78.533
X116.935Y49.585
X116.935Y20.637
X118.205Y132.619
X118.205Y103.671
X118.205Y74.724
X118.205Y45.776
X118.205Y16.828
X118.84Y121.507
X118.84Y92.559
X118.84Y63.611
X118.84Y34.663
X118.84Y5.715
X118.999Y123.888
X118.999Y94.94
X118.999Y65.992
X118.999Y37.044
X118.999Y8.096
X119.793Y132.937
X119.793Y103.989
X119.793Y75.041
X119.793Y46.093
X119.793Y17.145
X120.11Y126.854
X120.11Y97.906
X120.11Y68.958
X120.11Y40.01
X120.11Y11.062
X120.236Y128.809
X120.236Y99.861
X120.236Y70.913
X120.236Y41.965
X120.236Y13.018
X120.743Y130.398
X120.743Y101.45
X120.743Y72.502
X120.743Y43.554
X120.743Y14.606
X120.745Y125.634
X120.745Y124.922
X120.745Y96.686
X120.745Y95.974
X120.745Y67.739
X120.745Y67.026
X120.745Y38.791
X120.745Y38.078
X120.745Y9.842
X120.745Y9.13
X120.859Y132.619
X120.859Y103.671
X120.859Y74.724
X120.859Y45.776
X120.859Y16.828
X121.38Y130.079
X121.38Y121.507
X121.38Y101.131
X121.38Y92.559
X121.38Y72.183
X121.38Y63.611
X121.38Y43.235
X121.38Y34.663
X121.38Y14.287
X121.38Y5.715
X121.697Y134.842
X121.697Y105.894
X121.697Y76.946
X121.697Y47.998
X121.697Y19.05
X122.015Y136.112
X122.015Y125.317
X122.015Y107.164
X122.015Y96.369
X122.015Y78.216
X122.015Y67.421
X122.015Y49.268
X122.015Y38.473
X122.015Y20.32
X122.015Y9.525
X122.141Y130.714
X122.141Y101.766
X122.141Y72.819
X122.141Y43.87
X122.141Y14.922
X122.65Y131.667
X122.65Y102.719
X122.65Y73.771
X122.65Y44.823
X122.65Y15.875
X122.968Y126.904
X122.968Y97.956
X122.968Y69.008
X122.968Y40.06
X122.968Y11.112
X123.285Y132.937
X123.285Y103.989
X123.285Y75.041
X123.285Y46.093
X123.285Y17.145
X123.761Y121.825
X123.761Y92.876
X123.761Y63.928
X123.761Y34.98
X123.761Y6.032
X123.92Y135.794
X123.92Y106.846
X123.92Y77.898
X123.92Y48.95
X123.92Y20.002
X124.237Y120.554
X124.237Y116.427
X124.237Y91.606
X124.237Y87.479
X124.237Y62.658
X124.237Y58.531
X124.237Y33.71
X124.237Y29.583
X124.237Y4.763
X124.237Y0.635
X125.507Y126.269
X125.507Y97.322
X125.507Y68.373
X125.507Y39.425
X125.507Y10.477
X127.095Y135.477
X127.095Y106.529
X127.095Y77.581
X127.095Y48.633
X127.095Y19.685
X128.047Y135.794
X128.047Y106.846
X128.047Y77.898
X128.047Y48.95
X128.047Y20.002
X128.365Y121.825
X128.365Y92.876
X128.365Y63.928
X128.365Y34.98
X128.365Y6.032
T3
X6.35Y139.922
X6.35Y119.602
X6.35Y117.062
X6.35Y110.974
X6.35Y90.654
X6.35Y88.114
X6.35Y82.026
X6.35Y61.706
X6.35Y59.166
X6.35Y53.078
X6.35Y32.758
X6.35Y30.218
X6.35Y24.13
X6.35Y3.81
X6.35Y1.27
X8.89Y119.602
X8.89Y117.062
X8.89Y90.654
X8.89Y88.114
X8.89Y61.706
X8.89Y59.166
X8.89Y32.758
X8.89Y30.218
X8.89Y3.81
X8.89Y1.27
X11.43Y119.602
X11.43Y117.062
X11.43Y90.654
X11.43Y88.114
X11.43Y61.706
X11.43Y59.166
X11.43Y32.758
X11.43Y30.218
X11.43Y3.81
X11.43Y1.27
X13.97Y119.602
X13.97Y117.062
X13.97Y90.654
X13.97Y88.114
X13.97Y61.706
X13.97Y59.166
X13.97Y32.758
X13.97Y30.218
X13.97Y3.81
X13.97Y1.27
X16.51Y119.602
X16.51Y117.062
X16.51Y90.654
X16.51Y88.114
X16.51Y61.706
X16.51Y59.166
X16.51Y32.758
X16.51Y30.218
X16.51Y3.81
X16.51Y1.27
X19.05Y139.922
X19.05Y119.602
X19.05Y117.062
X19.05Y110.974
X19.05Y90.654
X19.05Y88.114
X19.05Y82.026
X19.05Y61.706
X19.05Y59.166
X19.05Y53.078
X19.05Y32.758
X19.05Y30.218
X19.05Y24.13
X19.05Y3.81
X19.05Y1.27
X32.25Y139.922
X32.25Y119.602
X32.25Y117.062
X32.25Y110.974
X32.25Y90.654
X32.25Y88.114
X32.25Y82.026
X32.25Y61.706
X32.25Y59.166
X32.25Y53.078
X32.25Y32.758
X32.25Y30.218
X32.25Y24.13
X32.25Y3.81
X32.25Y1.27
X34.79Y119.602
X34.79Y117.062
X34.79Y90.654
X34.79Y88.114
X34.79Y61.706
X34.79Y59.166
X34.79Y32.758
X34.79Y30.218
X34.79Y3.81
X34.79Y1.27
X37.33Y119.602
X37.33Y117.062
X37.33Y90.654
X37.33Y88.114
X37.33Y61.706
X37.33Y59.166
X37.33Y32.758
X37.33Y30.218
X37.33Y3.81
X37.33Y1.27
X39.87Y119.602
X39.87Y117.062
X39.87Y90.654
X39.87Y88.114
X39.87Y61.706
X39.87Y59.166
X39.87Y32.758
X39.87Y30.218
X39.87Y3.81
X39.87Y1.27
X42.41Y119.602
X42.41Y117.062
X42.41Y90.654
X42.41Y88.114
X42.41Y61.706
X42.41Y59.166
X42.41Y32.758
X42.41Y30.218
X42.41Y3.81
X42.41Y1.27
X44.95Y139.922
X44.95Y119.602
X44.95Y117.062
X44.95Y110.974
X44.95Y90.654
X44.95Y88.114
X44.95Y82.026
X44.95Y61.706
X44.95Y59.166
X44.95Y53.078
X44.95Y32.758
X44.95Y30.218
X44.95Y24.13
X44.95Y3.81
X44.95Y1.27
X58.15Y139.922
X58.15Y119.602
X58.15Y117.062
X58.15Y110.974
X58.15Y90.654
X58.15Y88.114
X58.15Y82.026
X58.15Y61.706
X58.15Y59.166
X58.15Y53.078
X58.15Y32.758
X58.15Y30.218
X58.15Y24.13
X58.15Y3.81
X58.15Y1.27
X60.69Y119.602
X60.69Y117.062
X60.69Y90.654
X60.69Y88.114
X60.69Y61.706
X60.69Y59.166
X60.69Y32.758
X60.69Y30.218
X60.69Y3.81
X60.69Y1.27
X63.23Y119.602
X63.23Y117.062
X63.23Y90.654
X63.23Y88.114
X63.23Y61.706
X63.23Y59.166
X63.23Y32.758
X63.23Y30.218
X63.23Y3.81
X63.23Y1.27
X65.77Y119.602
X65.77Y117.062
X65.77Y90.654
X65.77Y88.114
X65.77Y61.706
X65.77Y59.166
X65.77Y32.758
X65.77Y30.218
X65.77Y3.81
X65.77Y1.27
X68.31Y119.602
X68.31Y117.062
X68.31Y90.654
X68.31Y88.114
X68.31Y61.706
X68.31Y59.166
X68.31Y32.758
X68.31Y30.218
X68.31Y3.81
X68.31Y1.27
X70.85Y139.922
X70.85Y119.602
X70.85Y117.062
X70.85Y110.974
X70.85Y90.654
X70.85Y88.114
X70.85Y82.026
X70.85Y61.706
X70.85Y59.166
X70.85Y53.078
X70.85Y32.758
X70.85Y30.218
X70.85Y24.13
X70.85Y3.81
X70.85Y1.27
X84.05Y139.922
X84.05Y119.602
X84.05Y117.062
X84.05Y110.974
X84.05Y90.654
X84.05Y88.114
X84.05Y82.026
X84.05Y61.706
X84.05Y59.166
X84.05Y53.078
X84.05Y32.758
X84.05Y30.218
X84.05Y24.13
X84.05Y3.81
X84.05Y1.27
X86.59Y119.602
X86.59Y117.062
X86.59Y90.654
X86.59Y88.114
X86.59Y61.706
X86.59Y59.166
X86.59Y32.758
X86.59Y30.218
X86.59Y3.81
X86.59Y1.27
X89.13Y119.602
X89.13Y117.062
X89.13Y90.654
X89.13Y88.114
X89.13Y61.706
X89.13Y59.166
X89.13Y32.758
X89.13Y30.218
X89.13Y3.81
X89.13Y1.27
X91.67Y119.602
X91.67Y117.062
X91.67Y90.654
X91.67Y88.114
X91.67Y61.706
X91.67Y59.166
X91.67Y32.758
X91.67Y30.218
X91.67Y3.81
X91.67Y1.27
X94.21Y119.602
X94.21Y117.062
X94.21Y90.654
X94.21Y88.114
X94.21Y61.706
X94.21Y59.166
X94.21Y32.758
X94.21Y30.218
X94.21Y3.81
X94.21Y1.27
X96.75Y139.922
X96.75Y119.602
X96.75Y117.062
X96.75Y110.974
X96.75Y90.654
X96.75Y88.114
X96.75Y82.026
X96.75Y61.706
X96.75Y59.166
X96.75Y53.078
X96.75Y32.758
X96.75Y30.218
X96.75Y24.13
X96.75Y3.81
X96.75Y1.27
X109.95Y139.922
X109.95Y119.602
X109.95Y117.062
X109.95Y110.974
X109.95Y90.654
X109.95Y88.114
X109.95Y82.026
X109.95Y61.706
X109.95Y59.166
X109.95Y53.078
X109.95Y32.758
X109.95Y30.218
X109.95Y24.13
X109.95Y3.81
X109.95Y1.27
X112.49Y119.602
X112.49Y117.062
X112.49Y90.654
X112.49Y88.114
X112.49Y61.706
X112.49Y59.166
X112.49Y32.758
X112.49Y30.218
X112.49Y3.81
X112.49Y1.27
X115.03Y119.602
X115.03Y117.062
X115.03Y90.654
X115.03Y88.114
X115.03Y61.706
X115.03Y59.166
X115.03Y32.758
X115.03Y30.218
X115.03Y3.81
X115.03Y1.27
X117.57Y119.602
X117.57Y117.062
X117.57Y90.654
X117.57Y88.114
X117.57Y61.706
X117.57Y59.166
X117.57Y32.758
X117.57Y30.218
X117.57Y3.81
X117.57Y1.27
X120.11Y119.602
X120.11Y117.062
X120.11Y90.654
X120.11Y88.114
X120.11Y61.706
X120.11Y59.166
X120.11Y32.758
X120.11Y30.218
X120.11Y3.81
X120.11Y1.27
X122.65Y139.922
X122.65Y119.602
X122.65Y117.062
X122.65Y110.974
X122.65Y90.654
X122.65Y88.114
X122.65Y82.026
X122.65Y61.706
X122.65Y59.166
X122.65Y53.078
X122.65Y32.758
X122.65Y30.218
X122.65Y24.13
X122.65Y3.81
X122.65Y1.27
T4
X2.54Y138.652
X2.54Y118.332
X2.54Y109.704
X2.54Y89.384
X2.54Y80.756
X2.54Y60.436
X2.54Y51.808
X2.54Y31.488
X2.54Y22.86
X2.54Y2.54
X22.86Y138.652
X22.86Y118.332
X22.86Y109.704
X22.86Y89.384
X22.86Y80.756
X22.86Y60.436
X22.86Y51.808
X22.86Y31.488
X22.86Y22.86
X22.86Y2.54
X28.44Y138.652
X28.44Y118.332
X28.44Y109.704
X28.44Y89.384
X28.44Y80.756
X28.44Y60.436
X28.44Y51.808
X28.44Y31.488
X28.44Y22.86
X28.44Y2.54
X48.76Y138.652
X48.76Y118.332
X48.76Y109.704
X48.76Y89.384
X48.76Y80.756
X48.76Y60.436
X48.76Y51.808
X48.76Y31.488
X48.76Y22.86
X48.76Y2.54
X54.34Y138.652
X54.34Y118.332
X54.34Y109.704
X54.34Y89.384
X54.34Y80.756
X54.34Y60.436
X54.34Y51.808
X54.34Y31.488
X54.34Y22.86
X54.34Y2.54
X74.66Y138.652
X74.66Y118.332
X74.66Y109.704
X74.66Y89.384
X74.66Y80.756
X74.66Y60.436
X74.66Y51.808
X74.66Y31.488
X74.66Y22.86
X74.66Y2.54
X80.24Y138.652
X80.24Y118.332
X80.24Y109.704
X80.24Y89.384
X80.24Y80.756
X80.24Y60.436
X80.24Y51.808
X80.24Y31.488
X80.24Y22.86
X80.24Y2.54
X100.56Y138.652
X100.56Y118.332
X100.56Y109.704
X100.56Y89.384
X100.56Y80.756
X100.56Y60.436
X100.56Y51.808
X100.56Y31.488
X100.56Y22.86
X100.56Y2.54
X106.14Y138.652
X106.14Y118.332
X106.14Y109.704
X106.14Y89.384
X106.14Y80.756
X106.14Y60.436
X106.14Y51.808
X106.14Y31.488
X106.14Y22.86
X106.14Y2.54
X126.46Y138.652
X126.46Y118.332
X126.46Y109.704
X126.46Y89.384
X126.46Y80.756
X126.46Y60.436
X126.46Y51.808
X126.46Y31.488
X126.46Y22.86
X126.46Y2.54
T5
X9.81Y136.297
X9.81Y107.349
X9.81Y78.401
X9.81Y49.453
X9.81Y20.505
X15.59Y136.297
X15.59Y107.349
X15.59Y78.401
X15.59Y49.453
X15.59Y20.505
X35.71Y136.297
X35.71Y107.349
X35.71Y78.401
X35.71Y49.453
X35.71Y20.505
X41.49Y136.297
X41.49Y107.349
X41.49Y78.401
X41.49Y49.453
X41.49Y20.505
X61.61Y136.297
X61.61Y107.349
X61.61Y78.401
X61.61Y49.453
X61.61Y20.505
X67.39Y136.297
X67.39Y107.349
X67.39Y78.401
X67.39Y49.453
X67.39Y20.505
X87.51Y136.297
X87.51Y107.349
X87.51Y78.401
X87.51Y49.453
X87.51Y20.505
X93.29Y136.297
X93.29Y107.349
X93.29Y78.401
X93.29Y49.453
X93.29Y20.505
X113.41Y136.297
X113.41Y107.349
X113.41Y78.401
X113.41Y49.453
X113.41Y20.505
X119.19Y136.297
X119.19Y107.349
X119.19Y78.401
X119.19Y49.453
X119.19Y20.505
T6
X22.384Y123.729
X22.384Y94.781
X22.384Y65.834
X22.384Y36.886
X22.384Y7.938
X48.284Y123.729
X48.284Y94.781
X48.284Y65.834
X48.284Y36.886
X48.284Y7.938
X74.184Y123.729
X74.184Y94.781
X74.184Y65.834
X74.184Y36.886
X74.184Y7.938
X100.084Y123.729
X100.084Y94.781
X100.084Y65.834
X100.084Y36.886
X100.084Y7.938
X125.984Y123.729
X125.984Y94.781
X125.984Y65.834
X125.984Y36.886
X125.984Y7.938
T2
G00X8.382Y139.647
M15
G01X8.382Y140.247
M16
G05
G00X8.382Y135.217
M15
G01X8.382Y136.317
M16
G05
G00X8.382Y110.699
M15
G01X8.382Y111.299
M16
G05
G00X8.382Y106.269
M15
G01X8.382Y107.369
M16
G05
G00X8.382Y81.751
M15
G01X8.382Y82.351
M16
G05
G00X8.382Y77.321
M15
G01X8.382Y78.421
M16
G05
G00X8.382Y52.803
M15
G01X8.382Y53.403
M16
G05
G00X8.382Y48.373
M15
G01X8.382Y49.473
M16
G05
G00X8.382Y23.855
M15
G01X8.382Y24.455
M16
G05
G00X8.382Y19.425
M15
G01X8.382Y20.525
M16
G05
G00X17.018Y139.647
M15
G01X17.018Y140.247
M16
G05
G00X17.018Y135.217
M15
G01X17.018Y136.317
M16
G05
G00X17.018Y110.699
M15
G01X17.018Y111.299
M16
G05
G00X17.018Y106.269
M15
G01X17.018Y107.369
M16
G05
G00X17.018Y81.751
M15
G01X17.018Y82.351
M16
G05
G00X17.018Y77.321
M15
G01X17.018Y78.421
M16
G05
G00X17.018Y52.803
M15
G01X17.018Y53.403
M16
G05
G00X17.018Y48.373
M15
G01X17.018Y49.473
M16
G05
G00X17.018Y23.855
M15
G01X17.018Y24.455
M16
G05
G00X17.018Y19.425
M15
G01X17.018Y20.525
M16
G05
G00X34.282Y139.647
M15
G01X34.282Y140.247
M16
G05
G00X34.282Y135.217
M15
G01X34.282Y136.317
M16
G05
G00X34.282Y110.699
M15
G01X34.282Y111.299
M16
G05
G00X34.282Y106.269
M15
G01X34.282Y107.369
M16
G05
G00X34.282Y81.751
M15
G01X34.282Y82.351
M16
G05
G00X34.282Y77.321
M15
G01X34.282Y78.421
M16
G05
G00X34.282Y52.803
M15
G01X34.282Y53.403
M16
G05
G00X34.282Y48.373
M15
G01X34.282Y49.473
M16
G05
G00X34.282Y23.855
M15
G01X34.282Y24.455
M16
G05
G00X34.282Y19.425
M15
G01X34.282Y20.525
M16
G05
G00X42.918Y139.647
M15
G01X42.918Y140.247
M16
G05
G00X42.918Y135.217
M15
G01X42.918Y136.317
M16
G05
G00X42.918Y110.699
M15
G01X42.918Y111.299
M16
G05
G00X42.918Y106.269
M15
G01X42.918Y107.369
M16
G05
G00X42.918Y81.751
M15
G01X42.918Y82.351
M16
G05
G00X42.918Y77.321
M15
G01X42.918Y78.421
M16
G05
G00X42.918Y52.803
M15
G01X42.918Y53.403
M16
G05
G00X42.918Y48.373
M15
G01X42.918Y49.473
M16
G05
G00X42.918Y23.855
M15
G01X42.918Y24.455
M16
G05
G00X42.918Y19.425
M15
G01X42.918Y20.525
M16
G05
G00X60.182Y139.647
M15
G01X60.182Y140.247
M16
G05
G00X60.182Y135.217
M15
G01X60.182Y136.317
M16
G05
G00X60.182Y110.699
M15
G01X60.182Y111.299
M16
G05
G00X60.182Y106.269
M15
G01X60.182Y107.369
M16
G05
G00X60.182Y81.751
M15
G01X60.182Y82.351
M16
G05
G00X60.182Y77.321
M15
G01X60.182Y78.421
M16
G05
G00X60.182Y52.803
M15
G01X60.182Y53.403
M16
G05
G00X60.182Y48.373
M15
G01X60.182Y49.473
M16
G05
G00X60.182Y23.855
M15
G01X60.182Y24.455
M16
G05
G00X60.182Y19.425
M15
G01X60.182Y20.525
M16
G05
G00X68.818Y139.647
M15
G01X68.818Y140.247
M16
G05
G00X68.818Y135.217
M15
G01X68.818Y136.317
M16
G05
G00X68.818Y110.699
M15
G01X68.818Y111.299
M16
G05
G00X68.818Y106.269
M15
G01X68.818Y107.369
M16
G05
G00X68.818Y81.751
M15
G01X68.818Y82.351
M16
G05
G00X68.818Y77.321
M15
G01X68.818Y78.421
M16
G05
G00X68.818Y52.803
M15
G01X68.818Y53.403
M16
G05
G00X68.818Y48.373
M15
G01X68.818Y49.473
M16
G05
G00X68.818Y23.855
M15
G01X68.818Y24.455
M16
G05
G00X68.818Y19.425
M15
G01X68.818Y20.525
M16
G05
G00X86.082Y139.647
M15
G01X86.082Y140.247
M16
G05
G00X86.082Y135.217
M15
G01X86.082Y136.317
M16
G05
G00X86.082Y110.699
M15
G01X86.082Y111.299
M16
G05
G00X86.082Y106.269
M15
G01X86.082Y107.369
M16
G05
G00X86.082Y81.751
M15
G01X86.082Y82.351
M16
G05
G00X86.082Y77.321
M15
G01X86.082Y78.421
M16
G05
G00X86.082Y52.803
M15
G01X86.082Y53.403
M16
G05
G00X86.082Y48.373
M15
G01X86.082Y49.473
M16
G05
G00X86.082Y23.855
M15
G01X86.082Y24.455
M16
G05
G00X86.082Y19.425
M15
G01X86.082Y20.525
M16
G05
G00X94.718Y139.647
M15
G01X94.718Y140.247
M16
G05
G00X94.718Y135.217
M15
G01X94.718Y136.317
M16
G05
G00X94.718Y110.699
M15
G01X94.718Y111.299
M16
G05
G00X94.718Y106.269
M15
G01X94.718Y107.369
M16
G05
G00X94.718Y81.751
M15
G01X94.718Y82.351
M16
G05
G00X94.718Y77.321
M15
G01X94.718Y78.421
M16
G05
G00X94.718Y52.803
M15
G01X94.718Y53.403
M16
G05
G00X94.718Y48.373
M15
G01X94.718Y49.473
M16
G05
G00X94.718Y23.855
M15
G01X94.718Y24.455
M16
G05
G00X94.718Y19.425
M15
G01X94.718Y20.525
M16
G05
G00X111.982Y139.647
M15
G01X111.982Y140.247
M16
G05
G00X111.982Y135.217
M15
G01X111.982Y136.317
M16
G05
G00X111.982Y110.699
M15
G01X111.982Y111.299
M16
G05
G00X111.982Y106.269
M15
G01X111.982Y107.369
M16
G05
G00X111.982Y81.751
M15
G01X111.982Y82.351
M16
G05
G00X111.982Y77.321
M15
G01X111.982Y78.421
M16
G05
G00X111.982Y52.803
M15
G01X111.982Y53.403
M16
G05
G00X111.982Y48.373
M15
G01X111.982Y49.473
M16
G05
G00X111.982Y23.855
M15
G01X111.982Y24.455
M16
G05
G00X111.982Y19.425
M15
G01X111.982Y20.525
M16
G05
G00X120.618Y139.647
M15
G01X120.618Y140.247
M16
G05
G00X120.618Y135.217
M15
G01X120.618Y136.317
M16
G05
G00X120.618Y110.699
M15
G01X120.618Y111.299
M16
G05
G00X120.618Y106.269
M15
G01X120.618Y107.369
M16
G05
G00X120.618Y81.751
M15
G01X120.618Y82.351
M16
G05
G00X120.618Y77.321
M15
G01X120.618Y78.421
M16
G05
G00X120.618Y52.803
M15
G01X120.618Y53.403
M16
G05
G00X120.618Y48.373
M15
G01X120.618Y49.473
M16
G05
G00X120.618Y23.855
M15
G01X120.618Y24.455
M16
G05
G00X120.618Y19.425
M15
G01X120.618Y20.525
M16
G05
M30
