%TF.GenerationSoftware,KiCad,Pcbnew,9.0.1*%
%TF.CreationDate,2025-09-09T14:55:51-06:00*%
%TF.ProjectId,SparkFun_Qwiic_Fingerprint_Sensor_FPC2534_panelized,53706172-6b46-4756-9e5f-51776969635f,v10*%
%TF.SameCoordinates,Original*%
%TF.FileFunction,Paste,Top*%
%TF.FilePolarity,Positive*%
%FSLAX46Y46*%
G04 Gerber Fmt 4.6, Leading zero omitted, Abs format (unit mm)*
G04 Created by KiCad (PCBNEW 9.0.1) date 2025-09-09 14:55:51*
%MOMM*%
%LPD*%
G01*
G04 APERTURE LIST*
G04 Aperture macros list*
%AMRoundRect*
0 Rectangle with rounded corners*
0 $1 Rounding radius*
0 $2 $3 $4 $5 $6 $7 $8 $9 X,Y pos of 4 corners*
0 Add a 4 corners polygon primitive as box body*
4,1,4,$2,$3,$4,$5,$6,$7,$8,$9,$2,$3,0*
0 Add four circle primitives for the rounded corners*
1,1,$1+$1,$2,$3*
1,1,$1+$1,$4,$5*
1,1,$1+$1,$6,$7*
1,1,$1+$1,$8,$9*
0 Add four rect primitives between the rounded corners*
20,1,$1+$1,$2,$3,$4,$5,0*
20,1,$1+$1,$4,$5,$6,$7,0*
20,1,$1+$1,$6,$7,$8,$9,0*
20,1,$1+$1,$8,$9,$2,$3,0*%
G04 Aperture macros list end*
%ADD10C,0.000000*%
%ADD11RoundRect,0.225000X0.250000X-0.225000X0.250000X0.225000X-0.250000X0.225000X-0.250000X-0.225000X0*%
%ADD12RoundRect,0.200000X-0.275000X0.200000X-0.275000X-0.200000X0.275000X-0.200000X0.275000X0.200000X0*%
%ADD13RoundRect,0.200000X0.200000X0.275000X-0.200000X0.275000X-0.200000X-0.275000X0.200000X-0.275000X0*%
%ADD14RoundRect,0.200000X-0.200000X-0.275000X0.200000X-0.275000X0.200000X0.275000X-0.200000X0.275000X0*%
%ADD15RoundRect,0.200000X0.275000X-0.200000X0.275000X0.200000X-0.275000X0.200000X-0.275000X-0.200000X0*%
%ADD16R,1.500000X1.600000*%
%ADD17R,1.350000X0.600000*%
%ADD18R,2.000000X1.200000*%
%ADD19R,0.300000X1.000000*%
%ADD20O,1.000000X1.600000*%
%ADD21O,1.000000X2.100000*%
%ADD22R,1.200000X0.550000*%
%ADD23RoundRect,0.218750X-0.218750X-0.256250X0.218750X-0.256250X0.218750X0.256250X-0.218750X0.256250X0*%
G04 APERTURE END LIST*
D10*
%TO.C,J4*%
G36*
X113275000Y134692000D02*
G01*
X112875000Y134692000D01*
X112875000Y135692000D01*
X113275000Y135692000D01*
X113275000Y134692000D01*
G37*
G36*
X114050000Y134692000D02*
G01*
X113650000Y134692000D01*
X113650000Y135692000D01*
X114050000Y135692000D01*
X114050000Y134692000D01*
G37*
G36*
X118950000Y134692000D02*
G01*
X118550000Y134692000D01*
X118550000Y135692000D01*
X118950000Y135692000D01*
X118950000Y134692000D01*
G37*
G36*
X119725000Y134692000D02*
G01*
X119325000Y134692000D01*
X119325000Y135692000D01*
X119725000Y135692000D01*
X119725000Y134692000D01*
G37*
G36*
X113275000Y105744000D02*
G01*
X112875000Y105744000D01*
X112875000Y106744000D01*
X113275000Y106744000D01*
X113275000Y105744000D01*
G37*
G36*
X114050000Y105744000D02*
G01*
X113650000Y105744000D01*
X113650000Y106744000D01*
X114050000Y106744000D01*
X114050000Y105744000D01*
G37*
G36*
X118950000Y105744000D02*
G01*
X118550000Y105744000D01*
X118550000Y106744000D01*
X118950000Y106744000D01*
X118950000Y105744000D01*
G37*
G36*
X119725000Y105744000D02*
G01*
X119325000Y105744000D01*
X119325000Y106744000D01*
X119725000Y106744000D01*
X119725000Y105744000D01*
G37*
G36*
X113275000Y76796000D02*
G01*
X112875000Y76796000D01*
X112875000Y77796000D01*
X113275000Y77796000D01*
X113275000Y76796000D01*
G37*
G36*
X114050000Y76796000D02*
G01*
X113650000Y76796000D01*
X113650000Y77796000D01*
X114050000Y77796000D01*
X114050000Y76796000D01*
G37*
G36*
X118950000Y76796000D02*
G01*
X118550000Y76796000D01*
X118550000Y77796000D01*
X118950000Y77796000D01*
X118950000Y76796000D01*
G37*
G36*
X119725000Y76796000D02*
G01*
X119325000Y76796000D01*
X119325000Y77796000D01*
X119725000Y77796000D01*
X119725000Y76796000D01*
G37*
G36*
X113275000Y47848000D02*
G01*
X112875000Y47848000D01*
X112875000Y48848000D01*
X113275000Y48848000D01*
X113275000Y47848000D01*
G37*
G36*
X114050000Y47848000D02*
G01*
X113650000Y47848000D01*
X113650000Y48848000D01*
X114050000Y48848000D01*
X114050000Y47848000D01*
G37*
G36*
X118950000Y47848000D02*
G01*
X118550000Y47848000D01*
X118550000Y48848000D01*
X118950000Y48848000D01*
X118950000Y47848000D01*
G37*
G36*
X119725000Y47848000D02*
G01*
X119325000Y47848000D01*
X119325000Y48848000D01*
X119725000Y48848000D01*
X119725000Y47848000D01*
G37*
G36*
X113275000Y18900000D02*
G01*
X112875000Y18900000D01*
X112875000Y19900000D01*
X113275000Y19900000D01*
X113275000Y18900000D01*
G37*
G36*
X114050000Y18900000D02*
G01*
X113650000Y18900000D01*
X113650000Y19900000D01*
X114050000Y19900000D01*
X114050000Y18900000D01*
G37*
G36*
X118950000Y18900000D02*
G01*
X118550000Y18900000D01*
X118550000Y19900000D01*
X118950000Y19900000D01*
X118950000Y18900000D01*
G37*
G36*
X119725000Y18900000D02*
G01*
X119325000Y18900000D01*
X119325000Y19900000D01*
X119725000Y19900000D01*
X119725000Y18900000D01*
G37*
G36*
X87375000Y134692000D02*
G01*
X86975000Y134692000D01*
X86975000Y135692000D01*
X87375000Y135692000D01*
X87375000Y134692000D01*
G37*
G36*
X88150000Y134692000D02*
G01*
X87750000Y134692000D01*
X87750000Y135692000D01*
X88150000Y135692000D01*
X88150000Y134692000D01*
G37*
G36*
X93050000Y134692000D02*
G01*
X92650000Y134692000D01*
X92650000Y135692000D01*
X93050000Y135692000D01*
X93050000Y134692000D01*
G37*
G36*
X93825000Y134692000D02*
G01*
X93425000Y134692000D01*
X93425000Y135692000D01*
X93825000Y135692000D01*
X93825000Y134692000D01*
G37*
G36*
X87375000Y105744000D02*
G01*
X86975000Y105744000D01*
X86975000Y106744000D01*
X87375000Y106744000D01*
X87375000Y105744000D01*
G37*
G36*
X88150000Y105744000D02*
G01*
X87750000Y105744000D01*
X87750000Y106744000D01*
X88150000Y106744000D01*
X88150000Y105744000D01*
G37*
G36*
X93050000Y105744000D02*
G01*
X92650000Y105744000D01*
X92650000Y106744000D01*
X93050000Y106744000D01*
X93050000Y105744000D01*
G37*
G36*
X93825000Y105744000D02*
G01*
X93425000Y105744000D01*
X93425000Y106744000D01*
X93825000Y106744000D01*
X93825000Y105744000D01*
G37*
G36*
X87375000Y76796000D02*
G01*
X86975000Y76796000D01*
X86975000Y77796000D01*
X87375000Y77796000D01*
X87375000Y76796000D01*
G37*
G36*
X88150000Y76796000D02*
G01*
X87750000Y76796000D01*
X87750000Y77796000D01*
X88150000Y77796000D01*
X88150000Y76796000D01*
G37*
G36*
X93050000Y76796000D02*
G01*
X92650000Y76796000D01*
X92650000Y77796000D01*
X93050000Y77796000D01*
X93050000Y76796000D01*
G37*
G36*
X93825000Y76796000D02*
G01*
X93425000Y76796000D01*
X93425000Y77796000D01*
X93825000Y77796000D01*
X93825000Y76796000D01*
G37*
G36*
X87375000Y47848000D02*
G01*
X86975000Y47848000D01*
X86975000Y48848000D01*
X87375000Y48848000D01*
X87375000Y47848000D01*
G37*
G36*
X88150000Y47848000D02*
G01*
X87750000Y47848000D01*
X87750000Y48848000D01*
X88150000Y48848000D01*
X88150000Y47848000D01*
G37*
G36*
X93050000Y47848000D02*
G01*
X92650000Y47848000D01*
X92650000Y48848000D01*
X93050000Y48848000D01*
X93050000Y47848000D01*
G37*
G36*
X93825000Y47848000D02*
G01*
X93425000Y47848000D01*
X93425000Y48848000D01*
X93825000Y48848000D01*
X93825000Y47848000D01*
G37*
G36*
X87375000Y18900000D02*
G01*
X86975000Y18900000D01*
X86975000Y19900000D01*
X87375000Y19900000D01*
X87375000Y18900000D01*
G37*
G36*
X88150000Y18900000D02*
G01*
X87750000Y18900000D01*
X87750000Y19900000D01*
X88150000Y19900000D01*
X88150000Y18900000D01*
G37*
G36*
X93050000Y18900000D02*
G01*
X92650000Y18900000D01*
X92650000Y19900000D01*
X93050000Y19900000D01*
X93050000Y18900000D01*
G37*
G36*
X93825000Y18900000D02*
G01*
X93425000Y18900000D01*
X93425000Y19900000D01*
X93825000Y19900000D01*
X93825000Y18900000D01*
G37*
G36*
X61475000Y134692000D02*
G01*
X61075000Y134692000D01*
X61075000Y135692000D01*
X61475000Y135692000D01*
X61475000Y134692000D01*
G37*
G36*
X62250000Y134692000D02*
G01*
X61850000Y134692000D01*
X61850000Y135692000D01*
X62250000Y135692000D01*
X62250000Y134692000D01*
G37*
G36*
X67150000Y134692000D02*
G01*
X66750000Y134692000D01*
X66750000Y135692000D01*
X67150000Y135692000D01*
X67150000Y134692000D01*
G37*
G36*
X67925000Y134692000D02*
G01*
X67525000Y134692000D01*
X67525000Y135692000D01*
X67925000Y135692000D01*
X67925000Y134692000D01*
G37*
G36*
X61475000Y105744000D02*
G01*
X61075000Y105744000D01*
X61075000Y106744000D01*
X61475000Y106744000D01*
X61475000Y105744000D01*
G37*
G36*
X62250000Y105744000D02*
G01*
X61850000Y105744000D01*
X61850000Y106744000D01*
X62250000Y106744000D01*
X62250000Y105744000D01*
G37*
G36*
X67150000Y105744000D02*
G01*
X66750000Y105744000D01*
X66750000Y106744000D01*
X67150000Y106744000D01*
X67150000Y105744000D01*
G37*
G36*
X67925000Y105744000D02*
G01*
X67525000Y105744000D01*
X67525000Y106744000D01*
X67925000Y106744000D01*
X67925000Y105744000D01*
G37*
G36*
X61475000Y76796000D02*
G01*
X61075000Y76796000D01*
X61075000Y77796000D01*
X61475000Y77796000D01*
X61475000Y76796000D01*
G37*
G36*
X62250000Y76796000D02*
G01*
X61850000Y76796000D01*
X61850000Y77796000D01*
X62250000Y77796000D01*
X62250000Y76796000D01*
G37*
G36*
X67150000Y76796000D02*
G01*
X66750000Y76796000D01*
X66750000Y77796000D01*
X67150000Y77796000D01*
X67150000Y76796000D01*
G37*
G36*
X67925000Y76796000D02*
G01*
X67525000Y76796000D01*
X67525000Y77796000D01*
X67925000Y77796000D01*
X67925000Y76796000D01*
G37*
G36*
X61475000Y47848000D02*
G01*
X61075000Y47848000D01*
X61075000Y48848000D01*
X61475000Y48848000D01*
X61475000Y47848000D01*
G37*
G36*
X62250000Y47848000D02*
G01*
X61850000Y47848000D01*
X61850000Y48848000D01*
X62250000Y48848000D01*
X62250000Y47848000D01*
G37*
G36*
X67150000Y47848000D02*
G01*
X66750000Y47848000D01*
X66750000Y48848000D01*
X67150000Y48848000D01*
X67150000Y47848000D01*
G37*
G36*
X67925000Y47848000D02*
G01*
X67525000Y47848000D01*
X67525000Y48848000D01*
X67925000Y48848000D01*
X67925000Y47848000D01*
G37*
G36*
X61475000Y18900000D02*
G01*
X61075000Y18900000D01*
X61075000Y19900000D01*
X61475000Y19900000D01*
X61475000Y18900000D01*
G37*
G36*
X62250000Y18900000D02*
G01*
X61850000Y18900000D01*
X61850000Y19900000D01*
X62250000Y19900000D01*
X62250000Y18900000D01*
G37*
G36*
X67150000Y18900000D02*
G01*
X66750000Y18900000D01*
X66750000Y19900000D01*
X67150000Y19900000D01*
X67150000Y18900000D01*
G37*
G36*
X67925000Y18900000D02*
G01*
X67525000Y18900000D01*
X67525000Y19900000D01*
X67925000Y19900000D01*
X67925000Y18900000D01*
G37*
G36*
X35575000Y134692000D02*
G01*
X35175000Y134692000D01*
X35175000Y135692000D01*
X35575000Y135692000D01*
X35575000Y134692000D01*
G37*
G36*
X36350000Y134692000D02*
G01*
X35950000Y134692000D01*
X35950000Y135692000D01*
X36350000Y135692000D01*
X36350000Y134692000D01*
G37*
G36*
X41250000Y134692000D02*
G01*
X40850000Y134692000D01*
X40850000Y135692000D01*
X41250000Y135692000D01*
X41250000Y134692000D01*
G37*
G36*
X42025000Y134692000D02*
G01*
X41625000Y134692000D01*
X41625000Y135692000D01*
X42025000Y135692000D01*
X42025000Y134692000D01*
G37*
G36*
X35575000Y105744000D02*
G01*
X35175000Y105744000D01*
X35175000Y106744000D01*
X35575000Y106744000D01*
X35575000Y105744000D01*
G37*
G36*
X36350000Y105744000D02*
G01*
X35950000Y105744000D01*
X35950000Y106744000D01*
X36350000Y106744000D01*
X36350000Y105744000D01*
G37*
G36*
X41250000Y105744000D02*
G01*
X40850000Y105744000D01*
X40850000Y106744000D01*
X41250000Y106744000D01*
X41250000Y105744000D01*
G37*
G36*
X42025000Y105744000D02*
G01*
X41625000Y105744000D01*
X41625000Y106744000D01*
X42025000Y106744000D01*
X42025000Y105744000D01*
G37*
G36*
X35575000Y76796000D02*
G01*
X35175000Y76796000D01*
X35175000Y77796000D01*
X35575000Y77796000D01*
X35575000Y76796000D01*
G37*
G36*
X36350000Y76796000D02*
G01*
X35950000Y76796000D01*
X35950000Y77796000D01*
X36350000Y77796000D01*
X36350000Y76796000D01*
G37*
G36*
X41250000Y76796000D02*
G01*
X40850000Y76796000D01*
X40850000Y77796000D01*
X41250000Y77796000D01*
X41250000Y76796000D01*
G37*
G36*
X42025000Y76796000D02*
G01*
X41625000Y76796000D01*
X41625000Y77796000D01*
X42025000Y77796000D01*
X42025000Y76796000D01*
G37*
G36*
X35575000Y47848000D02*
G01*
X35175000Y47848000D01*
X35175000Y48848000D01*
X35575000Y48848000D01*
X35575000Y47848000D01*
G37*
G36*
X36350000Y47848000D02*
G01*
X35950000Y47848000D01*
X35950000Y48848000D01*
X36350000Y48848000D01*
X36350000Y47848000D01*
G37*
G36*
X41250000Y47848000D02*
G01*
X40850000Y47848000D01*
X40850000Y48848000D01*
X41250000Y48848000D01*
X41250000Y47848000D01*
G37*
G36*
X42025000Y47848000D02*
G01*
X41625000Y47848000D01*
X41625000Y48848000D01*
X42025000Y48848000D01*
X42025000Y47848000D01*
G37*
G36*
X35575000Y18900000D02*
G01*
X35175000Y18900000D01*
X35175000Y19900000D01*
X35575000Y19900000D01*
X35575000Y18900000D01*
G37*
G36*
X36350000Y18900000D02*
G01*
X35950000Y18900000D01*
X35950000Y19900000D01*
X36350000Y19900000D01*
X36350000Y18900000D01*
G37*
G36*
X41250000Y18900000D02*
G01*
X40850000Y18900000D01*
X40850000Y19900000D01*
X41250000Y19900000D01*
X41250000Y18900000D01*
G37*
G36*
X42025000Y18900000D02*
G01*
X41625000Y18900000D01*
X41625000Y19900000D01*
X42025000Y19900000D01*
X42025000Y18900000D01*
G37*
G36*
X9675000Y134692000D02*
G01*
X9275000Y134692000D01*
X9275000Y135692000D01*
X9675000Y135692000D01*
X9675000Y134692000D01*
G37*
G36*
X10450000Y134692000D02*
G01*
X10050000Y134692000D01*
X10050000Y135692000D01*
X10450000Y135692000D01*
X10450000Y134692000D01*
G37*
G36*
X15350000Y134692000D02*
G01*
X14950000Y134692000D01*
X14950000Y135692000D01*
X15350000Y135692000D01*
X15350000Y134692000D01*
G37*
G36*
X16125000Y134692000D02*
G01*
X15725000Y134692000D01*
X15725000Y135692000D01*
X16125000Y135692000D01*
X16125000Y134692000D01*
G37*
G36*
X9675000Y105744000D02*
G01*
X9275000Y105744000D01*
X9275000Y106744000D01*
X9675000Y106744000D01*
X9675000Y105744000D01*
G37*
G36*
X10450000Y105744000D02*
G01*
X10050000Y105744000D01*
X10050000Y106744000D01*
X10450000Y106744000D01*
X10450000Y105744000D01*
G37*
G36*
X15350000Y105744000D02*
G01*
X14950000Y105744000D01*
X14950000Y106744000D01*
X15350000Y106744000D01*
X15350000Y105744000D01*
G37*
G36*
X16125000Y105744000D02*
G01*
X15725000Y105744000D01*
X15725000Y106744000D01*
X16125000Y106744000D01*
X16125000Y105744000D01*
G37*
G36*
X9675000Y76796000D02*
G01*
X9275000Y76796000D01*
X9275000Y77796000D01*
X9675000Y77796000D01*
X9675000Y76796000D01*
G37*
G36*
X10450000Y76796000D02*
G01*
X10050000Y76796000D01*
X10050000Y77796000D01*
X10450000Y77796000D01*
X10450000Y76796000D01*
G37*
G36*
X15350000Y76796000D02*
G01*
X14950000Y76796000D01*
X14950000Y77796000D01*
X15350000Y77796000D01*
X15350000Y76796000D01*
G37*
G36*
X16125000Y76796000D02*
G01*
X15725000Y76796000D01*
X15725000Y77796000D01*
X16125000Y77796000D01*
X16125000Y76796000D01*
G37*
G36*
X9675000Y47848000D02*
G01*
X9275000Y47848000D01*
X9275000Y48848000D01*
X9675000Y48848000D01*
X9675000Y47848000D01*
G37*
G36*
X10450000Y47848000D02*
G01*
X10050000Y47848000D01*
X10050000Y48848000D01*
X10450000Y48848000D01*
X10450000Y47848000D01*
G37*
G36*
X15350000Y47848000D02*
G01*
X14950000Y47848000D01*
X14950000Y48848000D01*
X15350000Y48848000D01*
X15350000Y47848000D01*
G37*
G36*
X16125000Y47848000D02*
G01*
X15725000Y47848000D01*
X15725000Y48848000D01*
X16125000Y48848000D01*
X16125000Y47848000D01*
G37*
G36*
X9675000Y18900000D02*
G01*
X9275000Y18900000D01*
X9275000Y19900000D01*
X9675000Y19900000D01*
X9675000Y18900000D01*
G37*
G36*
X10450000Y18900000D02*
G01*
X10050000Y18900000D01*
X10050000Y19900000D01*
X10450000Y19900000D01*
X10450000Y18900000D01*
G37*
G36*
X15350000Y18900000D02*
G01*
X14950000Y18900000D01*
X14950000Y19900000D01*
X15350000Y19900000D01*
X15350000Y18900000D01*
G37*
G36*
X16125000Y18900000D02*
G01*
X15725000Y18900000D01*
X15725000Y19900000D01*
X16125000Y19900000D01*
X16125000Y18900000D01*
G37*
%TD*%
D11*
%TO.C,C3*%
X121380000Y127717000D03*
X121380000Y129267000D03*
%TD*%
%TO.C,C3*%
X121380000Y98769000D03*
X121380000Y100319000D03*
%TD*%
%TO.C,C3*%
X121380000Y69821000D03*
X121380000Y71371000D03*
%TD*%
%TO.C,C3*%
X121380000Y40873000D03*
X121380000Y42423000D03*
%TD*%
%TO.C,C3*%
X121380000Y11925000D03*
X121380000Y13475000D03*
%TD*%
%TO.C,C3*%
X95480000Y127717000D03*
X95480000Y129267000D03*
%TD*%
%TO.C,C3*%
X95480000Y98769000D03*
X95480000Y100319000D03*
%TD*%
%TO.C,C3*%
X95480000Y69821000D03*
X95480000Y71371000D03*
%TD*%
%TO.C,C3*%
X95480000Y40873000D03*
X95480000Y42423000D03*
%TD*%
%TO.C,C3*%
X95480000Y11925000D03*
X95480000Y13475000D03*
%TD*%
%TO.C,C3*%
X69580000Y127717000D03*
X69580000Y129267000D03*
%TD*%
%TO.C,C3*%
X69580000Y98769000D03*
X69580000Y100319000D03*
%TD*%
%TO.C,C3*%
X69580000Y69821000D03*
X69580000Y71371000D03*
%TD*%
%TO.C,C3*%
X69580000Y40873000D03*
X69580000Y42423000D03*
%TD*%
%TO.C,C3*%
X69580000Y11925000D03*
X69580000Y13475000D03*
%TD*%
%TO.C,C3*%
X43680000Y127717000D03*
X43680000Y129267000D03*
%TD*%
%TO.C,C3*%
X43680000Y98769000D03*
X43680000Y100319000D03*
%TD*%
%TO.C,C3*%
X43680000Y69821000D03*
X43680000Y71371000D03*
%TD*%
%TO.C,C3*%
X43680000Y40873000D03*
X43680000Y42423000D03*
%TD*%
%TO.C,C3*%
X43680000Y11925000D03*
X43680000Y13475000D03*
%TD*%
%TO.C,C3*%
X17780000Y127717000D03*
X17780000Y129267000D03*
%TD*%
%TO.C,C3*%
X17780000Y98769000D03*
X17780000Y100319000D03*
%TD*%
%TO.C,C3*%
X17780000Y69821000D03*
X17780000Y71371000D03*
%TD*%
%TO.C,C3*%
X17780000Y40873000D03*
X17780000Y42423000D03*
%TD*%
%TO.C,C2*%
X119475000Y127717000D03*
X119475000Y129267000D03*
%TD*%
%TO.C,C2*%
X119475000Y98769000D03*
X119475000Y100319000D03*
%TD*%
%TO.C,C2*%
X119475000Y69821000D03*
X119475000Y71371000D03*
%TD*%
%TO.C,C2*%
X119475000Y40873000D03*
X119475000Y42423000D03*
%TD*%
%TO.C,C2*%
X119475000Y11925000D03*
X119475000Y13475000D03*
%TD*%
%TO.C,C2*%
X93575000Y127717000D03*
X93575000Y129267000D03*
%TD*%
%TO.C,C2*%
X93575000Y98769000D03*
X93575000Y100319000D03*
%TD*%
%TO.C,C2*%
X93575000Y69821000D03*
X93575000Y71371000D03*
%TD*%
%TO.C,C2*%
X93575000Y40873000D03*
X93575000Y42423000D03*
%TD*%
%TO.C,C2*%
X93575000Y11925000D03*
X93575000Y13475000D03*
%TD*%
%TO.C,C2*%
X67675000Y127717000D03*
X67675000Y129267000D03*
%TD*%
%TO.C,C2*%
X67675000Y98769000D03*
X67675000Y100319000D03*
%TD*%
%TO.C,C2*%
X67675000Y69821000D03*
X67675000Y71371000D03*
%TD*%
%TO.C,C2*%
X67675000Y40873000D03*
X67675000Y42423000D03*
%TD*%
%TO.C,C2*%
X67675000Y11925000D03*
X67675000Y13475000D03*
%TD*%
%TO.C,C2*%
X41775000Y127717000D03*
X41775000Y129267000D03*
%TD*%
%TO.C,C2*%
X41775000Y98769000D03*
X41775000Y100319000D03*
%TD*%
%TO.C,C2*%
X41775000Y69821000D03*
X41775000Y71371000D03*
%TD*%
%TO.C,C2*%
X41775000Y40873000D03*
X41775000Y42423000D03*
%TD*%
%TO.C,C2*%
X41775000Y11925000D03*
X41775000Y13475000D03*
%TD*%
%TO.C,C2*%
X15875000Y127717000D03*
X15875000Y129267000D03*
%TD*%
%TO.C,C2*%
X15875000Y98769000D03*
X15875000Y100319000D03*
%TD*%
%TO.C,C2*%
X15875000Y69821000D03*
X15875000Y71371000D03*
%TD*%
%TO.C,C2*%
X15875000Y40873000D03*
X15875000Y42423000D03*
%TD*%
D12*
%TO.C,R5*%
X104552500Y135032000D03*
X104552500Y133382000D03*
%TD*%
%TO.C,R5*%
X104552500Y106084000D03*
X104552500Y104434000D03*
%TD*%
%TO.C,R5*%
X104552500Y77136000D03*
X104552500Y75486000D03*
%TD*%
%TO.C,R5*%
X104552500Y48188000D03*
X104552500Y46538000D03*
%TD*%
%TO.C,R5*%
X104552500Y19240000D03*
X104552500Y17590000D03*
%TD*%
%TO.C,R5*%
X78652500Y135032000D03*
X78652500Y133382000D03*
%TD*%
%TO.C,R5*%
X78652500Y106084000D03*
X78652500Y104434000D03*
%TD*%
%TO.C,R5*%
X78652500Y77136000D03*
X78652500Y75486000D03*
%TD*%
%TO.C,R5*%
X78652500Y48188000D03*
X78652500Y46538000D03*
%TD*%
%TO.C,R5*%
X78652500Y19240000D03*
X78652500Y17590000D03*
%TD*%
%TO.C,R5*%
X52752500Y135032000D03*
X52752500Y133382000D03*
%TD*%
%TO.C,R5*%
X52752500Y106084000D03*
X52752500Y104434000D03*
%TD*%
%TO.C,R5*%
X52752500Y77136000D03*
X52752500Y75486000D03*
%TD*%
%TO.C,R5*%
X52752500Y48188000D03*
X52752500Y46538000D03*
%TD*%
%TO.C,R5*%
X52752500Y19240000D03*
X52752500Y17590000D03*
%TD*%
%TO.C,R5*%
X26852500Y135032000D03*
X26852500Y133382000D03*
%TD*%
%TO.C,R5*%
X26852500Y106084000D03*
X26852500Y104434000D03*
%TD*%
%TO.C,R5*%
X26852500Y77136000D03*
X26852500Y75486000D03*
%TD*%
%TO.C,R5*%
X26852500Y48188000D03*
X26852500Y46538000D03*
%TD*%
%TO.C,R5*%
X26852500Y19240000D03*
X26852500Y17590000D03*
%TD*%
%TO.C,R5*%
X952500Y135032000D03*
X952500Y133382000D03*
%TD*%
%TO.C,R5*%
X952500Y106084000D03*
X952500Y104434000D03*
%TD*%
%TO.C,R5*%
X952500Y77136000D03*
X952500Y75486000D03*
%TD*%
%TO.C,R5*%
X952500Y48188000D03*
X952500Y46538000D03*
%TD*%
D13*
%TO.C,R10*%
X126808750Y121824500D03*
X125158750Y121824500D03*
%TD*%
%TO.C,R10*%
X126808750Y92876500D03*
X125158750Y92876500D03*
%TD*%
%TO.C,R10*%
X126808750Y63928500D03*
X125158750Y63928500D03*
%TD*%
%TO.C,R10*%
X126808750Y34980500D03*
X125158750Y34980500D03*
%TD*%
%TO.C,R10*%
X126808750Y6032500D03*
X125158750Y6032500D03*
%TD*%
%TO.C,R10*%
X100908750Y121824500D03*
X99258750Y121824500D03*
%TD*%
%TO.C,R10*%
X100908750Y92876500D03*
X99258750Y92876500D03*
%TD*%
%TO.C,R10*%
X100908750Y63928500D03*
X99258750Y63928500D03*
%TD*%
%TO.C,R10*%
X100908750Y34980500D03*
X99258750Y34980500D03*
%TD*%
%TO.C,R10*%
X100908750Y6032500D03*
X99258750Y6032500D03*
%TD*%
%TO.C,R10*%
X75008750Y121824500D03*
X73358750Y121824500D03*
%TD*%
%TO.C,R10*%
X75008750Y92876500D03*
X73358750Y92876500D03*
%TD*%
%TO.C,R10*%
X75008750Y63928500D03*
X73358750Y63928500D03*
%TD*%
%TO.C,R10*%
X75008750Y34980500D03*
X73358750Y34980500D03*
%TD*%
%TO.C,R10*%
X75008750Y6032500D03*
X73358750Y6032500D03*
%TD*%
%TO.C,R10*%
X49108750Y121824500D03*
X47458750Y121824500D03*
%TD*%
%TO.C,R10*%
X49108750Y92876500D03*
X47458750Y92876500D03*
%TD*%
%TO.C,R10*%
X49108750Y63928500D03*
X47458750Y63928500D03*
%TD*%
%TO.C,R10*%
X49108750Y34980500D03*
X47458750Y34980500D03*
%TD*%
%TO.C,R10*%
X49108750Y6032500D03*
X47458750Y6032500D03*
%TD*%
%TO.C,R10*%
X23208750Y121824500D03*
X21558750Y121824500D03*
%TD*%
%TO.C,R10*%
X23208750Y92876500D03*
X21558750Y92876500D03*
%TD*%
%TO.C,R10*%
X23208750Y63928500D03*
X21558750Y63928500D03*
%TD*%
%TO.C,R10*%
X23208750Y34980500D03*
X21558750Y34980500D03*
%TD*%
D14*
%TO.C,R3*%
X104680000Y122142000D03*
X106330000Y122142000D03*
%TD*%
%TO.C,R3*%
X104680000Y93194000D03*
X106330000Y93194000D03*
%TD*%
%TO.C,R3*%
X104680000Y64246000D03*
X106330000Y64246000D03*
%TD*%
%TO.C,R3*%
X104680000Y35298000D03*
X106330000Y35298000D03*
%TD*%
%TO.C,R3*%
X104680000Y6350000D03*
X106330000Y6350000D03*
%TD*%
%TO.C,R3*%
X78780000Y122142000D03*
X80430000Y122142000D03*
%TD*%
%TO.C,R3*%
X78780000Y93194000D03*
X80430000Y93194000D03*
%TD*%
%TO.C,R3*%
X78780000Y64246000D03*
X80430000Y64246000D03*
%TD*%
%TO.C,R3*%
X78780000Y35298000D03*
X80430000Y35298000D03*
%TD*%
%TO.C,R3*%
X78780000Y6350000D03*
X80430000Y6350000D03*
%TD*%
%TO.C,R3*%
X52880000Y122142000D03*
X54530000Y122142000D03*
%TD*%
%TO.C,R3*%
X52880000Y93194000D03*
X54530000Y93194000D03*
%TD*%
%TO.C,R3*%
X52880000Y64246000D03*
X54530000Y64246000D03*
%TD*%
%TO.C,R3*%
X52880000Y35298000D03*
X54530000Y35298000D03*
%TD*%
%TO.C,R3*%
X52880000Y6350000D03*
X54530000Y6350000D03*
%TD*%
%TO.C,R3*%
X26980000Y122142000D03*
X28630000Y122142000D03*
%TD*%
%TO.C,R3*%
X26980000Y93194000D03*
X28630000Y93194000D03*
%TD*%
%TO.C,R3*%
X26980000Y64246000D03*
X28630000Y64246000D03*
%TD*%
%TO.C,R3*%
X26980000Y35298000D03*
X28630000Y35298000D03*
%TD*%
%TO.C,R3*%
X26980000Y6350000D03*
X28630000Y6350000D03*
%TD*%
%TO.C,R3*%
X1080000Y122142000D03*
X2730000Y122142000D03*
%TD*%
%TO.C,R3*%
X1080000Y93194000D03*
X2730000Y93194000D03*
%TD*%
%TO.C,R3*%
X1080000Y64246000D03*
X2730000Y64246000D03*
%TD*%
%TO.C,R3*%
X1080000Y35298000D03*
X2730000Y35298000D03*
%TD*%
D15*
%TO.C,R4*%
X122015000Y136239500D03*
X122015000Y137889500D03*
%TD*%
%TO.C,R4*%
X122015000Y107291500D03*
X122015000Y108941500D03*
%TD*%
%TO.C,R4*%
X122015000Y78343500D03*
X122015000Y79993500D03*
%TD*%
%TO.C,R4*%
X122015000Y49395500D03*
X122015000Y51045500D03*
%TD*%
%TO.C,R4*%
X122015000Y20447500D03*
X122015000Y22097500D03*
%TD*%
%TO.C,R4*%
X96115000Y136239500D03*
X96115000Y137889500D03*
%TD*%
%TO.C,R4*%
X96115000Y107291500D03*
X96115000Y108941500D03*
%TD*%
%TO.C,R4*%
X96115000Y78343500D03*
X96115000Y79993500D03*
%TD*%
%TO.C,R4*%
X96115000Y49395500D03*
X96115000Y51045500D03*
%TD*%
%TO.C,R4*%
X96115000Y20447500D03*
X96115000Y22097500D03*
%TD*%
%TO.C,R4*%
X70215000Y136239500D03*
X70215000Y137889500D03*
%TD*%
%TO.C,R4*%
X70215000Y107291500D03*
X70215000Y108941500D03*
%TD*%
%TO.C,R4*%
X70215000Y78343500D03*
X70215000Y79993500D03*
%TD*%
%TO.C,R4*%
X70215000Y49395500D03*
X70215000Y51045500D03*
%TD*%
%TO.C,R4*%
X70215000Y20447500D03*
X70215000Y22097500D03*
%TD*%
%TO.C,R4*%
X44315000Y136239500D03*
X44315000Y137889500D03*
%TD*%
%TO.C,R4*%
X44315000Y107291500D03*
X44315000Y108941500D03*
%TD*%
%TO.C,R4*%
X44315000Y78343500D03*
X44315000Y79993500D03*
%TD*%
%TO.C,R4*%
X44315000Y49395500D03*
X44315000Y51045500D03*
%TD*%
%TO.C,R4*%
X44315000Y20447500D03*
X44315000Y22097500D03*
%TD*%
%TO.C,R4*%
X18415000Y136239500D03*
X18415000Y137889500D03*
%TD*%
%TO.C,R4*%
X18415000Y107291500D03*
X18415000Y108941500D03*
%TD*%
%TO.C,R4*%
X18415000Y78343500D03*
X18415000Y79993500D03*
%TD*%
%TO.C,R4*%
X18415000Y49395500D03*
X18415000Y51045500D03*
%TD*%
D13*
%TO.C,R11*%
X110775000Y125634500D03*
X109125000Y125634500D03*
%TD*%
%TO.C,R11*%
X110775000Y96686500D03*
X109125000Y96686500D03*
%TD*%
%TO.C,R11*%
X110775000Y67738500D03*
X109125000Y67738500D03*
%TD*%
%TO.C,R11*%
X110775000Y38790500D03*
X109125000Y38790500D03*
%TD*%
%TO.C,R11*%
X110775000Y9842500D03*
X109125000Y9842500D03*
%TD*%
%TO.C,R11*%
X84875000Y125634500D03*
X83225000Y125634500D03*
%TD*%
%TO.C,R11*%
X84875000Y96686500D03*
X83225000Y96686500D03*
%TD*%
%TO.C,R11*%
X84875000Y67738500D03*
X83225000Y67738500D03*
%TD*%
%TO.C,R11*%
X84875000Y38790500D03*
X83225000Y38790500D03*
%TD*%
%TO.C,R11*%
X84875000Y9842500D03*
X83225000Y9842500D03*
%TD*%
%TO.C,R11*%
X58975000Y125634500D03*
X57325000Y125634500D03*
%TD*%
%TO.C,R11*%
X58975000Y96686500D03*
X57325000Y96686500D03*
%TD*%
%TO.C,R11*%
X58975000Y67738500D03*
X57325000Y67738500D03*
%TD*%
%TO.C,R11*%
X58975000Y38790500D03*
X57325000Y38790500D03*
%TD*%
%TO.C,R11*%
X58975000Y9842500D03*
X57325000Y9842500D03*
%TD*%
%TO.C,R11*%
X33075000Y125634500D03*
X31425000Y125634500D03*
%TD*%
%TO.C,R11*%
X33075000Y96686500D03*
X31425000Y96686500D03*
%TD*%
%TO.C,R11*%
X33075000Y67738500D03*
X31425000Y67738500D03*
%TD*%
%TO.C,R11*%
X33075000Y38790500D03*
X31425000Y38790500D03*
%TD*%
%TO.C,R11*%
X33075000Y9842500D03*
X31425000Y9842500D03*
%TD*%
%TO.C,R11*%
X7175000Y125634500D03*
X5525000Y125634500D03*
%TD*%
%TO.C,R11*%
X7175000Y96686500D03*
X5525000Y96686500D03*
%TD*%
%TO.C,R11*%
X7175000Y67738500D03*
X5525000Y67738500D03*
%TD*%
%TO.C,R11*%
X7175000Y38790500D03*
X5525000Y38790500D03*
%TD*%
D12*
%TO.C,R8*%
X128047500Y134714500D03*
X128047500Y133064500D03*
%TD*%
%TO.C,R8*%
X128047500Y105766500D03*
X128047500Y104116500D03*
%TD*%
%TO.C,R8*%
X128047500Y76818500D03*
X128047500Y75168500D03*
%TD*%
%TO.C,R8*%
X128047500Y47870500D03*
X128047500Y46220500D03*
%TD*%
%TO.C,R8*%
X128047500Y18922500D03*
X128047500Y17272500D03*
%TD*%
%TO.C,R8*%
X102147500Y134714500D03*
X102147500Y133064500D03*
%TD*%
%TO.C,R8*%
X102147500Y105766500D03*
X102147500Y104116500D03*
%TD*%
%TO.C,R8*%
X102147500Y76818500D03*
X102147500Y75168500D03*
%TD*%
%TO.C,R8*%
X102147500Y47870500D03*
X102147500Y46220500D03*
%TD*%
%TO.C,R8*%
X102147500Y18922500D03*
X102147500Y17272500D03*
%TD*%
%TO.C,R8*%
X76247500Y134714500D03*
X76247500Y133064500D03*
%TD*%
%TO.C,R8*%
X76247500Y105766500D03*
X76247500Y104116500D03*
%TD*%
%TO.C,R8*%
X76247500Y76818500D03*
X76247500Y75168500D03*
%TD*%
%TO.C,R8*%
X76247500Y47870500D03*
X76247500Y46220500D03*
%TD*%
%TO.C,R8*%
X76247500Y18922500D03*
X76247500Y17272500D03*
%TD*%
%TO.C,R8*%
X50347500Y134714500D03*
X50347500Y133064500D03*
%TD*%
%TO.C,R8*%
X50347500Y105766500D03*
X50347500Y104116500D03*
%TD*%
%TO.C,R8*%
X50347500Y76818500D03*
X50347500Y75168500D03*
%TD*%
%TO.C,R8*%
X50347500Y47870500D03*
X50347500Y46220500D03*
%TD*%
%TO.C,R8*%
X50347500Y18922500D03*
X50347500Y17272500D03*
%TD*%
%TO.C,R8*%
X24447500Y134714500D03*
X24447500Y133064500D03*
%TD*%
%TO.C,R8*%
X24447500Y105766500D03*
X24447500Y104116500D03*
%TD*%
%TO.C,R8*%
X24447500Y76818500D03*
X24447500Y75168500D03*
%TD*%
%TO.C,R8*%
X24447500Y47870500D03*
X24447500Y46220500D03*
%TD*%
D16*
%TO.C,D2*%
X127783750Y123729500D03*
X124183750Y123729500D03*
%TD*%
%TO.C,D2*%
X127783750Y94781500D03*
X124183750Y94781500D03*
%TD*%
%TO.C,D2*%
X127783750Y65833500D03*
X124183750Y65833500D03*
%TD*%
%TO.C,D2*%
X127783750Y36885500D03*
X124183750Y36885500D03*
%TD*%
%TO.C,D2*%
X127783750Y7937500D03*
X124183750Y7937500D03*
%TD*%
%TO.C,D2*%
X101883750Y123729500D03*
X98283750Y123729500D03*
%TD*%
%TO.C,D2*%
X101883750Y94781500D03*
X98283750Y94781500D03*
%TD*%
%TO.C,D2*%
X101883750Y65833500D03*
X98283750Y65833500D03*
%TD*%
%TO.C,D2*%
X101883750Y36885500D03*
X98283750Y36885500D03*
%TD*%
%TO.C,D2*%
X101883750Y7937500D03*
X98283750Y7937500D03*
%TD*%
%TO.C,D2*%
X75983750Y123729500D03*
X72383750Y123729500D03*
%TD*%
%TO.C,D2*%
X75983750Y94781500D03*
X72383750Y94781500D03*
%TD*%
%TO.C,D2*%
X75983750Y65833500D03*
X72383750Y65833500D03*
%TD*%
%TO.C,D2*%
X75983750Y36885500D03*
X72383750Y36885500D03*
%TD*%
%TO.C,D2*%
X75983750Y7937500D03*
X72383750Y7937500D03*
%TD*%
%TO.C,D2*%
X50083750Y123729500D03*
X46483750Y123729500D03*
%TD*%
%TO.C,D2*%
X50083750Y94781500D03*
X46483750Y94781500D03*
%TD*%
%TO.C,D2*%
X50083750Y65833500D03*
X46483750Y65833500D03*
%TD*%
%TO.C,D2*%
X50083750Y36885500D03*
X46483750Y36885500D03*
%TD*%
%TO.C,D2*%
X50083750Y7937500D03*
X46483750Y7937500D03*
%TD*%
%TO.C,D2*%
X24183750Y123729500D03*
X20583750Y123729500D03*
%TD*%
%TO.C,D2*%
X24183750Y94781500D03*
X20583750Y94781500D03*
%TD*%
%TO.C,D2*%
X24183750Y65833500D03*
X20583750Y65833500D03*
%TD*%
%TO.C,D2*%
X24183750Y36885500D03*
X20583750Y36885500D03*
%TD*%
D15*
%TO.C,R12*%
X109950000Y127667000D03*
X109950000Y129317000D03*
%TD*%
%TO.C,R12*%
X109950000Y98719000D03*
X109950000Y100369000D03*
%TD*%
%TO.C,R12*%
X109950000Y69771000D03*
X109950000Y71421000D03*
%TD*%
%TO.C,R12*%
X109950000Y40823000D03*
X109950000Y42473000D03*
%TD*%
%TO.C,R12*%
X109950000Y11875000D03*
X109950000Y13525000D03*
%TD*%
%TO.C,R12*%
X84050000Y127667000D03*
X84050000Y129317000D03*
%TD*%
%TO.C,R12*%
X84050000Y98719000D03*
X84050000Y100369000D03*
%TD*%
%TO.C,R12*%
X84050000Y69771000D03*
X84050000Y71421000D03*
%TD*%
%TO.C,R12*%
X84050000Y40823000D03*
X84050000Y42473000D03*
%TD*%
%TO.C,R12*%
X84050000Y11875000D03*
X84050000Y13525000D03*
%TD*%
%TO.C,R12*%
X58150000Y127667000D03*
X58150000Y129317000D03*
%TD*%
%TO.C,R12*%
X58150000Y98719000D03*
X58150000Y100369000D03*
%TD*%
%TO.C,R12*%
X58150000Y69771000D03*
X58150000Y71421000D03*
%TD*%
%TO.C,R12*%
X58150000Y40823000D03*
X58150000Y42473000D03*
%TD*%
%TO.C,R12*%
X58150000Y11875000D03*
X58150000Y13525000D03*
%TD*%
%TO.C,R12*%
X32250000Y127667000D03*
X32250000Y129317000D03*
%TD*%
%TO.C,R12*%
X32250000Y98719000D03*
X32250000Y100369000D03*
%TD*%
%TO.C,R12*%
X32250000Y69771000D03*
X32250000Y71421000D03*
%TD*%
%TO.C,R12*%
X32250000Y40823000D03*
X32250000Y42473000D03*
%TD*%
%TO.C,R12*%
X32250000Y11875000D03*
X32250000Y13525000D03*
%TD*%
%TO.C,R12*%
X6350000Y127667000D03*
X6350000Y129317000D03*
%TD*%
%TO.C,R12*%
X6350000Y98719000D03*
X6350000Y100369000D03*
%TD*%
%TO.C,R12*%
X6350000Y69771000D03*
X6350000Y71421000D03*
%TD*%
%TO.C,R12*%
X6350000Y40823000D03*
X6350000Y42473000D03*
%TD*%
D17*
%TO.C,J2*%
X108362500Y129992000D03*
X108362500Y128992000D03*
X108362500Y127992000D03*
X108362500Y126992000D03*
D18*
X104687500Y125692000D03*
X104687500Y131292000D03*
%TD*%
D17*
%TO.C,J2*%
X108362500Y101044000D03*
X108362500Y100044000D03*
X108362500Y99044000D03*
X108362500Y98044000D03*
D18*
X104687500Y96744000D03*
X104687500Y102344000D03*
%TD*%
D17*
%TO.C,J2*%
X108362500Y72096000D03*
X108362500Y71096000D03*
X108362500Y70096000D03*
X108362500Y69096000D03*
D18*
X104687500Y67796000D03*
X104687500Y73396000D03*
%TD*%
D17*
%TO.C,J2*%
X108362500Y43148000D03*
X108362500Y42148000D03*
X108362500Y41148000D03*
X108362500Y40148000D03*
D18*
X104687500Y38848000D03*
X104687500Y44448000D03*
%TD*%
D17*
%TO.C,J2*%
X108362500Y14200000D03*
X108362500Y13200000D03*
X108362500Y12200000D03*
X108362500Y11200000D03*
D18*
X104687500Y9900000D03*
X104687500Y15500000D03*
%TD*%
D17*
%TO.C,J2*%
X82462500Y129992000D03*
X82462500Y128992000D03*
X82462500Y127992000D03*
X82462500Y126992000D03*
D18*
X78787500Y125692000D03*
X78787500Y131292000D03*
%TD*%
D17*
%TO.C,J2*%
X82462500Y101044000D03*
X82462500Y100044000D03*
X82462500Y99044000D03*
X82462500Y98044000D03*
D18*
X78787500Y96744000D03*
X78787500Y102344000D03*
%TD*%
D17*
%TO.C,J2*%
X82462500Y72096000D03*
X82462500Y71096000D03*
X82462500Y70096000D03*
X82462500Y69096000D03*
D18*
X78787500Y67796000D03*
X78787500Y73396000D03*
%TD*%
D17*
%TO.C,J2*%
X82462500Y43148000D03*
X82462500Y42148000D03*
X82462500Y41148000D03*
X82462500Y40148000D03*
D18*
X78787500Y38848000D03*
X78787500Y44448000D03*
%TD*%
D17*
%TO.C,J2*%
X82462500Y14200000D03*
X82462500Y13200000D03*
X82462500Y12200000D03*
X82462500Y11200000D03*
D18*
X78787500Y9900000D03*
X78787500Y15500000D03*
%TD*%
D17*
%TO.C,J2*%
X56562500Y129992000D03*
X56562500Y128992000D03*
X56562500Y127992000D03*
X56562500Y126992000D03*
D18*
X52887500Y125692000D03*
X52887500Y131292000D03*
%TD*%
D17*
%TO.C,J2*%
X56562500Y101044000D03*
X56562500Y100044000D03*
X56562500Y99044000D03*
X56562500Y98044000D03*
D18*
X52887500Y96744000D03*
X52887500Y102344000D03*
%TD*%
D17*
%TO.C,J2*%
X56562500Y72096000D03*
X56562500Y71096000D03*
X56562500Y70096000D03*
X56562500Y69096000D03*
D18*
X52887500Y67796000D03*
X52887500Y73396000D03*
%TD*%
D17*
%TO.C,J2*%
X56562500Y43148000D03*
X56562500Y42148000D03*
X56562500Y41148000D03*
X56562500Y40148000D03*
D18*
X52887500Y38848000D03*
X52887500Y44448000D03*
%TD*%
D17*
%TO.C,J2*%
X56562500Y14200000D03*
X56562500Y13200000D03*
X56562500Y12200000D03*
X56562500Y11200000D03*
D18*
X52887500Y9900000D03*
X52887500Y15500000D03*
%TD*%
D17*
%TO.C,J2*%
X30662500Y129992000D03*
X30662500Y128992000D03*
X30662500Y127992000D03*
X30662500Y126992000D03*
D18*
X26987500Y125692000D03*
X26987500Y131292000D03*
%TD*%
D17*
%TO.C,J2*%
X30662500Y101044000D03*
X30662500Y100044000D03*
X30662500Y99044000D03*
X30662500Y98044000D03*
D18*
X26987500Y96744000D03*
X26987500Y102344000D03*
%TD*%
D17*
%TO.C,J2*%
X30662500Y72096000D03*
X30662500Y71096000D03*
X30662500Y70096000D03*
X30662500Y69096000D03*
D18*
X26987500Y67796000D03*
X26987500Y73396000D03*
%TD*%
D17*
%TO.C,J2*%
X30662500Y43148000D03*
X30662500Y42148000D03*
X30662500Y41148000D03*
X30662500Y40148000D03*
D18*
X26987500Y38848000D03*
X26987500Y44448000D03*
%TD*%
D17*
%TO.C,J2*%
X30662500Y14200000D03*
X30662500Y13200000D03*
X30662500Y12200000D03*
X30662500Y11200000D03*
D18*
X26987500Y9900000D03*
X26987500Y15500000D03*
%TD*%
D17*
%TO.C,J2*%
X4762500Y129992000D03*
X4762500Y128992000D03*
X4762500Y127992000D03*
X4762500Y126992000D03*
D18*
X1087500Y125692000D03*
X1087500Y131292000D03*
%TD*%
D17*
%TO.C,J2*%
X4762500Y101044000D03*
X4762500Y100044000D03*
X4762500Y99044000D03*
X4762500Y98044000D03*
D18*
X1087500Y96744000D03*
X1087500Y102344000D03*
%TD*%
D17*
%TO.C,J2*%
X4762500Y72096000D03*
X4762500Y71096000D03*
X4762500Y70096000D03*
X4762500Y69096000D03*
D18*
X1087500Y67796000D03*
X1087500Y73396000D03*
%TD*%
D17*
%TO.C,J2*%
X4762500Y43148000D03*
X4762500Y42148000D03*
X4762500Y41148000D03*
X4762500Y40148000D03*
D18*
X1087500Y38848000D03*
X1087500Y44448000D03*
%TD*%
D19*
%TO.C,J4*%
X117550000Y135192000D03*
X116550000Y135192000D03*
X116050000Y135192000D03*
X115050000Y135192000D03*
X114550000Y135192000D03*
X115550000Y135192000D03*
X117050000Y135192000D03*
X118050000Y135192000D03*
D20*
X120618000Y139947000D03*
D21*
X120618000Y135767000D03*
X111982000Y135767000D03*
D20*
X111982000Y139947000D03*
%TD*%
D19*
%TO.C,J4*%
X117550000Y106244000D03*
X116550000Y106244000D03*
X116050000Y106244000D03*
X115050000Y106244000D03*
X114550000Y106244000D03*
X115550000Y106244000D03*
X117050000Y106244000D03*
X118050000Y106244000D03*
D20*
X120618000Y110999000D03*
D21*
X120618000Y106819000D03*
X111982000Y106819000D03*
D20*
X111982000Y110999000D03*
%TD*%
D19*
%TO.C,J4*%
X117550000Y77296000D03*
X116550000Y77296000D03*
X116050000Y77296000D03*
X115050000Y77296000D03*
X114550000Y77296000D03*
X115550000Y77296000D03*
X117050000Y77296000D03*
X118050000Y77296000D03*
D20*
X120618000Y82051000D03*
D21*
X120618000Y77871000D03*
X111982000Y77871000D03*
D20*
X111982000Y82051000D03*
%TD*%
D19*
%TO.C,J4*%
X117550000Y48348000D03*
X116550000Y48348000D03*
X116050000Y48348000D03*
X115050000Y48348000D03*
X114550000Y48348000D03*
X115550000Y48348000D03*
X117050000Y48348000D03*
X118050000Y48348000D03*
D20*
X120618000Y53103000D03*
D21*
X120618000Y48923000D03*
X111982000Y48923000D03*
D20*
X111982000Y53103000D03*
%TD*%
D19*
%TO.C,J4*%
X117550000Y19400000D03*
X116550000Y19400000D03*
X116050000Y19400000D03*
X115050000Y19400000D03*
X114550000Y19400000D03*
X115550000Y19400000D03*
X117050000Y19400000D03*
X118050000Y19400000D03*
D20*
X120618000Y24155000D03*
D21*
X120618000Y19975000D03*
X111982000Y19975000D03*
D20*
X111982000Y24155000D03*
%TD*%
D19*
%TO.C,J4*%
X91650000Y135192000D03*
X90650000Y135192000D03*
X90150000Y135192000D03*
X89150000Y135192000D03*
X88650000Y135192000D03*
X89650000Y135192000D03*
X91150000Y135192000D03*
X92150000Y135192000D03*
D20*
X94718000Y139947000D03*
D21*
X94718000Y135767000D03*
X86082000Y135767000D03*
D20*
X86082000Y139947000D03*
%TD*%
D19*
%TO.C,J4*%
X91650000Y106244000D03*
X90650000Y106244000D03*
X90150000Y106244000D03*
X89150000Y106244000D03*
X88650000Y106244000D03*
X89650000Y106244000D03*
X91150000Y106244000D03*
X92150000Y106244000D03*
D20*
X94718000Y110999000D03*
D21*
X94718000Y106819000D03*
X86082000Y106819000D03*
D20*
X86082000Y110999000D03*
%TD*%
D19*
%TO.C,J4*%
X91650000Y77296000D03*
X90650000Y77296000D03*
X90150000Y77296000D03*
X89150000Y77296000D03*
X88650000Y77296000D03*
X89650000Y77296000D03*
X91150000Y77296000D03*
X92150000Y77296000D03*
D20*
X94718000Y82051000D03*
D21*
X94718000Y77871000D03*
X86082000Y77871000D03*
D20*
X86082000Y82051000D03*
%TD*%
D19*
%TO.C,J4*%
X91650000Y48348000D03*
X90650000Y48348000D03*
X90150000Y48348000D03*
X89150000Y48348000D03*
X88650000Y48348000D03*
X89650000Y48348000D03*
X91150000Y48348000D03*
X92150000Y48348000D03*
D20*
X94718000Y53103000D03*
D21*
X94718000Y48923000D03*
X86082000Y48923000D03*
D20*
X86082000Y53103000D03*
%TD*%
D19*
%TO.C,J4*%
X91650000Y19400000D03*
X90650000Y19400000D03*
X90150000Y19400000D03*
X89150000Y19400000D03*
X88650000Y19400000D03*
X89650000Y19400000D03*
X91150000Y19400000D03*
X92150000Y19400000D03*
D20*
X94718000Y24155000D03*
D21*
X94718000Y19975000D03*
X86082000Y19975000D03*
D20*
X86082000Y24155000D03*
%TD*%
D19*
%TO.C,J4*%
X65750000Y135192000D03*
X64750000Y135192000D03*
X64250000Y135192000D03*
X63250000Y135192000D03*
X62750000Y135192000D03*
X63750000Y135192000D03*
X65250000Y135192000D03*
X66250000Y135192000D03*
D20*
X68818000Y139947000D03*
D21*
X68818000Y135767000D03*
X60182000Y135767000D03*
D20*
X60182000Y139947000D03*
%TD*%
D19*
%TO.C,J4*%
X65750000Y106244000D03*
X64750000Y106244000D03*
X64250000Y106244000D03*
X63250000Y106244000D03*
X62750000Y106244000D03*
X63750000Y106244000D03*
X65250000Y106244000D03*
X66250000Y106244000D03*
D20*
X68818000Y110999000D03*
D21*
X68818000Y106819000D03*
X60182000Y106819000D03*
D20*
X60182000Y110999000D03*
%TD*%
D19*
%TO.C,J4*%
X65750000Y77296000D03*
X64750000Y77296000D03*
X64250000Y77296000D03*
X63250000Y77296000D03*
X62750000Y77296000D03*
X63750000Y77296000D03*
X65250000Y77296000D03*
X66250000Y77296000D03*
D20*
X68818000Y82051000D03*
D21*
X68818000Y77871000D03*
X60182000Y77871000D03*
D20*
X60182000Y82051000D03*
%TD*%
D19*
%TO.C,J4*%
X65750000Y48348000D03*
X64750000Y48348000D03*
X64250000Y48348000D03*
X63250000Y48348000D03*
X62750000Y48348000D03*
X63750000Y48348000D03*
X65250000Y48348000D03*
X66250000Y48348000D03*
D20*
X68818000Y53103000D03*
D21*
X68818000Y48923000D03*
X60182000Y48923000D03*
D20*
X60182000Y53103000D03*
%TD*%
D19*
%TO.C,J4*%
X65750000Y19400000D03*
X64750000Y19400000D03*
X64250000Y19400000D03*
X63250000Y19400000D03*
X62750000Y19400000D03*
X63750000Y19400000D03*
X65250000Y19400000D03*
X66250000Y19400000D03*
D20*
X68818000Y24155000D03*
D21*
X68818000Y19975000D03*
X60182000Y19975000D03*
D20*
X60182000Y24155000D03*
%TD*%
D19*
%TO.C,J4*%
X39850000Y135192000D03*
X38850000Y135192000D03*
X38350000Y135192000D03*
X37350000Y135192000D03*
X36850000Y135192000D03*
X37850000Y135192000D03*
X39350000Y135192000D03*
X40350000Y135192000D03*
D20*
X42918000Y139947000D03*
D21*
X42918000Y135767000D03*
X34282000Y135767000D03*
D20*
X34282000Y139947000D03*
%TD*%
D19*
%TO.C,J4*%
X39850000Y106244000D03*
X38850000Y106244000D03*
X38350000Y106244000D03*
X37350000Y106244000D03*
X36850000Y106244000D03*
X37850000Y106244000D03*
X39350000Y106244000D03*
X40350000Y106244000D03*
D20*
X42918000Y110999000D03*
D21*
X42918000Y106819000D03*
X34282000Y106819000D03*
D20*
X34282000Y110999000D03*
%TD*%
D19*
%TO.C,J4*%
X39850000Y77296000D03*
X38850000Y77296000D03*
X38350000Y77296000D03*
X37350000Y77296000D03*
X36850000Y77296000D03*
X37850000Y77296000D03*
X39350000Y77296000D03*
X40350000Y77296000D03*
D20*
X42918000Y82051000D03*
D21*
X42918000Y77871000D03*
X34282000Y77871000D03*
D20*
X34282000Y82051000D03*
%TD*%
D19*
%TO.C,J4*%
X39850000Y48348000D03*
X38850000Y48348000D03*
X38350000Y48348000D03*
X37350000Y48348000D03*
X36850000Y48348000D03*
X37850000Y48348000D03*
X39350000Y48348000D03*
X40350000Y48348000D03*
D20*
X42918000Y53103000D03*
D21*
X42918000Y48923000D03*
X34282000Y48923000D03*
D20*
X34282000Y53103000D03*
%TD*%
D19*
%TO.C,J4*%
X39850000Y19400000D03*
X38850000Y19400000D03*
X38350000Y19400000D03*
X37350000Y19400000D03*
X36850000Y19400000D03*
X37850000Y19400000D03*
X39350000Y19400000D03*
X40350000Y19400000D03*
D20*
X42918000Y24155000D03*
D21*
X42918000Y19975000D03*
X34282000Y19975000D03*
D20*
X34282000Y24155000D03*
%TD*%
D19*
%TO.C,J4*%
X13950000Y135192000D03*
X12950000Y135192000D03*
X12450000Y135192000D03*
X11450000Y135192000D03*
X10950000Y135192000D03*
X11950000Y135192000D03*
X13450000Y135192000D03*
X14450000Y135192000D03*
D20*
X17018000Y139947000D03*
D21*
X17018000Y135767000D03*
X8382000Y135767000D03*
D20*
X8382000Y139947000D03*
%TD*%
D19*
%TO.C,J4*%
X13950000Y106244000D03*
X12950000Y106244000D03*
X12450000Y106244000D03*
X11450000Y106244000D03*
X10950000Y106244000D03*
X11950000Y106244000D03*
X13450000Y106244000D03*
X14450000Y106244000D03*
D20*
X17018000Y110999000D03*
D21*
X17018000Y106819000D03*
X8382000Y106819000D03*
D20*
X8382000Y110999000D03*
%TD*%
D19*
%TO.C,J4*%
X13950000Y77296000D03*
X12950000Y77296000D03*
X12450000Y77296000D03*
X11450000Y77296000D03*
X10950000Y77296000D03*
X11950000Y77296000D03*
X13450000Y77296000D03*
X14450000Y77296000D03*
D20*
X17018000Y82051000D03*
D21*
X17018000Y77871000D03*
X8382000Y77871000D03*
D20*
X8382000Y82051000D03*
%TD*%
D19*
%TO.C,J4*%
X13950000Y48348000D03*
X12950000Y48348000D03*
X12450000Y48348000D03*
X11450000Y48348000D03*
X10950000Y48348000D03*
X11950000Y48348000D03*
X13450000Y48348000D03*
X14450000Y48348000D03*
D20*
X17018000Y53103000D03*
D21*
X17018000Y48923000D03*
X8382000Y48923000D03*
D20*
X8382000Y53103000D03*
%TD*%
D15*
%TO.C,R2*%
X110585000Y136239500D03*
X110585000Y137889500D03*
%TD*%
%TO.C,R2*%
X110585000Y107291500D03*
X110585000Y108941500D03*
%TD*%
%TO.C,R2*%
X110585000Y78343500D03*
X110585000Y79993500D03*
%TD*%
%TO.C,R2*%
X110585000Y49395500D03*
X110585000Y51045500D03*
%TD*%
%TO.C,R2*%
X110585000Y20447500D03*
X110585000Y22097500D03*
%TD*%
%TO.C,R2*%
X84685000Y136239500D03*
X84685000Y137889500D03*
%TD*%
%TO.C,R2*%
X84685000Y107291500D03*
X84685000Y108941500D03*
%TD*%
%TO.C,R2*%
X84685000Y78343500D03*
X84685000Y79993500D03*
%TD*%
%TO.C,R2*%
X84685000Y49395500D03*
X84685000Y51045500D03*
%TD*%
%TO.C,R2*%
X84685000Y20447500D03*
X84685000Y22097500D03*
%TD*%
%TO.C,R2*%
X58785000Y136239500D03*
X58785000Y137889500D03*
%TD*%
%TO.C,R2*%
X58785000Y107291500D03*
X58785000Y108941500D03*
%TD*%
%TO.C,R2*%
X58785000Y78343500D03*
X58785000Y79993500D03*
%TD*%
%TO.C,R2*%
X58785000Y49395500D03*
X58785000Y51045500D03*
%TD*%
%TO.C,R2*%
X58785000Y20447500D03*
X58785000Y22097500D03*
%TD*%
%TO.C,R2*%
X32885000Y136239500D03*
X32885000Y137889500D03*
%TD*%
%TO.C,R2*%
X32885000Y107291500D03*
X32885000Y108941500D03*
%TD*%
%TO.C,R2*%
X32885000Y78343500D03*
X32885000Y79993500D03*
%TD*%
%TO.C,R2*%
X32885000Y49395500D03*
X32885000Y51045500D03*
%TD*%
%TO.C,R2*%
X32885000Y20447500D03*
X32885000Y22097500D03*
%TD*%
%TO.C,R2*%
X6985000Y136239500D03*
X6985000Y137889500D03*
%TD*%
%TO.C,R2*%
X6985000Y107291500D03*
X6985000Y108941500D03*
%TD*%
%TO.C,R2*%
X6985000Y78343500D03*
X6985000Y79993500D03*
%TD*%
%TO.C,R2*%
X6985000Y49395500D03*
X6985000Y51045500D03*
%TD*%
D11*
%TO.C,C4*%
X113125000Y127717000D03*
X113125000Y129267000D03*
%TD*%
%TO.C,C4*%
X113125000Y98769000D03*
X113125000Y100319000D03*
%TD*%
%TO.C,C4*%
X113125000Y69821000D03*
X113125000Y71371000D03*
%TD*%
%TO.C,C4*%
X113125000Y40873000D03*
X113125000Y42423000D03*
%TD*%
%TO.C,C4*%
X113125000Y11925000D03*
X113125000Y13475000D03*
%TD*%
%TO.C,C4*%
X87225000Y127717000D03*
X87225000Y129267000D03*
%TD*%
%TO.C,C4*%
X87225000Y98769000D03*
X87225000Y100319000D03*
%TD*%
%TO.C,C4*%
X87225000Y69821000D03*
X87225000Y71371000D03*
%TD*%
%TO.C,C4*%
X87225000Y40873000D03*
X87225000Y42423000D03*
%TD*%
%TO.C,C4*%
X87225000Y11925000D03*
X87225000Y13475000D03*
%TD*%
%TO.C,C4*%
X61325000Y127717000D03*
X61325000Y129267000D03*
%TD*%
%TO.C,C4*%
X61325000Y98769000D03*
X61325000Y100319000D03*
%TD*%
%TO.C,C4*%
X61325000Y69821000D03*
X61325000Y71371000D03*
%TD*%
%TO.C,C4*%
X61325000Y40873000D03*
X61325000Y42423000D03*
%TD*%
%TO.C,C4*%
X61325000Y11925000D03*
X61325000Y13475000D03*
%TD*%
%TO.C,C4*%
X35425000Y127717000D03*
X35425000Y129267000D03*
%TD*%
%TO.C,C4*%
X35425000Y98769000D03*
X35425000Y100319000D03*
%TD*%
%TO.C,C4*%
X35425000Y69821000D03*
X35425000Y71371000D03*
%TD*%
%TO.C,C4*%
X35425000Y40873000D03*
X35425000Y42423000D03*
%TD*%
%TO.C,C4*%
X35425000Y11925000D03*
X35425000Y13475000D03*
%TD*%
%TO.C,C4*%
X9525000Y127717000D03*
X9525000Y129267000D03*
%TD*%
%TO.C,C4*%
X9525000Y98769000D03*
X9525000Y100319000D03*
%TD*%
%TO.C,C4*%
X9525000Y69821000D03*
X9525000Y71371000D03*
%TD*%
%TO.C,C4*%
X9525000Y40873000D03*
X9525000Y42423000D03*
%TD*%
%TO.C,C5*%
X111537500Y127717000D03*
X111537500Y129267000D03*
%TD*%
%TO.C,C5*%
X111537500Y98769000D03*
X111537500Y100319000D03*
%TD*%
%TO.C,C5*%
X111537500Y69821000D03*
X111537500Y71371000D03*
%TD*%
%TO.C,C5*%
X111537500Y40873000D03*
X111537500Y42423000D03*
%TD*%
%TO.C,C5*%
X111537500Y11925000D03*
X111537500Y13475000D03*
%TD*%
%TO.C,C5*%
X85637500Y127717000D03*
X85637500Y129267000D03*
%TD*%
%TO.C,C5*%
X85637500Y98769000D03*
X85637500Y100319000D03*
%TD*%
%TO.C,C5*%
X85637500Y69821000D03*
X85637500Y71371000D03*
%TD*%
%TO.C,C5*%
X85637500Y40873000D03*
X85637500Y42423000D03*
%TD*%
%TO.C,C5*%
X85637500Y11925000D03*
X85637500Y13475000D03*
%TD*%
%TO.C,C5*%
X59737500Y127717000D03*
X59737500Y129267000D03*
%TD*%
%TO.C,C5*%
X59737500Y98769000D03*
X59737500Y100319000D03*
%TD*%
%TO.C,C5*%
X59737500Y69821000D03*
X59737500Y71371000D03*
%TD*%
%TO.C,C5*%
X59737500Y40873000D03*
X59737500Y42423000D03*
%TD*%
%TO.C,C5*%
X59737500Y11925000D03*
X59737500Y13475000D03*
%TD*%
%TO.C,C5*%
X33837500Y127717000D03*
X33837500Y129267000D03*
%TD*%
%TO.C,C5*%
X33837500Y98769000D03*
X33837500Y100319000D03*
%TD*%
%TO.C,C5*%
X33837500Y69821000D03*
X33837500Y71371000D03*
%TD*%
%TO.C,C5*%
X33837500Y40873000D03*
X33837500Y42423000D03*
%TD*%
%TO.C,C5*%
X33837500Y11925000D03*
X33837500Y13475000D03*
%TD*%
%TO.C,C5*%
X7937500Y127717000D03*
X7937500Y129267000D03*
%TD*%
%TO.C,C5*%
X7937500Y98769000D03*
X7937500Y100319000D03*
%TD*%
%TO.C,C5*%
X7937500Y69821000D03*
X7937500Y71371000D03*
%TD*%
%TO.C,C5*%
X7937500Y40873000D03*
X7937500Y42423000D03*
%TD*%
D15*
%TO.C,R6*%
X106140000Y133382000D03*
X106140000Y135032000D03*
%TD*%
%TO.C,R6*%
X106140000Y104434000D03*
X106140000Y106084000D03*
%TD*%
%TO.C,R6*%
X106140000Y75486000D03*
X106140000Y77136000D03*
%TD*%
%TO.C,R6*%
X106140000Y46538000D03*
X106140000Y48188000D03*
%TD*%
%TO.C,R6*%
X106140000Y17590000D03*
X106140000Y19240000D03*
%TD*%
%TO.C,R6*%
X80240000Y133382000D03*
X80240000Y135032000D03*
%TD*%
%TO.C,R6*%
X80240000Y104434000D03*
X80240000Y106084000D03*
%TD*%
%TO.C,R6*%
X80240000Y75486000D03*
X80240000Y77136000D03*
%TD*%
%TO.C,R6*%
X80240000Y46538000D03*
X80240000Y48188000D03*
%TD*%
%TO.C,R6*%
X80240000Y17590000D03*
X80240000Y19240000D03*
%TD*%
%TO.C,R6*%
X54340000Y133382000D03*
X54340000Y135032000D03*
%TD*%
%TO.C,R6*%
X54340000Y104434000D03*
X54340000Y106084000D03*
%TD*%
%TO.C,R6*%
X54340000Y75486000D03*
X54340000Y77136000D03*
%TD*%
%TO.C,R6*%
X54340000Y46538000D03*
X54340000Y48188000D03*
%TD*%
%TO.C,R6*%
X54340000Y17590000D03*
X54340000Y19240000D03*
%TD*%
%TO.C,R6*%
X28440000Y133382000D03*
X28440000Y135032000D03*
%TD*%
%TO.C,R6*%
X28440000Y104434000D03*
X28440000Y106084000D03*
%TD*%
%TO.C,R6*%
X28440000Y75486000D03*
X28440000Y77136000D03*
%TD*%
%TO.C,R6*%
X28440000Y46538000D03*
X28440000Y48188000D03*
%TD*%
%TO.C,R6*%
X28440000Y17590000D03*
X28440000Y19240000D03*
%TD*%
%TO.C,R6*%
X2540000Y133382000D03*
X2540000Y135032000D03*
%TD*%
%TO.C,R6*%
X2540000Y104434000D03*
X2540000Y106084000D03*
%TD*%
%TO.C,R6*%
X2540000Y75486000D03*
X2540000Y77136000D03*
%TD*%
%TO.C,R6*%
X2540000Y46538000D03*
X2540000Y48188000D03*
%TD*%
D17*
%TO.C,J1*%
X124237500Y126992000D03*
X124237500Y127992000D03*
X124237500Y128992000D03*
X124237500Y129992000D03*
D18*
X127912500Y131292000D03*
X127912500Y125692000D03*
%TD*%
D17*
%TO.C,J1*%
X124237500Y98044000D03*
X124237500Y99044000D03*
X124237500Y100044000D03*
X124237500Y101044000D03*
D18*
X127912500Y102344000D03*
X127912500Y96744000D03*
%TD*%
D17*
%TO.C,J1*%
X124237500Y69096000D03*
X124237500Y70096000D03*
X124237500Y71096000D03*
X124237500Y72096000D03*
D18*
X127912500Y73396000D03*
X127912500Y67796000D03*
%TD*%
D17*
%TO.C,J1*%
X124237500Y40148000D03*
X124237500Y41148000D03*
X124237500Y42148000D03*
X124237500Y43148000D03*
D18*
X127912500Y44448000D03*
X127912500Y38848000D03*
%TD*%
D17*
%TO.C,J1*%
X124237500Y11200000D03*
X124237500Y12200000D03*
X124237500Y13200000D03*
X124237500Y14200000D03*
D18*
X127912500Y15500000D03*
X127912500Y9900000D03*
%TD*%
D17*
%TO.C,J1*%
X98337500Y126992000D03*
X98337500Y127992000D03*
X98337500Y128992000D03*
X98337500Y129992000D03*
D18*
X102012500Y131292000D03*
X102012500Y125692000D03*
%TD*%
D17*
%TO.C,J1*%
X98337500Y98044000D03*
X98337500Y99044000D03*
X98337500Y100044000D03*
X98337500Y101044000D03*
D18*
X102012500Y102344000D03*
X102012500Y96744000D03*
%TD*%
D17*
%TO.C,J1*%
X98337500Y69096000D03*
X98337500Y70096000D03*
X98337500Y71096000D03*
X98337500Y72096000D03*
D18*
X102012500Y73396000D03*
X102012500Y67796000D03*
%TD*%
D17*
%TO.C,J1*%
X98337500Y40148000D03*
X98337500Y41148000D03*
X98337500Y42148000D03*
X98337500Y43148000D03*
D18*
X102012500Y44448000D03*
X102012500Y38848000D03*
%TD*%
D17*
%TO.C,J1*%
X98337500Y11200000D03*
X98337500Y12200000D03*
X98337500Y13200000D03*
X98337500Y14200000D03*
D18*
X102012500Y15500000D03*
X102012500Y9900000D03*
%TD*%
D17*
%TO.C,J1*%
X72437500Y126992000D03*
X72437500Y127992000D03*
X72437500Y128992000D03*
X72437500Y129992000D03*
D18*
X76112500Y131292000D03*
X76112500Y125692000D03*
%TD*%
D17*
%TO.C,J1*%
X72437500Y98044000D03*
X72437500Y99044000D03*
X72437500Y100044000D03*
X72437500Y101044000D03*
D18*
X76112500Y102344000D03*
X76112500Y96744000D03*
%TD*%
D17*
%TO.C,J1*%
X72437500Y69096000D03*
X72437500Y70096000D03*
X72437500Y71096000D03*
X72437500Y72096000D03*
D18*
X76112500Y73396000D03*
X76112500Y67796000D03*
%TD*%
D17*
%TO.C,J1*%
X72437500Y40148000D03*
X72437500Y41148000D03*
X72437500Y42148000D03*
X72437500Y43148000D03*
D18*
X76112500Y44448000D03*
X76112500Y38848000D03*
%TD*%
D17*
%TO.C,J1*%
X72437500Y11200000D03*
X72437500Y12200000D03*
X72437500Y13200000D03*
X72437500Y14200000D03*
D18*
X76112500Y15500000D03*
X76112500Y9900000D03*
%TD*%
D17*
%TO.C,J1*%
X46537500Y126992000D03*
X46537500Y127992000D03*
X46537500Y128992000D03*
X46537500Y129992000D03*
D18*
X50212500Y131292000D03*
X50212500Y125692000D03*
%TD*%
D17*
%TO.C,J1*%
X46537500Y98044000D03*
X46537500Y99044000D03*
X46537500Y100044000D03*
X46537500Y101044000D03*
D18*
X50212500Y102344000D03*
X50212500Y96744000D03*
%TD*%
D17*
%TO.C,J1*%
X46537500Y69096000D03*
X46537500Y70096000D03*
X46537500Y71096000D03*
X46537500Y72096000D03*
D18*
X50212500Y73396000D03*
X50212500Y67796000D03*
%TD*%
D17*
%TO.C,J1*%
X46537500Y40148000D03*
X46537500Y41148000D03*
X46537500Y42148000D03*
X46537500Y43148000D03*
D18*
X50212500Y44448000D03*
X50212500Y38848000D03*
%TD*%
D17*
%TO.C,J1*%
X46537500Y11200000D03*
X46537500Y12200000D03*
X46537500Y13200000D03*
X46537500Y14200000D03*
D18*
X50212500Y15500000D03*
X50212500Y9900000D03*
%TD*%
D17*
%TO.C,J1*%
X20637500Y126992000D03*
X20637500Y127992000D03*
X20637500Y128992000D03*
X20637500Y129992000D03*
D18*
X24312500Y131292000D03*
X24312500Y125692000D03*
%TD*%
D17*
%TO.C,J1*%
X20637500Y98044000D03*
X20637500Y99044000D03*
X20637500Y100044000D03*
X20637500Y101044000D03*
D18*
X24312500Y102344000D03*
X24312500Y96744000D03*
%TD*%
D17*
%TO.C,J1*%
X20637500Y69096000D03*
X20637500Y70096000D03*
X20637500Y71096000D03*
X20637500Y72096000D03*
D18*
X24312500Y73396000D03*
X24312500Y67796000D03*
%TD*%
D17*
%TO.C,J1*%
X20637500Y40148000D03*
X20637500Y41148000D03*
X20637500Y42148000D03*
X20637500Y43148000D03*
D18*
X24312500Y44448000D03*
X24312500Y38848000D03*
%TD*%
D22*
%TO.C,U2*%
X117600100Y127542000D03*
X117600100Y128492000D03*
X117600100Y129442000D03*
X114999900Y129442000D03*
X114999900Y127542000D03*
%TD*%
%TO.C,U2*%
X117600100Y98594000D03*
X117600100Y99544000D03*
X117600100Y100494000D03*
X114999900Y100494000D03*
X114999900Y98594000D03*
%TD*%
%TO.C,U2*%
X117600100Y69646000D03*
X117600100Y70596000D03*
X117600100Y71546000D03*
X114999900Y71546000D03*
X114999900Y69646000D03*
%TD*%
%TO.C,U2*%
X117600100Y40698000D03*
X117600100Y41648000D03*
X117600100Y42598000D03*
X114999900Y42598000D03*
X114999900Y40698000D03*
%TD*%
%TO.C,U2*%
X117600100Y11750000D03*
X117600100Y12700000D03*
X117600100Y13650000D03*
X114999900Y13650000D03*
X114999900Y11750000D03*
%TD*%
%TO.C,U2*%
X91700100Y127542000D03*
X91700100Y128492000D03*
X91700100Y129442000D03*
X89099900Y129442000D03*
X89099900Y127542000D03*
%TD*%
%TO.C,U2*%
X91700100Y98594000D03*
X91700100Y99544000D03*
X91700100Y100494000D03*
X89099900Y100494000D03*
X89099900Y98594000D03*
%TD*%
%TO.C,U2*%
X91700100Y69646000D03*
X91700100Y70596000D03*
X91700100Y71546000D03*
X89099900Y71546000D03*
X89099900Y69646000D03*
%TD*%
%TO.C,U2*%
X91700100Y40698000D03*
X91700100Y41648000D03*
X91700100Y42598000D03*
X89099900Y42598000D03*
X89099900Y40698000D03*
%TD*%
%TO.C,U2*%
X91700100Y11750000D03*
X91700100Y12700000D03*
X91700100Y13650000D03*
X89099900Y13650000D03*
X89099900Y11750000D03*
%TD*%
%TO.C,U2*%
X65800100Y127542000D03*
X65800100Y128492000D03*
X65800100Y129442000D03*
X63199900Y129442000D03*
X63199900Y127542000D03*
%TD*%
%TO.C,U2*%
X65800100Y98594000D03*
X65800100Y99544000D03*
X65800100Y100494000D03*
X63199900Y100494000D03*
X63199900Y98594000D03*
%TD*%
%TO.C,U2*%
X65800100Y69646000D03*
X65800100Y70596000D03*
X65800100Y71546000D03*
X63199900Y71546000D03*
X63199900Y69646000D03*
%TD*%
%TO.C,U2*%
X65800100Y40698000D03*
X65800100Y41648000D03*
X65800100Y42598000D03*
X63199900Y42598000D03*
X63199900Y40698000D03*
%TD*%
%TO.C,U2*%
X65800100Y11750000D03*
X65800100Y12700000D03*
X65800100Y13650000D03*
X63199900Y13650000D03*
X63199900Y11750000D03*
%TD*%
%TO.C,U2*%
X39900100Y127542000D03*
X39900100Y128492000D03*
X39900100Y129442000D03*
X37299900Y129442000D03*
X37299900Y127542000D03*
%TD*%
%TO.C,U2*%
X39900100Y98594000D03*
X39900100Y99544000D03*
X39900100Y100494000D03*
X37299900Y100494000D03*
X37299900Y98594000D03*
%TD*%
%TO.C,U2*%
X39900100Y69646000D03*
X39900100Y70596000D03*
X39900100Y71546000D03*
X37299900Y71546000D03*
X37299900Y69646000D03*
%TD*%
%TO.C,U2*%
X39900100Y40698000D03*
X39900100Y41648000D03*
X39900100Y42598000D03*
X37299900Y42598000D03*
X37299900Y40698000D03*
%TD*%
%TO.C,U2*%
X39900100Y11750000D03*
X39900100Y12700000D03*
X39900100Y13650000D03*
X37299900Y13650000D03*
X37299900Y11750000D03*
%TD*%
%TO.C,U2*%
X14000100Y127542000D03*
X14000100Y128492000D03*
X14000100Y129442000D03*
X11399900Y129442000D03*
X11399900Y127542000D03*
%TD*%
%TO.C,U2*%
X14000100Y98594000D03*
X14000100Y99544000D03*
X14000100Y100494000D03*
X11399900Y100494000D03*
X11399900Y98594000D03*
%TD*%
%TO.C,U2*%
X14000100Y69646000D03*
X14000100Y70596000D03*
X14000100Y71546000D03*
X11399900Y71546000D03*
X11399900Y69646000D03*
%TD*%
%TO.C,U2*%
X14000100Y40698000D03*
X14000100Y41648000D03*
X14000100Y42598000D03*
X11399900Y42598000D03*
X11399900Y40698000D03*
%TD*%
D13*
%TO.C,R1*%
X117125000Y132302000D03*
X115475000Y132302000D03*
%TD*%
%TO.C,R1*%
X117125000Y103354000D03*
X115475000Y103354000D03*
%TD*%
%TO.C,R1*%
X117125000Y74406000D03*
X115475000Y74406000D03*
%TD*%
%TO.C,R1*%
X117125000Y45458000D03*
X115475000Y45458000D03*
%TD*%
%TO.C,R1*%
X117125000Y16510000D03*
X115475000Y16510000D03*
%TD*%
%TO.C,R1*%
X91225000Y132302000D03*
X89575000Y132302000D03*
%TD*%
%TO.C,R1*%
X91225000Y103354000D03*
X89575000Y103354000D03*
%TD*%
%TO.C,R1*%
X91225000Y74406000D03*
X89575000Y74406000D03*
%TD*%
%TO.C,R1*%
X91225000Y45458000D03*
X89575000Y45458000D03*
%TD*%
%TO.C,R1*%
X91225000Y16510000D03*
X89575000Y16510000D03*
%TD*%
%TO.C,R1*%
X65325000Y132302000D03*
X63675000Y132302000D03*
%TD*%
%TO.C,R1*%
X65325000Y103354000D03*
X63675000Y103354000D03*
%TD*%
%TO.C,R1*%
X65325000Y74406000D03*
X63675000Y74406000D03*
%TD*%
%TO.C,R1*%
X65325000Y45458000D03*
X63675000Y45458000D03*
%TD*%
%TO.C,R1*%
X65325000Y16510000D03*
X63675000Y16510000D03*
%TD*%
%TO.C,R1*%
X39425000Y132302000D03*
X37775000Y132302000D03*
%TD*%
%TO.C,R1*%
X39425000Y103354000D03*
X37775000Y103354000D03*
%TD*%
%TO.C,R1*%
X39425000Y74406000D03*
X37775000Y74406000D03*
%TD*%
%TO.C,R1*%
X39425000Y45458000D03*
X37775000Y45458000D03*
%TD*%
%TO.C,R1*%
X39425000Y16510000D03*
X37775000Y16510000D03*
%TD*%
%TO.C,R1*%
X13525000Y132302000D03*
X11875000Y132302000D03*
%TD*%
%TO.C,R1*%
X13525000Y103354000D03*
X11875000Y103354000D03*
%TD*%
%TO.C,R1*%
X13525000Y74406000D03*
X11875000Y74406000D03*
%TD*%
%TO.C,R1*%
X13525000Y45458000D03*
X11875000Y45458000D03*
%TD*%
D14*
%TO.C,R9*%
X115475000Y130714500D03*
X117125000Y130714500D03*
%TD*%
%TO.C,R9*%
X115475000Y101766500D03*
X117125000Y101766500D03*
%TD*%
%TO.C,R9*%
X115475000Y72818500D03*
X117125000Y72818500D03*
%TD*%
%TO.C,R9*%
X115475000Y43870500D03*
X117125000Y43870500D03*
%TD*%
%TO.C,R9*%
X115475000Y14922500D03*
X117125000Y14922500D03*
%TD*%
%TO.C,R9*%
X89575000Y130714500D03*
X91225000Y130714500D03*
%TD*%
%TO.C,R9*%
X89575000Y101766500D03*
X91225000Y101766500D03*
%TD*%
%TO.C,R9*%
X89575000Y72818500D03*
X91225000Y72818500D03*
%TD*%
%TO.C,R9*%
X89575000Y43870500D03*
X91225000Y43870500D03*
%TD*%
%TO.C,R9*%
X89575000Y14922500D03*
X91225000Y14922500D03*
%TD*%
%TO.C,R9*%
X63675000Y130714500D03*
X65325000Y130714500D03*
%TD*%
%TO.C,R9*%
X63675000Y101766500D03*
X65325000Y101766500D03*
%TD*%
%TO.C,R9*%
X63675000Y72818500D03*
X65325000Y72818500D03*
%TD*%
%TO.C,R9*%
X63675000Y43870500D03*
X65325000Y43870500D03*
%TD*%
%TO.C,R9*%
X63675000Y14922500D03*
X65325000Y14922500D03*
%TD*%
%TO.C,R9*%
X37775000Y130714500D03*
X39425000Y130714500D03*
%TD*%
%TO.C,R9*%
X37775000Y101766500D03*
X39425000Y101766500D03*
%TD*%
%TO.C,R9*%
X37775000Y72818500D03*
X39425000Y72818500D03*
%TD*%
%TO.C,R9*%
X37775000Y43870500D03*
X39425000Y43870500D03*
%TD*%
%TO.C,R9*%
X37775000Y14922500D03*
X39425000Y14922500D03*
%TD*%
%TO.C,R9*%
X11875000Y130714500D03*
X13525000Y130714500D03*
%TD*%
%TO.C,R9*%
X11875000Y101766500D03*
X13525000Y101766500D03*
%TD*%
%TO.C,R9*%
X11875000Y72818500D03*
X13525000Y72818500D03*
%TD*%
%TO.C,R9*%
X11875000Y43870500D03*
X13525000Y43870500D03*
%TD*%
D15*
%TO.C,R7*%
X126460000Y133064500D03*
X126460000Y134714500D03*
%TD*%
%TO.C,R7*%
X126460000Y104116500D03*
X126460000Y105766500D03*
%TD*%
%TO.C,R7*%
X126460000Y75168500D03*
X126460000Y76818500D03*
%TD*%
%TO.C,R7*%
X126460000Y46220500D03*
X126460000Y47870500D03*
%TD*%
%TO.C,R7*%
X126460000Y17272500D03*
X126460000Y18922500D03*
%TD*%
%TO.C,R7*%
X100560000Y133064500D03*
X100560000Y134714500D03*
%TD*%
%TO.C,R7*%
X100560000Y104116500D03*
X100560000Y105766500D03*
%TD*%
%TO.C,R7*%
X100560000Y75168500D03*
X100560000Y76818500D03*
%TD*%
%TO.C,R7*%
X100560000Y46220500D03*
X100560000Y47870500D03*
%TD*%
%TO.C,R7*%
X100560000Y17272500D03*
X100560000Y18922500D03*
%TD*%
%TO.C,R7*%
X74660000Y133064500D03*
X74660000Y134714500D03*
%TD*%
%TO.C,R7*%
X74660000Y104116500D03*
X74660000Y105766500D03*
%TD*%
%TO.C,R7*%
X74660000Y75168500D03*
X74660000Y76818500D03*
%TD*%
%TO.C,R7*%
X74660000Y46220500D03*
X74660000Y47870500D03*
%TD*%
%TO.C,R7*%
X74660000Y17272500D03*
X74660000Y18922500D03*
%TD*%
%TO.C,R7*%
X48760000Y133064500D03*
X48760000Y134714500D03*
%TD*%
%TO.C,R7*%
X48760000Y104116500D03*
X48760000Y105766500D03*
%TD*%
%TO.C,R7*%
X48760000Y75168500D03*
X48760000Y76818500D03*
%TD*%
%TO.C,R7*%
X48760000Y46220500D03*
X48760000Y47870500D03*
%TD*%
%TO.C,R7*%
X48760000Y17272500D03*
X48760000Y18922500D03*
%TD*%
%TO.C,R7*%
X22860000Y133064500D03*
X22860000Y134714500D03*
%TD*%
%TO.C,R7*%
X22860000Y104116500D03*
X22860000Y105766500D03*
%TD*%
%TO.C,R7*%
X22860000Y75168500D03*
X22860000Y76818500D03*
%TD*%
%TO.C,R7*%
X22860000Y46220500D03*
X22860000Y47870500D03*
%TD*%
D23*
%TO.C,D1*%
X104717500Y124047000D03*
X106292500Y124047000D03*
%TD*%
%TO.C,D1*%
X104717500Y95099000D03*
X106292500Y95099000D03*
%TD*%
%TO.C,D1*%
X104717500Y66151000D03*
X106292500Y66151000D03*
%TD*%
%TO.C,D1*%
X104717500Y37203000D03*
X106292500Y37203000D03*
%TD*%
%TO.C,D1*%
X104717500Y8255000D03*
X106292500Y8255000D03*
%TD*%
%TO.C,D1*%
X78817500Y124047000D03*
X80392500Y124047000D03*
%TD*%
%TO.C,D1*%
X78817500Y95099000D03*
X80392500Y95099000D03*
%TD*%
%TO.C,D1*%
X78817500Y66151000D03*
X80392500Y66151000D03*
%TD*%
%TO.C,D1*%
X78817500Y37203000D03*
X80392500Y37203000D03*
%TD*%
%TO.C,D1*%
X78817500Y8255000D03*
X80392500Y8255000D03*
%TD*%
%TO.C,D1*%
X52917500Y124047000D03*
X54492500Y124047000D03*
%TD*%
%TO.C,D1*%
X52917500Y95099000D03*
X54492500Y95099000D03*
%TD*%
%TO.C,D1*%
X52917500Y66151000D03*
X54492500Y66151000D03*
%TD*%
%TO.C,D1*%
X52917500Y37203000D03*
X54492500Y37203000D03*
%TD*%
%TO.C,D1*%
X52917500Y8255000D03*
X54492500Y8255000D03*
%TD*%
%TO.C,D1*%
X27017500Y124047000D03*
X28592500Y124047000D03*
%TD*%
%TO.C,D1*%
X27017500Y95099000D03*
X28592500Y95099000D03*
%TD*%
%TO.C,D1*%
X27017500Y66151000D03*
X28592500Y66151000D03*
%TD*%
%TO.C,D1*%
X27017500Y37203000D03*
X28592500Y37203000D03*
%TD*%
%TO.C,D1*%
X27017500Y8255000D03*
X28592500Y8255000D03*
%TD*%
%TO.C,D1*%
X1117500Y124047000D03*
X2692500Y124047000D03*
%TD*%
%TO.C,D1*%
X1117500Y95099000D03*
X2692500Y95099000D03*
%TD*%
%TO.C,D1*%
X1117500Y66151000D03*
X2692500Y66151000D03*
%TD*%
%TO.C,D1*%
X1117500Y37203000D03*
X2692500Y37203000D03*
%TD*%
%TO.C,D1*%
X1117500Y8255000D03*
X2692500Y8255000D03*
%TD*%
D15*
%TO.C,R7*%
X22860000Y17272500D03*
X22860000Y18922500D03*
%TD*%
D14*
%TO.C,R9*%
X11875000Y14922500D03*
X13525000Y14922500D03*
%TD*%
D13*
%TO.C,R1*%
X13525000Y16510000D03*
X11875000Y16510000D03*
%TD*%
D22*
%TO.C,U2*%
X14000100Y11750000D03*
X14000100Y12700000D03*
X14000100Y13650000D03*
X11399900Y13650000D03*
X11399900Y11750000D03*
%TD*%
D17*
%TO.C,J1*%
X20637500Y11200000D03*
X20637500Y12200000D03*
X20637500Y13200000D03*
X20637500Y14200000D03*
D18*
X24312500Y15500000D03*
X24312500Y9900000D03*
%TD*%
D15*
%TO.C,R6*%
X2540000Y17590000D03*
X2540000Y19240000D03*
%TD*%
D11*
%TO.C,C5*%
X7937500Y11925000D03*
X7937500Y13475000D03*
%TD*%
%TO.C,C4*%
X9525000Y11925000D03*
X9525000Y13475000D03*
%TD*%
D15*
%TO.C,R2*%
X6985000Y20447500D03*
X6985000Y22097500D03*
%TD*%
D19*
%TO.C,J4*%
X13950000Y19400000D03*
X12950000Y19400000D03*
X12450000Y19400000D03*
X11450000Y19400000D03*
X10950000Y19400000D03*
X11950000Y19400000D03*
X13450000Y19400000D03*
X14450000Y19400000D03*
D20*
X17018000Y24155000D03*
D21*
X17018000Y19975000D03*
X8382000Y19975000D03*
D20*
X8382000Y24155000D03*
%TD*%
D17*
%TO.C,J2*%
X4762500Y14200000D03*
X4762500Y13200000D03*
X4762500Y12200000D03*
X4762500Y11200000D03*
D18*
X1087500Y9900000D03*
X1087500Y15500000D03*
%TD*%
D15*
%TO.C,R12*%
X6350000Y11875000D03*
X6350000Y13525000D03*
%TD*%
D16*
%TO.C,D2*%
X24183750Y7937500D03*
X20583750Y7937500D03*
%TD*%
D12*
%TO.C,R8*%
X24447500Y18922500D03*
X24447500Y17272500D03*
%TD*%
D13*
%TO.C,R11*%
X7175000Y9842500D03*
X5525000Y9842500D03*
%TD*%
D15*
%TO.C,R4*%
X18415000Y20447500D03*
X18415000Y22097500D03*
%TD*%
D14*
%TO.C,R3*%
X1080000Y6350000D03*
X2730000Y6350000D03*
%TD*%
D13*
%TO.C,R10*%
X23208750Y6032500D03*
X21558750Y6032500D03*
%TD*%
D12*
%TO.C,R5*%
X952500Y19240000D03*
X952500Y17590000D03*
%TD*%
D11*
%TO.C,C2*%
X15875000Y11925000D03*
X15875000Y13475000D03*
%TD*%
%TO.C,C3*%
X17780000Y11925000D03*
X17780000Y13475000D03*
%TD*%
M02*
