%TF.GenerationSoftware,KiCad,Pcbnew,9.0.1*%
%TF.CreationDate,2025-09-09T14:55:51-06:00*%
%TF.ProjectId,SparkFun_Qwiic_Fingerprint_Sensor_FPC2534_panelized,53706172-6b46-4756-9e5f-51776969635f,v10*%
%TF.SameCoordinates,Original*%
%TF.FileFunction,Soldermask,Bot*%
%TF.FilePolarity,Negative*%
%FSLAX46Y46*%
G04 Gerber Fmt 4.6, Leading zero omitted, Abs format (unit mm)*
G04 Created by KiCad (PCBNEW 9.0.1) date 2025-09-09 14:55:51*
%MOMM*%
%LPD*%
G01*
G04 APERTURE LIST*
%TA.AperFunction,Profile*%
%ADD10C,0.100000*%
%TD*%
%ADD11C,0.250000*%
%ADD12C,0.500000*%
G04 APERTURE END LIST*
D10*
X-500000Y-3548000D02*
X-500000Y144740000D01*
X129500000Y-3548000D02*
X-500000Y-3548000D01*
X129500000Y144740000D02*
X129500000Y-3548000D01*
X-500000Y144740000D02*
X129500000Y144740000D01*
X-6850000Y-9898000D02*
X-6850000Y151090000D01*
X135850000Y-9898000D02*
X-6850000Y-9898000D01*
X135850000Y151090000D02*
X135850000Y-9898000D01*
X-6850000Y151090000D02*
X135850000Y151090000D01*
X103600000Y141192000D02*
X129000000Y141192000D01*
X129000000Y115792000D01*
X103600000Y115792000D01*
X103600000Y141192000D01*
X103600000Y112244000D02*
X129000000Y112244000D01*
X129000000Y86844000D01*
X103600000Y86844000D01*
X103600000Y112244000D01*
X103600000Y83296000D02*
X129000000Y83296000D01*
X129000000Y57896000D01*
X103600000Y57896000D01*
X103600000Y83296000D01*
X103600000Y54348000D02*
X129000000Y54348000D01*
X129000000Y28948000D01*
X103600000Y28948000D01*
X103600000Y54348000D01*
X103600000Y25400000D02*
X129000000Y25400000D01*
X129000000Y0D01*
X103600000Y0D01*
X103600000Y25400000D01*
X77700000Y141192000D02*
X103100000Y141192000D01*
X103100000Y115792000D01*
X77700000Y115792000D01*
X77700000Y141192000D01*
X77700000Y112244000D02*
X103100000Y112244000D01*
X103100000Y86844000D01*
X77700000Y86844000D01*
X77700000Y112244000D01*
X77700000Y83296000D02*
X103100000Y83296000D01*
X103100000Y57896000D01*
X77700000Y57896000D01*
X77700000Y83296000D01*
X77700000Y54348000D02*
X103100000Y54348000D01*
X103100000Y28948000D01*
X77700000Y28948000D01*
X77700000Y54348000D01*
X77700000Y25400000D02*
X103100000Y25400000D01*
X103100000Y0D01*
X77700000Y0D01*
X77700000Y25400000D01*
X51800000Y141192000D02*
X77200000Y141192000D01*
X77200000Y115792000D01*
X51800000Y115792000D01*
X51800000Y141192000D01*
X51800000Y112244000D02*
X77200000Y112244000D01*
X77200000Y86844000D01*
X51800000Y86844000D01*
X51800000Y112244000D01*
X51800000Y83296000D02*
X77200000Y83296000D01*
X77200000Y57896000D01*
X51800000Y57896000D01*
X51800000Y83296000D01*
X51800000Y54348000D02*
X77200000Y54348000D01*
X77200000Y28948000D01*
X51800000Y28948000D01*
X51800000Y54348000D01*
X51800000Y25400000D02*
X77200000Y25400000D01*
X77200000Y0D01*
X51800000Y0D01*
X51800000Y25400000D01*
X25900000Y141192000D02*
X51300000Y141192000D01*
X51300000Y115792000D01*
X25900000Y115792000D01*
X25900000Y141192000D01*
X25900000Y112244000D02*
X51300000Y112244000D01*
X51300000Y86844000D01*
X25900000Y86844000D01*
X25900000Y112244000D01*
X25900000Y83296000D02*
X51300000Y83296000D01*
X51300000Y57896000D01*
X25900000Y57896000D01*
X25900000Y83296000D01*
X25900000Y54348000D02*
X51300000Y54348000D01*
X51300000Y28948000D01*
X25900000Y28948000D01*
X25900000Y54348000D01*
X25900000Y25400000D02*
X51300000Y25400000D01*
X51300000Y0D01*
X25900000Y0D01*
X25900000Y25400000D01*
X0Y141192000D02*
X25400000Y141192000D01*
X25400000Y115792000D01*
X0Y115792000D01*
X0Y141192000D01*
X0Y112244000D02*
X25400000Y112244000D01*
X25400000Y86844000D01*
X0Y86844000D01*
X0Y112244000D01*
X0Y83296000D02*
X25400000Y83296000D01*
X25400000Y57896000D01*
X0Y57896000D01*
X0Y83296000D01*
X0Y54348000D02*
X25400000Y54348000D01*
X25400000Y28948000D01*
X0Y28948000D01*
X0Y54348000D01*
X0Y25400000D02*
X25400000Y25400000D01*
X25400000Y0D01*
X0Y0D01*
X0Y25400000D01*
D11*
X57738094Y-2686238D02*
X57071427Y-1733857D01*
X56595237Y-2686238D02*
X56595237Y-686238D01*
X56595237Y-686238D02*
X57357142Y-686238D01*
X57357142Y-686238D02*
X57547618Y-781476D01*
X57547618Y-781476D02*
X57642856Y-876714D01*
X57642856Y-876714D02*
X57738094Y-1067190D01*
X57738094Y-1067190D02*
X57738094Y-1352904D01*
X57738094Y-1352904D02*
X57642856Y-1543380D01*
X57642856Y-1543380D02*
X57547618Y-1638619D01*
X57547618Y-1638619D02*
X57357142Y-1733857D01*
X57357142Y-1733857D02*
X56595237Y-1733857D01*
X58976189Y-686238D02*
X59357142Y-686238D01*
X59357142Y-686238D02*
X59547618Y-781476D01*
X59547618Y-781476D02*
X59738094Y-971952D01*
X59738094Y-971952D02*
X59833332Y-1352904D01*
X59833332Y-1352904D02*
X59833332Y-2019571D01*
X59833332Y-2019571D02*
X59738094Y-2400523D01*
X59738094Y-2400523D02*
X59547618Y-2591000D01*
X59547618Y-2591000D02*
X59357142Y-2686238D01*
X59357142Y-2686238D02*
X58976189Y-2686238D01*
X58976189Y-2686238D02*
X58785713Y-2591000D01*
X58785713Y-2591000D02*
X58595237Y-2400523D01*
X58595237Y-2400523D02*
X58499999Y-2019571D01*
X58499999Y-2019571D02*
X58499999Y-1352904D01*
X58499999Y-1352904D02*
X58595237Y-971952D01*
X58595237Y-971952D02*
X58785713Y-781476D01*
X58785713Y-781476D02*
X58976189Y-686238D01*
X60690475Y-686238D02*
X60690475Y-2305285D01*
X60690475Y-2305285D02*
X60785713Y-2495761D01*
X60785713Y-2495761D02*
X60880951Y-2591000D01*
X60880951Y-2591000D02*
X61071427Y-2686238D01*
X61071427Y-2686238D02*
X61452380Y-2686238D01*
X61452380Y-2686238D02*
X61642856Y-2591000D01*
X61642856Y-2591000D02*
X61738094Y-2495761D01*
X61738094Y-2495761D02*
X61833332Y-2305285D01*
X61833332Y-2305285D02*
X61833332Y-686238D01*
X62499999Y-686238D02*
X63642856Y-686238D01*
X63071427Y-2686238D02*
X63071427Y-686238D01*
X64309523Y-1638619D02*
X64976190Y-1638619D01*
X65261904Y-2686238D02*
X64309523Y-2686238D01*
X64309523Y-2686238D02*
X64309523Y-686238D01*
X64309523Y-686238D02*
X65261904Y-686238D01*
X68023809Y-686238D02*
X68404762Y-686238D01*
X68404762Y-686238D02*
X68595238Y-781476D01*
X68595238Y-781476D02*
X68785714Y-971952D01*
X68785714Y-971952D02*
X68880952Y-1352904D01*
X68880952Y-1352904D02*
X68880952Y-2019571D01*
X68880952Y-2019571D02*
X68785714Y-2400523D01*
X68785714Y-2400523D02*
X68595238Y-2591000D01*
X68595238Y-2591000D02*
X68404762Y-2686238D01*
X68404762Y-2686238D02*
X68023809Y-2686238D01*
X68023809Y-2686238D02*
X67833333Y-2591000D01*
X67833333Y-2591000D02*
X67642857Y-2400523D01*
X67642857Y-2400523D02*
X67547619Y-2019571D01*
X67547619Y-2019571D02*
X67547619Y-1352904D01*
X67547619Y-1352904D02*
X67642857Y-971952D01*
X67642857Y-971952D02*
X67833333Y-781476D01*
X67833333Y-781476D02*
X68023809Y-686238D01*
X69738095Y-686238D02*
X69738095Y-2305285D01*
X69738095Y-2305285D02*
X69833333Y-2495761D01*
X69833333Y-2495761D02*
X69928571Y-2591000D01*
X69928571Y-2591000D02*
X70119047Y-2686238D01*
X70119047Y-2686238D02*
X70500000Y-2686238D01*
X70500000Y-2686238D02*
X70690476Y-2591000D01*
X70690476Y-2591000D02*
X70785714Y-2495761D01*
X70785714Y-2495761D02*
X70880952Y-2305285D01*
X70880952Y-2305285D02*
X70880952Y-686238D01*
X71547619Y-686238D02*
X72690476Y-686238D01*
X72119047Y-2686238D02*
X72119047Y-686238D01*
X57738094Y26261762D02*
X57071427Y27214143D01*
X56595237Y26261762D02*
X56595237Y28261762D01*
X56595237Y28261762D02*
X57357142Y28261762D01*
X57357142Y28261762D02*
X57547618Y28166524D01*
X57547618Y28166524D02*
X57642856Y28071286D01*
X57642856Y28071286D02*
X57738094Y27880810D01*
X57738094Y27880810D02*
X57738094Y27595096D01*
X57738094Y27595096D02*
X57642856Y27404620D01*
X57642856Y27404620D02*
X57547618Y27309381D01*
X57547618Y27309381D02*
X57357142Y27214143D01*
X57357142Y27214143D02*
X56595237Y27214143D01*
X58976189Y28261762D02*
X59357142Y28261762D01*
X59357142Y28261762D02*
X59547618Y28166524D01*
X59547618Y28166524D02*
X59738094Y27976048D01*
X59738094Y27976048D02*
X59833332Y27595096D01*
X59833332Y27595096D02*
X59833332Y26928429D01*
X59833332Y26928429D02*
X59738094Y26547477D01*
X59738094Y26547477D02*
X59547618Y26357000D01*
X59547618Y26357000D02*
X59357142Y26261762D01*
X59357142Y26261762D02*
X58976189Y26261762D01*
X58976189Y26261762D02*
X58785713Y26357000D01*
X58785713Y26357000D02*
X58595237Y26547477D01*
X58595237Y26547477D02*
X58499999Y26928429D01*
X58499999Y26928429D02*
X58499999Y27595096D01*
X58499999Y27595096D02*
X58595237Y27976048D01*
X58595237Y27976048D02*
X58785713Y28166524D01*
X58785713Y28166524D02*
X58976189Y28261762D01*
X60690475Y28261762D02*
X60690475Y26642715D01*
X60690475Y26642715D02*
X60785713Y26452239D01*
X60785713Y26452239D02*
X60880951Y26357000D01*
X60880951Y26357000D02*
X61071427Y26261762D01*
X61071427Y26261762D02*
X61452380Y26261762D01*
X61452380Y26261762D02*
X61642856Y26357000D01*
X61642856Y26357000D02*
X61738094Y26452239D01*
X61738094Y26452239D02*
X61833332Y26642715D01*
X61833332Y26642715D02*
X61833332Y28261762D01*
X62499999Y28261762D02*
X63642856Y28261762D01*
X63071427Y26261762D02*
X63071427Y28261762D01*
X64309523Y27309381D02*
X64976190Y27309381D01*
X65261904Y26261762D02*
X64309523Y26261762D01*
X64309523Y26261762D02*
X64309523Y28261762D01*
X64309523Y28261762D02*
X65261904Y28261762D01*
X68023809Y28261762D02*
X68404762Y28261762D01*
X68404762Y28261762D02*
X68595238Y28166524D01*
X68595238Y28166524D02*
X68785714Y27976048D01*
X68785714Y27976048D02*
X68880952Y27595096D01*
X68880952Y27595096D02*
X68880952Y26928429D01*
X68880952Y26928429D02*
X68785714Y26547477D01*
X68785714Y26547477D02*
X68595238Y26357000D01*
X68595238Y26357000D02*
X68404762Y26261762D01*
X68404762Y26261762D02*
X68023809Y26261762D01*
X68023809Y26261762D02*
X67833333Y26357000D01*
X67833333Y26357000D02*
X67642857Y26547477D01*
X67642857Y26547477D02*
X67547619Y26928429D01*
X67547619Y26928429D02*
X67547619Y27595096D01*
X67547619Y27595096D02*
X67642857Y27976048D01*
X67642857Y27976048D02*
X67833333Y28166524D01*
X67833333Y28166524D02*
X68023809Y28261762D01*
X69738095Y28261762D02*
X69738095Y26642715D01*
X69738095Y26642715D02*
X69833333Y26452239D01*
X69833333Y26452239D02*
X69928571Y26357000D01*
X69928571Y26357000D02*
X70119047Y26261762D01*
X70119047Y26261762D02*
X70500000Y26261762D01*
X70500000Y26261762D02*
X70690476Y26357000D01*
X70690476Y26357000D02*
X70785714Y26452239D01*
X70785714Y26452239D02*
X70880952Y26642715D01*
X70880952Y26642715D02*
X70880952Y28261762D01*
X71547619Y28261762D02*
X72690476Y28261762D01*
X72119047Y26261762D02*
X72119047Y28261762D01*
X57738094Y55209762D02*
X57071427Y56162143D01*
X56595237Y55209762D02*
X56595237Y57209762D01*
X56595237Y57209762D02*
X57357142Y57209762D01*
X57357142Y57209762D02*
X57547618Y57114524D01*
X57547618Y57114524D02*
X57642856Y57019286D01*
X57642856Y57019286D02*
X57738094Y56828810D01*
X57738094Y56828810D02*
X57738094Y56543096D01*
X57738094Y56543096D02*
X57642856Y56352620D01*
X57642856Y56352620D02*
X57547618Y56257381D01*
X57547618Y56257381D02*
X57357142Y56162143D01*
X57357142Y56162143D02*
X56595237Y56162143D01*
X58976189Y57209762D02*
X59357142Y57209762D01*
X59357142Y57209762D02*
X59547618Y57114524D01*
X59547618Y57114524D02*
X59738094Y56924048D01*
X59738094Y56924048D02*
X59833332Y56543096D01*
X59833332Y56543096D02*
X59833332Y55876429D01*
X59833332Y55876429D02*
X59738094Y55495477D01*
X59738094Y55495477D02*
X59547618Y55305000D01*
X59547618Y55305000D02*
X59357142Y55209762D01*
X59357142Y55209762D02*
X58976189Y55209762D01*
X58976189Y55209762D02*
X58785713Y55305000D01*
X58785713Y55305000D02*
X58595237Y55495477D01*
X58595237Y55495477D02*
X58499999Y55876429D01*
X58499999Y55876429D02*
X58499999Y56543096D01*
X58499999Y56543096D02*
X58595237Y56924048D01*
X58595237Y56924048D02*
X58785713Y57114524D01*
X58785713Y57114524D02*
X58976189Y57209762D01*
X60690475Y57209762D02*
X60690475Y55590715D01*
X60690475Y55590715D02*
X60785713Y55400239D01*
X60785713Y55400239D02*
X60880951Y55305000D01*
X60880951Y55305000D02*
X61071427Y55209762D01*
X61071427Y55209762D02*
X61452380Y55209762D01*
X61452380Y55209762D02*
X61642856Y55305000D01*
X61642856Y55305000D02*
X61738094Y55400239D01*
X61738094Y55400239D02*
X61833332Y55590715D01*
X61833332Y55590715D02*
X61833332Y57209762D01*
X62499999Y57209762D02*
X63642856Y57209762D01*
X63071427Y55209762D02*
X63071427Y57209762D01*
X64309523Y56257381D02*
X64976190Y56257381D01*
X65261904Y55209762D02*
X64309523Y55209762D01*
X64309523Y55209762D02*
X64309523Y57209762D01*
X64309523Y57209762D02*
X65261904Y57209762D01*
X68023809Y57209762D02*
X68404762Y57209762D01*
X68404762Y57209762D02*
X68595238Y57114524D01*
X68595238Y57114524D02*
X68785714Y56924048D01*
X68785714Y56924048D02*
X68880952Y56543096D01*
X68880952Y56543096D02*
X68880952Y55876429D01*
X68880952Y55876429D02*
X68785714Y55495477D01*
X68785714Y55495477D02*
X68595238Y55305000D01*
X68595238Y55305000D02*
X68404762Y55209762D01*
X68404762Y55209762D02*
X68023809Y55209762D01*
X68023809Y55209762D02*
X67833333Y55305000D01*
X67833333Y55305000D02*
X67642857Y55495477D01*
X67642857Y55495477D02*
X67547619Y55876429D01*
X67547619Y55876429D02*
X67547619Y56543096D01*
X67547619Y56543096D02*
X67642857Y56924048D01*
X67642857Y56924048D02*
X67833333Y57114524D01*
X67833333Y57114524D02*
X68023809Y57209762D01*
X69738095Y57209762D02*
X69738095Y55590715D01*
X69738095Y55590715D02*
X69833333Y55400239D01*
X69833333Y55400239D02*
X69928571Y55305000D01*
X69928571Y55305000D02*
X70119047Y55209762D01*
X70119047Y55209762D02*
X70500000Y55209762D01*
X70500000Y55209762D02*
X70690476Y55305000D01*
X70690476Y55305000D02*
X70785714Y55400239D01*
X70785714Y55400239D02*
X70880952Y55590715D01*
X70880952Y55590715D02*
X70880952Y57209762D01*
X71547619Y57209762D02*
X72690476Y57209762D01*
X72119047Y55209762D02*
X72119047Y57209762D01*
X57738094Y84157762D02*
X57071427Y85110143D01*
X56595237Y84157762D02*
X56595237Y86157762D01*
X56595237Y86157762D02*
X57357142Y86157762D01*
X57357142Y86157762D02*
X57547618Y86062524D01*
X57547618Y86062524D02*
X57642856Y85967286D01*
X57642856Y85967286D02*
X57738094Y85776810D01*
X57738094Y85776810D02*
X57738094Y85491096D01*
X57738094Y85491096D02*
X57642856Y85300620D01*
X57642856Y85300620D02*
X57547618Y85205381D01*
X57547618Y85205381D02*
X57357142Y85110143D01*
X57357142Y85110143D02*
X56595237Y85110143D01*
X58976189Y86157762D02*
X59357142Y86157762D01*
X59357142Y86157762D02*
X59547618Y86062524D01*
X59547618Y86062524D02*
X59738094Y85872048D01*
X59738094Y85872048D02*
X59833332Y85491096D01*
X59833332Y85491096D02*
X59833332Y84824429D01*
X59833332Y84824429D02*
X59738094Y84443477D01*
X59738094Y84443477D02*
X59547618Y84253000D01*
X59547618Y84253000D02*
X59357142Y84157762D01*
X59357142Y84157762D02*
X58976189Y84157762D01*
X58976189Y84157762D02*
X58785713Y84253000D01*
X58785713Y84253000D02*
X58595237Y84443477D01*
X58595237Y84443477D02*
X58499999Y84824429D01*
X58499999Y84824429D02*
X58499999Y85491096D01*
X58499999Y85491096D02*
X58595237Y85872048D01*
X58595237Y85872048D02*
X58785713Y86062524D01*
X58785713Y86062524D02*
X58976189Y86157762D01*
X60690475Y86157762D02*
X60690475Y84538715D01*
X60690475Y84538715D02*
X60785713Y84348239D01*
X60785713Y84348239D02*
X60880951Y84253000D01*
X60880951Y84253000D02*
X61071427Y84157762D01*
X61071427Y84157762D02*
X61452380Y84157762D01*
X61452380Y84157762D02*
X61642856Y84253000D01*
X61642856Y84253000D02*
X61738094Y84348239D01*
X61738094Y84348239D02*
X61833332Y84538715D01*
X61833332Y84538715D02*
X61833332Y86157762D01*
X62499999Y86157762D02*
X63642856Y86157762D01*
X63071427Y84157762D02*
X63071427Y86157762D01*
X64309523Y85205381D02*
X64976190Y85205381D01*
X65261904Y84157762D02*
X64309523Y84157762D01*
X64309523Y84157762D02*
X64309523Y86157762D01*
X64309523Y86157762D02*
X65261904Y86157762D01*
X68023809Y86157762D02*
X68404762Y86157762D01*
X68404762Y86157762D02*
X68595238Y86062524D01*
X68595238Y86062524D02*
X68785714Y85872048D01*
X68785714Y85872048D02*
X68880952Y85491096D01*
X68880952Y85491096D02*
X68880952Y84824429D01*
X68880952Y84824429D02*
X68785714Y84443477D01*
X68785714Y84443477D02*
X68595238Y84253000D01*
X68595238Y84253000D02*
X68404762Y84157762D01*
X68404762Y84157762D02*
X68023809Y84157762D01*
X68023809Y84157762D02*
X67833333Y84253000D01*
X67833333Y84253000D02*
X67642857Y84443477D01*
X67642857Y84443477D02*
X67547619Y84824429D01*
X67547619Y84824429D02*
X67547619Y85491096D01*
X67547619Y85491096D02*
X67642857Y85872048D01*
X67642857Y85872048D02*
X67833333Y86062524D01*
X67833333Y86062524D02*
X68023809Y86157762D01*
X69738095Y86157762D02*
X69738095Y84538715D01*
X69738095Y84538715D02*
X69833333Y84348239D01*
X69833333Y84348239D02*
X69928571Y84253000D01*
X69928571Y84253000D02*
X70119047Y84157762D01*
X70119047Y84157762D02*
X70500000Y84157762D01*
X70500000Y84157762D02*
X70690476Y84253000D01*
X70690476Y84253000D02*
X70785714Y84348239D01*
X70785714Y84348239D02*
X70880952Y84538715D01*
X70880952Y84538715D02*
X70880952Y86157762D01*
X71547619Y86157762D02*
X72690476Y86157762D01*
X72119047Y84157762D02*
X72119047Y86157762D01*
X57738094Y113105761D02*
X57071427Y114058142D01*
X56595237Y113105761D02*
X56595237Y115105761D01*
X56595237Y115105761D02*
X57357142Y115105761D01*
X57357142Y115105761D02*
X57547618Y115010523D01*
X57547618Y115010523D02*
X57642856Y114915285D01*
X57642856Y114915285D02*
X57738094Y114724809D01*
X57738094Y114724809D02*
X57738094Y114439095D01*
X57738094Y114439095D02*
X57642856Y114248619D01*
X57642856Y114248619D02*
X57547618Y114153380D01*
X57547618Y114153380D02*
X57357142Y114058142D01*
X57357142Y114058142D02*
X56595237Y114058142D01*
X58976189Y115105761D02*
X59357142Y115105761D01*
X59357142Y115105761D02*
X59547618Y115010523D01*
X59547618Y115010523D02*
X59738094Y114820047D01*
X59738094Y114820047D02*
X59833332Y114439095D01*
X59833332Y114439095D02*
X59833332Y113772428D01*
X59833332Y113772428D02*
X59738094Y113391476D01*
X59738094Y113391476D02*
X59547618Y113201000D01*
X59547618Y113201000D02*
X59357142Y113105761D01*
X59357142Y113105761D02*
X58976189Y113105761D01*
X58976189Y113105761D02*
X58785713Y113201000D01*
X58785713Y113201000D02*
X58595237Y113391476D01*
X58595237Y113391476D02*
X58499999Y113772428D01*
X58499999Y113772428D02*
X58499999Y114439095D01*
X58499999Y114439095D02*
X58595237Y114820047D01*
X58595237Y114820047D02*
X58785713Y115010523D01*
X58785713Y115010523D02*
X58976189Y115105761D01*
X60690475Y115105761D02*
X60690475Y113486714D01*
X60690475Y113486714D02*
X60785713Y113296238D01*
X60785713Y113296238D02*
X60880951Y113201000D01*
X60880951Y113201000D02*
X61071427Y113105761D01*
X61071427Y113105761D02*
X61452380Y113105761D01*
X61452380Y113105761D02*
X61642856Y113201000D01*
X61642856Y113201000D02*
X61738094Y113296238D01*
X61738094Y113296238D02*
X61833332Y113486714D01*
X61833332Y113486714D02*
X61833332Y115105761D01*
X62499999Y115105761D02*
X63642856Y115105761D01*
X63071427Y113105761D02*
X63071427Y115105761D01*
X64309523Y114153380D02*
X64976190Y114153380D01*
X65261904Y113105761D02*
X64309523Y113105761D01*
X64309523Y113105761D02*
X64309523Y115105761D01*
X64309523Y115105761D02*
X65261904Y115105761D01*
X68023809Y115105761D02*
X68404762Y115105761D01*
X68404762Y115105761D02*
X68595238Y115010523D01*
X68595238Y115010523D02*
X68785714Y114820047D01*
X68785714Y114820047D02*
X68880952Y114439095D01*
X68880952Y114439095D02*
X68880952Y113772428D01*
X68880952Y113772428D02*
X68785714Y113391476D01*
X68785714Y113391476D02*
X68595238Y113201000D01*
X68595238Y113201000D02*
X68404762Y113105761D01*
X68404762Y113105761D02*
X68023809Y113105761D01*
X68023809Y113105761D02*
X67833333Y113201000D01*
X67833333Y113201000D02*
X67642857Y113391476D01*
X67642857Y113391476D02*
X67547619Y113772428D01*
X67547619Y113772428D02*
X67547619Y114439095D01*
X67547619Y114439095D02*
X67642857Y114820047D01*
X67642857Y114820047D02*
X67833333Y115010523D01*
X67833333Y115010523D02*
X68023809Y115105761D01*
X69738095Y115105761D02*
X69738095Y113486714D01*
X69738095Y113486714D02*
X69833333Y113296238D01*
X69833333Y113296238D02*
X69928571Y113201000D01*
X69928571Y113201000D02*
X70119047Y113105761D01*
X70119047Y113105761D02*
X70500000Y113105761D01*
X70500000Y113105761D02*
X70690476Y113201000D01*
X70690476Y113201000D02*
X70785714Y113296238D01*
X70785714Y113296238D02*
X70880952Y113486714D01*
X70880952Y113486714D02*
X70880952Y115105761D01*
X71547619Y115105761D02*
X72690476Y115105761D01*
X72119047Y113105761D02*
X72119047Y115105761D01*
X57738094Y142053761D02*
X57071427Y143006142D01*
X56595237Y142053761D02*
X56595237Y144053761D01*
X56595237Y144053761D02*
X57357142Y144053761D01*
X57357142Y144053761D02*
X57547618Y143958523D01*
X57547618Y143958523D02*
X57642856Y143863285D01*
X57642856Y143863285D02*
X57738094Y143672809D01*
X57738094Y143672809D02*
X57738094Y143387095D01*
X57738094Y143387095D02*
X57642856Y143196619D01*
X57642856Y143196619D02*
X57547618Y143101380D01*
X57547618Y143101380D02*
X57357142Y143006142D01*
X57357142Y143006142D02*
X56595237Y143006142D01*
X58976189Y144053761D02*
X59357142Y144053761D01*
X59357142Y144053761D02*
X59547618Y143958523D01*
X59547618Y143958523D02*
X59738094Y143768047D01*
X59738094Y143768047D02*
X59833332Y143387095D01*
X59833332Y143387095D02*
X59833332Y142720428D01*
X59833332Y142720428D02*
X59738094Y142339476D01*
X59738094Y142339476D02*
X59547618Y142149000D01*
X59547618Y142149000D02*
X59357142Y142053761D01*
X59357142Y142053761D02*
X58976189Y142053761D01*
X58976189Y142053761D02*
X58785713Y142149000D01*
X58785713Y142149000D02*
X58595237Y142339476D01*
X58595237Y142339476D02*
X58499999Y142720428D01*
X58499999Y142720428D02*
X58499999Y143387095D01*
X58499999Y143387095D02*
X58595237Y143768047D01*
X58595237Y143768047D02*
X58785713Y143958523D01*
X58785713Y143958523D02*
X58976189Y144053761D01*
X60690475Y144053761D02*
X60690475Y142434714D01*
X60690475Y142434714D02*
X60785713Y142244238D01*
X60785713Y142244238D02*
X60880951Y142149000D01*
X60880951Y142149000D02*
X61071427Y142053761D01*
X61071427Y142053761D02*
X61452380Y142053761D01*
X61452380Y142053761D02*
X61642856Y142149000D01*
X61642856Y142149000D02*
X61738094Y142244238D01*
X61738094Y142244238D02*
X61833332Y142434714D01*
X61833332Y142434714D02*
X61833332Y144053761D01*
X62499999Y144053761D02*
X63642856Y144053761D01*
X63071427Y142053761D02*
X63071427Y144053761D01*
X64309523Y143101380D02*
X64976190Y143101380D01*
X65261904Y142053761D02*
X64309523Y142053761D01*
X64309523Y142053761D02*
X64309523Y144053761D01*
X64309523Y144053761D02*
X65261904Y144053761D01*
X68023809Y144053761D02*
X68404762Y144053761D01*
X68404762Y144053761D02*
X68595238Y143958523D01*
X68595238Y143958523D02*
X68785714Y143768047D01*
X68785714Y143768047D02*
X68880952Y143387095D01*
X68880952Y143387095D02*
X68880952Y142720428D01*
X68880952Y142720428D02*
X68785714Y142339476D01*
X68785714Y142339476D02*
X68595238Y142149000D01*
X68595238Y142149000D02*
X68404762Y142053761D01*
X68404762Y142053761D02*
X68023809Y142053761D01*
X68023809Y142053761D02*
X67833333Y142149000D01*
X67833333Y142149000D02*
X67642857Y142339476D01*
X67642857Y142339476D02*
X67547619Y142720428D01*
X67547619Y142720428D02*
X67547619Y143387095D01*
X67547619Y143387095D02*
X67642857Y143768047D01*
X67642857Y143768047D02*
X67833333Y143958523D01*
X67833333Y143958523D02*
X68023809Y144053761D01*
X69738095Y144053761D02*
X69738095Y142434714D01*
X69738095Y142434714D02*
X69833333Y142244238D01*
X69833333Y142244238D02*
X69928571Y142149000D01*
X69928571Y142149000D02*
X70119047Y142053761D01*
X70119047Y142053761D02*
X70500000Y142053761D01*
X70500000Y142053761D02*
X70690476Y142149000D01*
X70690476Y142149000D02*
X70785714Y142244238D01*
X70785714Y142244238D02*
X70880952Y142434714D01*
X70880952Y142434714D02*
X70880952Y144053761D01*
X71547619Y144053761D02*
X72690476Y144053761D01*
X72119047Y142053761D02*
X72119047Y144053761D01*
X128162238Y153694949D02*
X130162238Y154361615D01*
X130162238Y154361615D02*
X128162238Y155028282D01*
X129400333Y155694949D02*
X129400333Y157218759D01*
X130067000Y158075901D02*
X130162238Y158361615D01*
X130162238Y158361615D02*
X130162238Y158837806D01*
X130162238Y158837806D02*
X130067000Y159028282D01*
X130067000Y159028282D02*
X129971761Y159123520D01*
X129971761Y159123520D02*
X129781285Y159218758D01*
X129781285Y159218758D02*
X129590809Y159218758D01*
X129590809Y159218758D02*
X129400333Y159123520D01*
X129400333Y159123520D02*
X129305095Y159028282D01*
X129305095Y159028282D02*
X129209857Y158837806D01*
X129209857Y158837806D02*
X129114619Y158456853D01*
X129114619Y158456853D02*
X129019380Y158266377D01*
X129019380Y158266377D02*
X128924142Y158171139D01*
X128924142Y158171139D02*
X128733666Y158075901D01*
X128733666Y158075901D02*
X128543190Y158075901D01*
X128543190Y158075901D02*
X128352714Y158171139D01*
X128352714Y158171139D02*
X128257476Y158266377D01*
X128257476Y158266377D02*
X128162238Y158456853D01*
X128162238Y158456853D02*
X128162238Y158933044D01*
X128162238Y158933044D02*
X128257476Y159218758D01*
X129971761Y161218758D02*
X130067000Y161123520D01*
X130067000Y161123520D02*
X130162238Y160837806D01*
X130162238Y160837806D02*
X130162238Y160647330D01*
X130162238Y160647330D02*
X130067000Y160361615D01*
X130067000Y160361615D02*
X129876523Y160171139D01*
X129876523Y160171139D02*
X129686047Y160075901D01*
X129686047Y160075901D02*
X129305095Y159980663D01*
X129305095Y159980663D02*
X129019380Y159980663D01*
X129019380Y159980663D02*
X128638428Y160075901D01*
X128638428Y160075901D02*
X128447952Y160171139D01*
X128447952Y160171139D02*
X128257476Y160361615D01*
X128257476Y160361615D02*
X128162238Y160647330D01*
X128162238Y160647330D02*
X128162238Y160837806D01*
X128162238Y160837806D02*
X128257476Y161123520D01*
X128257476Y161123520D02*
X128352714Y161218758D01*
X128162238Y162456853D02*
X128162238Y162837806D01*
X128162238Y162837806D02*
X128257476Y163028282D01*
X128257476Y163028282D02*
X128447952Y163218758D01*
X128447952Y163218758D02*
X128828904Y163313996D01*
X128828904Y163313996D02*
X129495571Y163313996D01*
X129495571Y163313996D02*
X129876523Y163218758D01*
X129876523Y163218758D02*
X130067000Y163028282D01*
X130067000Y163028282D02*
X130162238Y162837806D01*
X130162238Y162837806D02*
X130162238Y162456853D01*
X130162238Y162456853D02*
X130067000Y162266377D01*
X130067000Y162266377D02*
X129876523Y162075901D01*
X129876523Y162075901D02*
X129495571Y161980663D01*
X129495571Y161980663D02*
X128828904Y161980663D01*
X128828904Y161980663D02*
X128447952Y162075901D01*
X128447952Y162075901D02*
X128257476Y162266377D01*
X128257476Y162266377D02*
X128162238Y162456853D01*
X130162238Y165313996D02*
X129209857Y164647329D01*
X130162238Y164171139D02*
X128162238Y164171139D01*
X128162238Y164171139D02*
X128162238Y164933044D01*
X128162238Y164933044D02*
X128257476Y165123520D01*
X128257476Y165123520D02*
X128352714Y165218758D01*
X128352714Y165218758D02*
X128543190Y165313996D01*
X128543190Y165313996D02*
X128828904Y165313996D01*
X128828904Y165313996D02*
X129019380Y165218758D01*
X129019380Y165218758D02*
X129114619Y165123520D01*
X129114619Y165123520D02*
X129209857Y164933044D01*
X129209857Y164933044D02*
X129209857Y164171139D01*
X129114619Y166171139D02*
X129114619Y166837806D01*
X130162238Y167123520D02*
X130162238Y166171139D01*
X130162238Y166171139D02*
X128162238Y166171139D01*
X128162238Y166171139D02*
X128162238Y167123520D01*
D12*
X129250000Y151340000D02*
X129250000Y-10148000D01*
D11*
X102262238Y153694949D02*
X104262238Y154361615D01*
X104262238Y154361615D02*
X102262238Y155028282D01*
X103500333Y155694949D02*
X103500333Y157218759D01*
X104167000Y158075901D02*
X104262238Y158361615D01*
X104262238Y158361615D02*
X104262238Y158837806D01*
X104262238Y158837806D02*
X104167000Y159028282D01*
X104167000Y159028282D02*
X104071761Y159123520D01*
X104071761Y159123520D02*
X103881285Y159218758D01*
X103881285Y159218758D02*
X103690809Y159218758D01*
X103690809Y159218758D02*
X103500333Y159123520D01*
X103500333Y159123520D02*
X103405095Y159028282D01*
X103405095Y159028282D02*
X103309857Y158837806D01*
X103309857Y158837806D02*
X103214619Y158456853D01*
X103214619Y158456853D02*
X103119380Y158266377D01*
X103119380Y158266377D02*
X103024142Y158171139D01*
X103024142Y158171139D02*
X102833666Y158075901D01*
X102833666Y158075901D02*
X102643190Y158075901D01*
X102643190Y158075901D02*
X102452714Y158171139D01*
X102452714Y158171139D02*
X102357476Y158266377D01*
X102357476Y158266377D02*
X102262238Y158456853D01*
X102262238Y158456853D02*
X102262238Y158933044D01*
X102262238Y158933044D02*
X102357476Y159218758D01*
X104071761Y161218758D02*
X104167000Y161123520D01*
X104167000Y161123520D02*
X104262238Y160837806D01*
X104262238Y160837806D02*
X104262238Y160647330D01*
X104262238Y160647330D02*
X104167000Y160361615D01*
X104167000Y160361615D02*
X103976523Y160171139D01*
X103976523Y160171139D02*
X103786047Y160075901D01*
X103786047Y160075901D02*
X103405095Y159980663D01*
X103405095Y159980663D02*
X103119380Y159980663D01*
X103119380Y159980663D02*
X102738428Y160075901D01*
X102738428Y160075901D02*
X102547952Y160171139D01*
X102547952Y160171139D02*
X102357476Y160361615D01*
X102357476Y160361615D02*
X102262238Y160647330D01*
X102262238Y160647330D02*
X102262238Y160837806D01*
X102262238Y160837806D02*
X102357476Y161123520D01*
X102357476Y161123520D02*
X102452714Y161218758D01*
X102262238Y162456853D02*
X102262238Y162837806D01*
X102262238Y162837806D02*
X102357476Y163028282D01*
X102357476Y163028282D02*
X102547952Y163218758D01*
X102547952Y163218758D02*
X102928904Y163313996D01*
X102928904Y163313996D02*
X103595571Y163313996D01*
X103595571Y163313996D02*
X103976523Y163218758D01*
X103976523Y163218758D02*
X104167000Y163028282D01*
X104167000Y163028282D02*
X104262238Y162837806D01*
X104262238Y162837806D02*
X104262238Y162456853D01*
X104262238Y162456853D02*
X104167000Y162266377D01*
X104167000Y162266377D02*
X103976523Y162075901D01*
X103976523Y162075901D02*
X103595571Y161980663D01*
X103595571Y161980663D02*
X102928904Y161980663D01*
X102928904Y161980663D02*
X102547952Y162075901D01*
X102547952Y162075901D02*
X102357476Y162266377D01*
X102357476Y162266377D02*
X102262238Y162456853D01*
X104262238Y165313996D02*
X103309857Y164647329D01*
X104262238Y164171139D02*
X102262238Y164171139D01*
X102262238Y164171139D02*
X102262238Y164933044D01*
X102262238Y164933044D02*
X102357476Y165123520D01*
X102357476Y165123520D02*
X102452714Y165218758D01*
X102452714Y165218758D02*
X102643190Y165313996D01*
X102643190Y165313996D02*
X102928904Y165313996D01*
X102928904Y165313996D02*
X103119380Y165218758D01*
X103119380Y165218758D02*
X103214619Y165123520D01*
X103214619Y165123520D02*
X103309857Y164933044D01*
X103309857Y164933044D02*
X103309857Y164171139D01*
X103214619Y166171139D02*
X103214619Y166837806D01*
X104262238Y167123520D02*
X104262238Y166171139D01*
X104262238Y166171139D02*
X102262238Y166171139D01*
X102262238Y166171139D02*
X102262238Y167123520D01*
D12*
X103350000Y151340000D02*
X103350000Y-10148000D01*
D11*
X76362238Y153694949D02*
X78362238Y154361615D01*
X78362238Y154361615D02*
X76362238Y155028282D01*
X77600333Y155694949D02*
X77600333Y157218759D01*
X78267000Y158075901D02*
X78362238Y158361615D01*
X78362238Y158361615D02*
X78362238Y158837806D01*
X78362238Y158837806D02*
X78267000Y159028282D01*
X78267000Y159028282D02*
X78171761Y159123520D01*
X78171761Y159123520D02*
X77981285Y159218758D01*
X77981285Y159218758D02*
X77790809Y159218758D01*
X77790809Y159218758D02*
X77600333Y159123520D01*
X77600333Y159123520D02*
X77505095Y159028282D01*
X77505095Y159028282D02*
X77409857Y158837806D01*
X77409857Y158837806D02*
X77314619Y158456853D01*
X77314619Y158456853D02*
X77219380Y158266377D01*
X77219380Y158266377D02*
X77124142Y158171139D01*
X77124142Y158171139D02*
X76933666Y158075901D01*
X76933666Y158075901D02*
X76743190Y158075901D01*
X76743190Y158075901D02*
X76552714Y158171139D01*
X76552714Y158171139D02*
X76457476Y158266377D01*
X76457476Y158266377D02*
X76362238Y158456853D01*
X76362238Y158456853D02*
X76362238Y158933044D01*
X76362238Y158933044D02*
X76457476Y159218758D01*
X78171761Y161218758D02*
X78267000Y161123520D01*
X78267000Y161123520D02*
X78362238Y160837806D01*
X78362238Y160837806D02*
X78362238Y160647330D01*
X78362238Y160647330D02*
X78267000Y160361615D01*
X78267000Y160361615D02*
X78076523Y160171139D01*
X78076523Y160171139D02*
X77886047Y160075901D01*
X77886047Y160075901D02*
X77505095Y159980663D01*
X77505095Y159980663D02*
X77219380Y159980663D01*
X77219380Y159980663D02*
X76838428Y160075901D01*
X76838428Y160075901D02*
X76647952Y160171139D01*
X76647952Y160171139D02*
X76457476Y160361615D01*
X76457476Y160361615D02*
X76362238Y160647330D01*
X76362238Y160647330D02*
X76362238Y160837806D01*
X76362238Y160837806D02*
X76457476Y161123520D01*
X76457476Y161123520D02*
X76552714Y161218758D01*
X76362238Y162456853D02*
X76362238Y162837806D01*
X76362238Y162837806D02*
X76457476Y163028282D01*
X76457476Y163028282D02*
X76647952Y163218758D01*
X76647952Y163218758D02*
X77028904Y163313996D01*
X77028904Y163313996D02*
X77695571Y163313996D01*
X77695571Y163313996D02*
X78076523Y163218758D01*
X78076523Y163218758D02*
X78267000Y163028282D01*
X78267000Y163028282D02*
X78362238Y162837806D01*
X78362238Y162837806D02*
X78362238Y162456853D01*
X78362238Y162456853D02*
X78267000Y162266377D01*
X78267000Y162266377D02*
X78076523Y162075901D01*
X78076523Y162075901D02*
X77695571Y161980663D01*
X77695571Y161980663D02*
X77028904Y161980663D01*
X77028904Y161980663D02*
X76647952Y162075901D01*
X76647952Y162075901D02*
X76457476Y162266377D01*
X76457476Y162266377D02*
X76362238Y162456853D01*
X78362238Y165313996D02*
X77409857Y164647329D01*
X78362238Y164171139D02*
X76362238Y164171139D01*
X76362238Y164171139D02*
X76362238Y164933044D01*
X76362238Y164933044D02*
X76457476Y165123520D01*
X76457476Y165123520D02*
X76552714Y165218758D01*
X76552714Y165218758D02*
X76743190Y165313996D01*
X76743190Y165313996D02*
X77028904Y165313996D01*
X77028904Y165313996D02*
X77219380Y165218758D01*
X77219380Y165218758D02*
X77314619Y165123520D01*
X77314619Y165123520D02*
X77409857Y164933044D01*
X77409857Y164933044D02*
X77409857Y164171139D01*
X77314619Y166171139D02*
X77314619Y166837806D01*
X78362238Y167123520D02*
X78362238Y166171139D01*
X78362238Y166171139D02*
X76362238Y166171139D01*
X76362238Y166171139D02*
X76362238Y167123520D01*
D12*
X77450000Y151340000D02*
X77450000Y-10148000D01*
D11*
X50462238Y153694949D02*
X52462238Y154361615D01*
X52462238Y154361615D02*
X50462238Y155028282D01*
X51700333Y155694949D02*
X51700333Y157218759D01*
X52367000Y158075901D02*
X52462238Y158361615D01*
X52462238Y158361615D02*
X52462238Y158837806D01*
X52462238Y158837806D02*
X52367000Y159028282D01*
X52367000Y159028282D02*
X52271761Y159123520D01*
X52271761Y159123520D02*
X52081285Y159218758D01*
X52081285Y159218758D02*
X51890809Y159218758D01*
X51890809Y159218758D02*
X51700333Y159123520D01*
X51700333Y159123520D02*
X51605095Y159028282D01*
X51605095Y159028282D02*
X51509857Y158837806D01*
X51509857Y158837806D02*
X51414619Y158456853D01*
X51414619Y158456853D02*
X51319380Y158266377D01*
X51319380Y158266377D02*
X51224142Y158171139D01*
X51224142Y158171139D02*
X51033666Y158075901D01*
X51033666Y158075901D02*
X50843190Y158075901D01*
X50843190Y158075901D02*
X50652714Y158171139D01*
X50652714Y158171139D02*
X50557476Y158266377D01*
X50557476Y158266377D02*
X50462238Y158456853D01*
X50462238Y158456853D02*
X50462238Y158933044D01*
X50462238Y158933044D02*
X50557476Y159218758D01*
X52271761Y161218758D02*
X52367000Y161123520D01*
X52367000Y161123520D02*
X52462238Y160837806D01*
X52462238Y160837806D02*
X52462238Y160647330D01*
X52462238Y160647330D02*
X52367000Y160361615D01*
X52367000Y160361615D02*
X52176523Y160171139D01*
X52176523Y160171139D02*
X51986047Y160075901D01*
X51986047Y160075901D02*
X51605095Y159980663D01*
X51605095Y159980663D02*
X51319380Y159980663D01*
X51319380Y159980663D02*
X50938428Y160075901D01*
X50938428Y160075901D02*
X50747952Y160171139D01*
X50747952Y160171139D02*
X50557476Y160361615D01*
X50557476Y160361615D02*
X50462238Y160647330D01*
X50462238Y160647330D02*
X50462238Y160837806D01*
X50462238Y160837806D02*
X50557476Y161123520D01*
X50557476Y161123520D02*
X50652714Y161218758D01*
X50462238Y162456853D02*
X50462238Y162837806D01*
X50462238Y162837806D02*
X50557476Y163028282D01*
X50557476Y163028282D02*
X50747952Y163218758D01*
X50747952Y163218758D02*
X51128904Y163313996D01*
X51128904Y163313996D02*
X51795571Y163313996D01*
X51795571Y163313996D02*
X52176523Y163218758D01*
X52176523Y163218758D02*
X52367000Y163028282D01*
X52367000Y163028282D02*
X52462238Y162837806D01*
X52462238Y162837806D02*
X52462238Y162456853D01*
X52462238Y162456853D02*
X52367000Y162266377D01*
X52367000Y162266377D02*
X52176523Y162075901D01*
X52176523Y162075901D02*
X51795571Y161980663D01*
X51795571Y161980663D02*
X51128904Y161980663D01*
X51128904Y161980663D02*
X50747952Y162075901D01*
X50747952Y162075901D02*
X50557476Y162266377D01*
X50557476Y162266377D02*
X50462238Y162456853D01*
X52462238Y165313996D02*
X51509857Y164647329D01*
X52462238Y164171139D02*
X50462238Y164171139D01*
X50462238Y164171139D02*
X50462238Y164933044D01*
X50462238Y164933044D02*
X50557476Y165123520D01*
X50557476Y165123520D02*
X50652714Y165218758D01*
X50652714Y165218758D02*
X50843190Y165313996D01*
X50843190Y165313996D02*
X51128904Y165313996D01*
X51128904Y165313996D02*
X51319380Y165218758D01*
X51319380Y165218758D02*
X51414619Y165123520D01*
X51414619Y165123520D02*
X51509857Y164933044D01*
X51509857Y164933044D02*
X51509857Y164171139D01*
X51414619Y166171139D02*
X51414619Y166837806D01*
X52462238Y167123520D02*
X52462238Y166171139D01*
X52462238Y166171139D02*
X50462238Y166171139D01*
X50462238Y166171139D02*
X50462238Y167123520D01*
D12*
X51550000Y151340000D02*
X51550000Y-10148000D01*
D11*
X24562238Y153694949D02*
X26562238Y154361615D01*
X26562238Y154361615D02*
X24562238Y155028282D01*
X25800333Y155694949D02*
X25800333Y157218759D01*
X26467000Y158075901D02*
X26562238Y158361615D01*
X26562238Y158361615D02*
X26562238Y158837806D01*
X26562238Y158837806D02*
X26467000Y159028282D01*
X26467000Y159028282D02*
X26371761Y159123520D01*
X26371761Y159123520D02*
X26181285Y159218758D01*
X26181285Y159218758D02*
X25990809Y159218758D01*
X25990809Y159218758D02*
X25800333Y159123520D01*
X25800333Y159123520D02*
X25705095Y159028282D01*
X25705095Y159028282D02*
X25609857Y158837806D01*
X25609857Y158837806D02*
X25514619Y158456853D01*
X25514619Y158456853D02*
X25419380Y158266377D01*
X25419380Y158266377D02*
X25324142Y158171139D01*
X25324142Y158171139D02*
X25133666Y158075901D01*
X25133666Y158075901D02*
X24943190Y158075901D01*
X24943190Y158075901D02*
X24752714Y158171139D01*
X24752714Y158171139D02*
X24657476Y158266377D01*
X24657476Y158266377D02*
X24562238Y158456853D01*
X24562238Y158456853D02*
X24562238Y158933044D01*
X24562238Y158933044D02*
X24657476Y159218758D01*
X26371761Y161218758D02*
X26467000Y161123520D01*
X26467000Y161123520D02*
X26562238Y160837806D01*
X26562238Y160837806D02*
X26562238Y160647330D01*
X26562238Y160647330D02*
X26467000Y160361615D01*
X26467000Y160361615D02*
X26276523Y160171139D01*
X26276523Y160171139D02*
X26086047Y160075901D01*
X26086047Y160075901D02*
X25705095Y159980663D01*
X25705095Y159980663D02*
X25419380Y159980663D01*
X25419380Y159980663D02*
X25038428Y160075901D01*
X25038428Y160075901D02*
X24847952Y160171139D01*
X24847952Y160171139D02*
X24657476Y160361615D01*
X24657476Y160361615D02*
X24562238Y160647330D01*
X24562238Y160647330D02*
X24562238Y160837806D01*
X24562238Y160837806D02*
X24657476Y161123520D01*
X24657476Y161123520D02*
X24752714Y161218758D01*
X24562238Y162456853D02*
X24562238Y162837806D01*
X24562238Y162837806D02*
X24657476Y163028282D01*
X24657476Y163028282D02*
X24847952Y163218758D01*
X24847952Y163218758D02*
X25228904Y163313996D01*
X25228904Y163313996D02*
X25895571Y163313996D01*
X25895571Y163313996D02*
X26276523Y163218758D01*
X26276523Y163218758D02*
X26467000Y163028282D01*
X26467000Y163028282D02*
X26562238Y162837806D01*
X26562238Y162837806D02*
X26562238Y162456853D01*
X26562238Y162456853D02*
X26467000Y162266377D01*
X26467000Y162266377D02*
X26276523Y162075901D01*
X26276523Y162075901D02*
X25895571Y161980663D01*
X25895571Y161980663D02*
X25228904Y161980663D01*
X25228904Y161980663D02*
X24847952Y162075901D01*
X24847952Y162075901D02*
X24657476Y162266377D01*
X24657476Y162266377D02*
X24562238Y162456853D01*
X26562238Y165313996D02*
X25609857Y164647329D01*
X26562238Y164171139D02*
X24562238Y164171139D01*
X24562238Y164171139D02*
X24562238Y164933044D01*
X24562238Y164933044D02*
X24657476Y165123520D01*
X24657476Y165123520D02*
X24752714Y165218758D01*
X24752714Y165218758D02*
X24943190Y165313996D01*
X24943190Y165313996D02*
X25228904Y165313996D01*
X25228904Y165313996D02*
X25419380Y165218758D01*
X25419380Y165218758D02*
X25514619Y165123520D01*
X25514619Y165123520D02*
X25609857Y164933044D01*
X25609857Y164933044D02*
X25609857Y164171139D01*
X25514619Y166171139D02*
X25514619Y166837806D01*
X26562238Y167123520D02*
X26562238Y166171139D01*
X26562238Y166171139D02*
X24562238Y166171139D01*
X24562238Y166171139D02*
X24562238Y167123520D01*
D12*
X25650000Y151340000D02*
X25650000Y-10148000D01*
D11*
X-1337762Y153694949D02*
X662238Y154361615D01*
X662238Y154361615D02*
X-1337762Y155028282D01*
X-99667Y155694949D02*
X-99667Y157218759D01*
X567000Y158075901D02*
X662238Y158361615D01*
X662238Y158361615D02*
X662238Y158837806D01*
X662238Y158837806D02*
X567000Y159028282D01*
X567000Y159028282D02*
X471761Y159123520D01*
X471761Y159123520D02*
X281285Y159218758D01*
X281285Y159218758D02*
X90809Y159218758D01*
X90809Y159218758D02*
X-99667Y159123520D01*
X-99667Y159123520D02*
X-194905Y159028282D01*
X-194905Y159028282D02*
X-290143Y158837806D01*
X-290143Y158837806D02*
X-385381Y158456853D01*
X-385381Y158456853D02*
X-480620Y158266377D01*
X-480620Y158266377D02*
X-575858Y158171139D01*
X-575858Y158171139D02*
X-766334Y158075901D01*
X-766334Y158075901D02*
X-956810Y158075901D01*
X-956810Y158075901D02*
X-1147286Y158171139D01*
X-1147286Y158171139D02*
X-1242524Y158266377D01*
X-1242524Y158266377D02*
X-1337762Y158456853D01*
X-1337762Y158456853D02*
X-1337762Y158933044D01*
X-1337762Y158933044D02*
X-1242524Y159218758D01*
X471761Y161218758D02*
X567000Y161123520D01*
X567000Y161123520D02*
X662238Y160837806D01*
X662238Y160837806D02*
X662238Y160647330D01*
X662238Y160647330D02*
X567000Y160361615D01*
X567000Y160361615D02*
X376523Y160171139D01*
X376523Y160171139D02*
X186047Y160075901D01*
X186047Y160075901D02*
X-194905Y159980663D01*
X-194905Y159980663D02*
X-480620Y159980663D01*
X-480620Y159980663D02*
X-861572Y160075901D01*
X-861572Y160075901D02*
X-1052048Y160171139D01*
X-1052048Y160171139D02*
X-1242524Y160361615D01*
X-1242524Y160361615D02*
X-1337762Y160647330D01*
X-1337762Y160647330D02*
X-1337762Y160837806D01*
X-1337762Y160837806D02*
X-1242524Y161123520D01*
X-1242524Y161123520D02*
X-1147286Y161218758D01*
X-1337762Y162456853D02*
X-1337762Y162837806D01*
X-1337762Y162837806D02*
X-1242524Y163028282D01*
X-1242524Y163028282D02*
X-1052048Y163218758D01*
X-1052048Y163218758D02*
X-671096Y163313996D01*
X-671096Y163313996D02*
X-4429Y163313996D01*
X-4429Y163313996D02*
X376523Y163218758D01*
X376523Y163218758D02*
X567000Y163028282D01*
X567000Y163028282D02*
X662238Y162837806D01*
X662238Y162837806D02*
X662238Y162456853D01*
X662238Y162456853D02*
X567000Y162266377D01*
X567000Y162266377D02*
X376523Y162075901D01*
X376523Y162075901D02*
X-4429Y161980663D01*
X-4429Y161980663D02*
X-671096Y161980663D01*
X-671096Y161980663D02*
X-1052048Y162075901D01*
X-1052048Y162075901D02*
X-1242524Y162266377D01*
X-1242524Y162266377D02*
X-1337762Y162456853D01*
X662238Y165313996D02*
X-290143Y164647329D01*
X662238Y164171139D02*
X-1337762Y164171139D01*
X-1337762Y164171139D02*
X-1337762Y164933044D01*
X-1337762Y164933044D02*
X-1242524Y165123520D01*
X-1242524Y165123520D02*
X-1147286Y165218758D01*
X-1147286Y165218758D02*
X-956810Y165313996D01*
X-956810Y165313996D02*
X-671096Y165313996D01*
X-671096Y165313996D02*
X-480620Y165218758D01*
X-480620Y165218758D02*
X-385381Y165123520D01*
X-385381Y165123520D02*
X-290143Y164933044D01*
X-290143Y164933044D02*
X-290143Y164171139D01*
X-385381Y166171139D02*
X-385381Y166837806D01*
X662238Y167123520D02*
X662238Y166171139D01*
X662238Y166171139D02*
X-1337762Y166171139D01*
X-1337762Y166171139D02*
X-1337762Y167123520D01*
D12*
X-250000Y151340000D02*
X-250000Y-10148000D01*
M02*
